<?xml version="1.0" encoding="UTF-8"?>
<svg id="Layer_2" data-name="Layer 2" xmlns="http://www.w3.org/2000/svg" viewBox="0 0 160.76 246.01">
  <defs>
    <style>
      .cls-1, .cls-2 {
        fill: #fff;
      }

      .cls-3 {
        fill: #231f20;
      }

      .cls-2 {
        font-family: PingFangSC-Light-GBpc-EUC-H, 'PingFang SC';
        font-size: 12px;
      }
    </style>
  </defs>
  <g id="_图层_1" data-name="图层 1">
    <g>
      <g>
        <g>
          <rect class="cls-1" x="96.46" y="236.37" width="8.04" height="4.82"/>
          <rect class="cls-1" x="88.42" y="236.37" width="8.04" height="4.82"/>
          <rect class="cls-1" x="80.38" y="236.37" width="8.04" height="4.82"/>
          <rect class="cls-1" x="72.34" y="236.37" width="8.04" height="4.82"/>
          <rect class="cls-1" x="64.3" y="236.37" width="8.04" height="4.82"/>
          <rect class="cls-1" x="56.27" y="236.37" width="8.04" height="4.82"/>
          <rect class="cls-1" x="40.19" y="236.37" width="8.04" height="4.82"/>
          <rect class="cls-1" x="104.5" y="231.54" width="8.04" height="4.82"/>
          <rect class="cls-1" x="96.46" y="231.54" width="8.04" height="4.82"/>
          <rect class="cls-1" x="88.42" y="231.54" width="8.04" height="4.82"/>
          <rect class="cls-1" x="80.38" y="231.54" width="8.04" height="4.82"/>
          <rect class="cls-1" x="72.34" y="231.54" width="8.04" height="4.82"/>
          <rect class="cls-1" x="64.3" y="231.54" width="8.04" height="4.82"/>
          <rect class="cls-1" x="56.27" y="231.54" width="8.04" height="4.82"/>
          <rect class="cls-1" x="48.23" y="231.54" width="8.04" height="4.82"/>
          <rect class="cls-1" x="104.5" y="226.72" width="8.04" height="4.82"/>
          <rect class="cls-1" x="96.46" y="226.72" width="8.04" height="4.82"/>
          <rect class="cls-1" x="88.42" y="226.72" width="8.04" height="4.82"/>
          <rect class="cls-1" x="72.34" y="226.72" width="8.04" height="4.82"/>
          <rect class="cls-1" x="64.3" y="226.72" width="8.04" height="4.82"/>
          <rect class="cls-1" x="56.27" y="226.72" width="8.04" height="4.82"/>
          <rect class="cls-1" x="104.5" y="221.9" width="8.04" height="4.82"/>
          <rect class="cls-1" x="96.46" y="221.9" width="8.04" height="4.82"/>
          <rect class="cls-1" x="88.42" y="221.9" width="8.04" height="4.82"/>
          <rect class="cls-1" x="72.34" y="221.9" width="8.04" height="4.82"/>
          <rect class="cls-1" x="64.3" y="221.9" width="8.04" height="4.82"/>
          <rect class="cls-1" x="104.5" y="217.07" width="8.04" height="4.82"/>
          <rect class="cls-1" x="96.46" y="217.07" width="8.04" height="4.82"/>
          <rect class="cls-1" x="80.38" y="217.07" width="8.04" height="4.82"/>
          <rect class="cls-1" x="72.34" y="217.07" width="8.04" height="4.82"/>
          <rect class="cls-1" x="64.3" y="217.07" width="8.04" height="4.82"/>
          <rect class="cls-1" x="104.5" y="212.25" width="8.04" height="4.82"/>
          <rect class="cls-1" x="96.46" y="212.25" width="8.04" height="4.82"/>
          <rect class="cls-1" x="80.38" y="212.25" width="8.04" height="4.82"/>
          <rect class="cls-1" x="72.34" y="212.25" width="8.04" height="4.82"/>
          <rect class="cls-1" x="64.3" y="212.25" width="8.04" height="4.82"/>
          <rect class="cls-1" x="112.53" y="207.42" width="8.04" height="4.82"/>
          <rect class="cls-1" x="104.5" y="207.42" width="8.04" height="4.82"/>
          <rect class="cls-1" x="96.46" y="207.42" width="8.04" height="4.82"/>
          <rect class="cls-1" x="80.38" y="207.42" width="8.04" height="4.82"/>
          <rect class="cls-1" x="72.34" y="207.42" width="8.04" height="4.82"/>
          <rect class="cls-1" x="64.3" y="207.42" width="8.04" height="4.82"/>
          <rect class="cls-1" x="112.53" y="202.6" width="8.04" height="4.82"/>
          <rect class="cls-1" x="104.5" y="202.6" width="8.04" height="4.82"/>
          <rect class="cls-1" x="96.46" y="202.6" width="8.04" height="4.82"/>
          <rect class="cls-1" x="88.42" y="202.6" width="8.04" height="4.82"/>
          <rect class="cls-1" x="72.34" y="202.6" width="8.04" height="4.82"/>
          <rect class="cls-1" x="64.3" y="202.6" width="8.04" height="4.82"/>
          <rect class="cls-1" x="112.53" y="197.78" width="8.04" height="4.82"/>
          <rect class="cls-1" x="104.5" y="197.78" width="8.04" height="4.82"/>
          <rect class="cls-1" x="96.46" y="197.78" width="8.04" height="4.82"/>
          <rect class="cls-1" x="88.42" y="197.78" width="8.04" height="4.82"/>
          <rect class="cls-1" x="72.34" y="197.78" width="8.04" height="4.82"/>
          <rect class="cls-1" x="64.3" y="197.78" width="8.04" height="4.82"/>
          <rect class="cls-1" x="112.53" y="192.95" width="8.04" height="4.82"/>
          <rect class="cls-1" x="104.5" y="192.95" width="8.04" height="4.82"/>
          <rect class="cls-1" x="96.46" y="192.95" width="8.04" height="4.82"/>
          <rect class="cls-1" x="88.42" y="192.95" width="8.04" height="4.82"/>
          <rect class="cls-1" x="72.34" y="192.95" width="8.04" height="4.82"/>
          <rect class="cls-1" x="64.3" y="192.95" width="8.04" height="4.82"/>
          <rect class="cls-1" x="112.53" y="188.13" width="8.04" height="4.82"/>
          <rect class="cls-1" x="104.5" y="188.13" width="8.04" height="4.82"/>
          <rect class="cls-1" x="96.46" y="188.13" width="8.04" height="4.82"/>
          <rect class="cls-1" x="88.42" y="188.13" width="8.04" height="4.82"/>
          <rect class="cls-1" x="72.34" y="188.13" width="8.04" height="4.82"/>
          <rect class="cls-1" x="64.3" y="188.13" width="8.04" height="4.82"/>
          <rect class="cls-1" x="112.53" y="183.3" width="8.04" height="4.82"/>
          <rect class="cls-1" x="104.5" y="183.3" width="8.04" height="4.82"/>
          <rect class="cls-1" x="96.46" y="183.3" width="8.04" height="4.82"/>
          <rect class="cls-1" x="88.42" y="183.3" width="8.04" height="4.82"/>
          <rect class="cls-1" x="72.34" y="183.3" width="8.04" height="4.82"/>
          <rect class="cls-1" x="64.3" y="183.3" width="8.04" height="4.82"/>
          <rect class="cls-1" x="56.27" y="183.3" width="8.04" height="4.82"/>
          <rect class="cls-1" x="104.5" y="178.48" width="8.04" height="4.82"/>
          <rect class="cls-1" x="96.46" y="178.48" width="8.04" height="4.82"/>
          <rect class="cls-1" x="88.42" y="178.48" width="8.04" height="4.82"/>
          <rect class="cls-1" x="72.34" y="178.48" width="8.04" height="4.82"/>
          <rect class="cls-1" x="64.3" y="178.48" width="8.04" height="4.82"/>
          <rect class="cls-1" x="56.27" y="178.48" width="8.04" height="4.82"/>
          <rect class="cls-1" x="104.5" y="173.66" width="8.04" height="4.82"/>
          <rect class="cls-1" x="96.46" y="173.66" width="8.04" height="4.82"/>
          <rect class="cls-1" x="88.42" y="173.66" width="8.04" height="4.82"/>
          <rect class="cls-1" x="72.34" y="173.66" width="8.04" height="4.82"/>
          <rect class="cls-1" x="64.3" y="173.66" width="8.04" height="4.82"/>
          <rect class="cls-1" x="56.27" y="173.66" width="8.04" height="4.82"/>
          <rect class="cls-1" x="104.5" y="168.83" width="8.04" height="4.82"/>
          <rect class="cls-1" x="96.46" y="168.83" width="8.04" height="4.82"/>
          <rect class="cls-1" x="88.42" y="168.83" width="8.04" height="4.82"/>
          <rect class="cls-1" x="80.38" y="168.83" width="8.04" height="4.82"/>
          <rect class="cls-1" x="64.3" y="168.83" width="8.04" height="4.82"/>
          <rect class="cls-1" x="56.27" y="168.83" width="8.04" height="4.82"/>
          <rect class="cls-1" x="104.5" y="164.01" width="8.04" height="4.82"/>
          <rect class="cls-1" x="96.46" y="164.01" width="8.04" height="4.82"/>
          <rect class="cls-1" x="88.42" y="164.01" width="8.04" height="4.82"/>
          <rect class="cls-1" x="80.38" y="164.01" width="8.04" height="4.82"/>
          <rect class="cls-1" x="64.3" y="164.01" width="8.04" height="4.82"/>
          <rect class="cls-1" x="56.27" y="164.01" width="8.04" height="4.82"/>
          <rect class="cls-1" x="48.23" y="164.01" width="8.04" height="4.82"/>
          <rect class="cls-1" x="96.46" y="159.19" width="8.04" height="4.82"/>
          <rect class="cls-1" x="88.42" y="159.19" width="8.04" height="4.82"/>
          <rect class="cls-1" x="80.38" y="159.19" width="8.04" height="4.82"/>
          <rect class="cls-1" x="64.3" y="159.19" width="8.04" height="4.82"/>
          <rect class="cls-1" x="56.27" y="159.19" width="8.04" height="4.82"/>
          <rect class="cls-1" x="48.23" y="159.19" width="8.04" height="4.82"/>
          <rect class="cls-1" x="96.46" y="154.36" width="8.04" height="4.82"/>
          <rect class="cls-1" x="88.42" y="154.36" width="8.04" height="4.82"/>
          <rect class="cls-1" x="80.38" y="154.36" width="8.04" height="4.82"/>
          <rect class="cls-1" x="72.34" y="154.36" width="8.04" height="4.82"/>
          <rect class="cls-1" x="56.27" y="154.36" width="8.04" height="4.82"/>
          <rect class="cls-1" x="48.23" y="154.36" width="8.04" height="4.82"/>
          <rect class="cls-1" x="96.46" y="149.54" width="8.04" height="4.82"/>
          <rect class="cls-1" x="88.42" y="149.54" width="8.04" height="4.82"/>
          <rect class="cls-1" x="80.38" y="149.54" width="8.04" height="4.82"/>
          <rect class="cls-1" x="72.34" y="149.54" width="8.04" height="4.82"/>
          <rect class="cls-1" x="56.27" y="149.54" width="8.04" height="4.82"/>
          <rect class="cls-1" x="48.23" y="149.54" width="8.04" height="4.82"/>
          <rect class="cls-1" x="40.19" y="149.54" width="8.04" height="4.82"/>
          <rect class="cls-1" x="96.46" y="144.71" width="8.04" height="4.82"/>
          <rect class="cls-1" x="88.42" y="144.71" width="8.04" height="4.82"/>
          <rect class="cls-1" x="80.38" y="144.71" width="8.04" height="4.82"/>
          <rect class="cls-1" x="72.34" y="144.71" width="8.04" height="4.82"/>
          <rect class="cls-1" x="64.3" y="144.71" width="8.04" height="4.82"/>
          <rect class="cls-1" x="48.23" y="144.71" width="8.04" height="4.82"/>
          <rect class="cls-1" x="40.19" y="144.71" width="8.04" height="4.82"/>
          <rect class="cls-1" x="96.46" y="139.89" width="8.04" height="4.82"/>
          <rect class="cls-1" x="88.42" y="139.89" width="8.04" height="4.82"/>
          <rect class="cls-1" x="80.38" y="139.89" width="8.04" height="4.82"/>
          <rect class="cls-1" x="72.34" y="139.89" width="8.04" height="4.82"/>
          <rect class="cls-1" x="64.3" y="139.89" width="8.04" height="4.82"/>
          <rect class="cls-1" x="48.23" y="139.89" width="8.04" height="4.82"/>
          <rect class="cls-1" x="40.19" y="139.89" width="8.04" height="4.82"/>
          <rect class="cls-1" x="96.46" y="135.07" width="8.04" height="4.82"/>
          <rect class="cls-1" x="88.42" y="135.07" width="8.04" height="4.82"/>
          <rect class="cls-1" x="80.38" y="135.07" width="8.04" height="4.82"/>
          <rect class="cls-1" x="72.34" y="135.07" width="8.04" height="4.82"/>
          <rect class="cls-1" x="64.3" y="135.07" width="8.04" height="4.82"/>
          <rect class="cls-1" x="56.27" y="135.07" width="8.04" height="4.82"/>
          <rect class="cls-1" x="48.23" y="135.07" width="8.04" height="4.82"/>
          <rect class="cls-1" x="40.19" y="135.07" width="8.04" height="4.82"/>
          <rect class="cls-1" x="104.5" y="130.24" width="8.04" height="4.82"/>
          <rect class="cls-1" x="96.46" y="130.24" width="8.04" height="4.82"/>
          <rect class="cls-1" x="88.42" y="130.24" width="8.04" height="4.82"/>
          <rect class="cls-1" x="80.38" y="130.24" width="8.04" height="4.82"/>
          <rect class="cls-1" x="72.34" y="130.24" width="8.04" height="4.82"/>
          <rect class="cls-1" x="64.3" y="130.24" width="8.04" height="4.82"/>
          <rect class="cls-1" x="56.27" y="130.24" width="8.04" height="4.82"/>
          <rect class="cls-1" x="48.23" y="130.24" width="8.04" height="4.82"/>
          <rect class="cls-1" x="40.19" y="130.24" width="8.04" height="4.82"/>
          <rect class="cls-1" x="32.15" y="130.24" width="8.04" height="4.82"/>
          <rect class="cls-1" x="104.5" y="125.42" width="8.04" height="4.82"/>
          <rect class="cls-1" x="96.46" y="125.42" width="8.04" height="4.82"/>
          <rect class="cls-1" x="48.23" y="125.42" width="8.04" height="4.82"/>
          <rect class="cls-1" x="40.19" y="125.42" width="8.04" height="4.82"/>
          <rect class="cls-1" x="32.15" y="125.42" width="8.04" height="4.82"/>
          <rect class="cls-1" x="88.42" y="120.6" width="8.04" height="4.82"/>
          <rect class="cls-1" x="80.38" y="120.6" width="8.04" height="4.82"/>
          <rect class="cls-1" x="72.34" y="120.6" width="8.04" height="4.82"/>
          <rect class="cls-1" x="64.3" y="120.6" width="8.04" height="4.82"/>
          <rect class="cls-1" x="48.23" y="120.6" width="8.04" height="4.82"/>
          <rect class="cls-1" x="40.19" y="120.6" width="8.04" height="4.82"/>
          <rect class="cls-1" x="96.46" y="115.77" width="8.04" height="4.82"/>
          <rect class="cls-1" x="88.42" y="115.77" width="8.04" height="4.82"/>
          <rect class="cls-1" x="80.38" y="115.77" width="8.04" height="4.82"/>
          <rect class="cls-1" x="72.34" y="115.77" width="8.04" height="4.82"/>
          <rect class="cls-1" x="64.3" y="115.77" width="8.04" height="4.82"/>
          <rect class="cls-1" x="48.23" y="115.77" width="8.04" height="4.82"/>
          <rect class="cls-1" x="40.19" y="115.77" width="8.04" height="4.82"/>
          <rect class="cls-1" x="104.5" y="110.95" width="8.04" height="4.82"/>
          <rect class="cls-1" x="96.46" y="110.95" width="8.04" height="4.82"/>
          <rect class="cls-1" x="88.42" y="110.95" width="8.04" height="4.82"/>
          <rect class="cls-1" x="80.38" y="110.95" width="8.04" height="4.82"/>
          <rect class="cls-1" x="48.23" y="110.95" width="8.04" height="4.82"/>
          <rect class="cls-1" x="40.19" y="110.95" width="8.04" height="4.82"/>
          <rect class="cls-1" x="120.57" y="106.12" width="8.04" height="4.82"/>
          <rect class="cls-1" x="112.53" y="106.12" width="8.04" height="4.82"/>
          <rect class="cls-1" x="104.5" y="106.12" width="8.04" height="4.82"/>
          <rect class="cls-1" x="72.34" y="106.12" width="8.04" height="4.82"/>
          <rect class="cls-1" x="64.3" y="106.12" width="8.04" height="4.82"/>
          <rect class="cls-1" x="32.15" y="106.12" width="8.04" height="4.82"/>
          <rect class="cls-1" x="136.65" y="101.3" width="8.04" height="4.82"/>
          <rect class="cls-1" x="128.61" y="101.3" width="8.04" height="4.82"/>
          <rect class="cls-1" x="120.57" y="101.3" width="8.04" height="4.82"/>
          <rect class="cls-1" x="112.53" y="101.3" width="8.04" height="4.82"/>
          <rect class="cls-1" x="96.46" y="101.3" width="8.04" height="4.82"/>
          <rect class="cls-1" x="88.42" y="101.3" width="8.04" height="4.82"/>
          <rect class="cls-1" x="80.38" y="101.3" width="8.04" height="4.82"/>
          <rect class="cls-1" x="72.34" y="101.3" width="8.04" height="4.82"/>
          <rect class="cls-1" x="64.3" y="101.3" width="8.04" height="4.82"/>
          <rect class="cls-1" x="56.27" y="101.3" width="8.04" height="4.82"/>
          <rect class="cls-1" x="48.23" y="101.3" width="8.04" height="4.82"/>
          <rect class="cls-1" x="40.19" y="101.3" width="8.04" height="4.82"/>
          <rect class="cls-1" x="24.11" y="101.3" width="8.04" height="4.82"/>
          <rect class="cls-1" x="136.65" y="96.48" width="8.04" height="4.82"/>
          <rect class="cls-1" x="128.61" y="96.48" width="8.04" height="4.82"/>
          <rect class="cls-1" x="120.57" y="96.48" width="8.04" height="4.82"/>
          <rect class="cls-1" x="96.46" y="96.48" width="8.04" height="4.82"/>
          <rect class="cls-1" x="88.42" y="96.48" width="8.04" height="4.82"/>
          <rect class="cls-1" x="80.38" y="96.48" width="8.04" height="4.82"/>
          <rect class="cls-1" x="72.34" y="96.48" width="8.04" height="4.82"/>
          <rect class="cls-1" x="64.3" y="96.48" width="8.04" height="4.82"/>
          <rect class="cls-1" x="56.27" y="96.48" width="8.04" height="4.82"/>
          <rect class="cls-1" x="48.23" y="96.48" width="8.04" height="4.82"/>
          <rect class="cls-1" x="40.19" y="96.48" width="8.04" height="4.82"/>
          <rect class="cls-1" x="32.15" y="96.48" width="8.04" height="4.82"/>
          <rect class="cls-1" x="16.08" y="96.48" width="8.04" height="4.82"/>
          <rect class="cls-1" x="136.65" y="91.65" width="8.04" height="4.82"/>
          <rect class="cls-1" x="128.61" y="91.65" width="8.04" height="4.82"/>
          <rect class="cls-1" x="120.57" y="91.65" width="8.04" height="4.82"/>
          <rect class="cls-1" x="104.5" y="91.65" width="8.04" height="4.82"/>
          <rect class="cls-1" x="96.46" y="91.65" width="8.04" height="4.82"/>
          <rect class="cls-1" x="88.42" y="91.65" width="8.04" height="4.82"/>
          <rect class="cls-1" x="80.38" y="91.65" width="8.04" height="4.82"/>
          <rect class="cls-1" x="72.34" y="91.65" width="8.04" height="4.82"/>
          <rect class="cls-1" x="64.3" y="91.65" width="8.04" height="4.82"/>
          <rect class="cls-1" x="56.27" y="91.65" width="8.04" height="4.82"/>
          <rect class="cls-1" x="48.23" y="91.65" width="8.04" height="4.82"/>
          <rect class="cls-1" x="40.19" y="91.65" width="8.04" height="4.82"/>
          <rect class="cls-1" x="32.15" y="91.65" width="8.04" height="4.82"/>
          <rect class="cls-1" x="24.11" y="91.65" width="8.04" height="4.82"/>
          <rect class="cls-1" x="16.08" y="91.65" width="8.04" height="4.82"/>
          <rect class="cls-1" x="136.65" y="86.83" width="8.04" height="4.82"/>
          <rect class="cls-1" x="128.61" y="86.83" width="8.04" height="4.82"/>
          <rect class="cls-1" x="120.57" y="86.83" width="8.04" height="4.82"/>
          <rect class="cls-1" x="104.5" y="86.83" width="8.04" height="4.82"/>
          <rect class="cls-1" x="96.46" y="86.83" width="8.04" height="4.82"/>
          <rect class="cls-1" x="88.42" y="86.83" width="8.04" height="4.82"/>
          <rect class="cls-1" x="80.38" y="86.83" width="8.04" height="4.82"/>
          <rect class="cls-1" x="72.34" y="86.83" width="8.04" height="4.82"/>
          <rect class="cls-1" x="64.3" y="86.83" width="8.04" height="4.82"/>
          <rect class="cls-1" x="56.27" y="86.83" width="8.04" height="4.82"/>
          <rect class="cls-1" x="48.23" y="86.83" width="8.04" height="4.82"/>
          <rect class="cls-1" x="40.19" y="86.83" width="8.04" height="4.82"/>
          <rect class="cls-1" x="32.15" y="86.83" width="8.04" height="4.82"/>
          <rect class="cls-1" x="24.11" y="86.83" width="8.04" height="4.82"/>
          <rect class="cls-1" x="16.08" y="86.83" width="8.04" height="4.82"/>
          <rect class="cls-1" x="136.65" y="82" width="8.04" height="4.82"/>
          <rect class="cls-1" x="128.61" y="82" width="8.04" height="4.82"/>
          <rect class="cls-1" x="112.53" y="82" width="8.04" height="4.82"/>
          <rect class="cls-1" x="104.5" y="82" width="8.04" height="4.82"/>
          <rect class="cls-1" x="96.46" y="82" width="8.04" height="4.82"/>
          <rect class="cls-1" x="88.42" y="82" width="8.04" height="4.82"/>
          <rect class="cls-1" x="80.38" y="82" width="8.04" height="4.82"/>
          <rect class="cls-1" x="72.34" y="82" width="8.04" height="4.82"/>
          <rect class="cls-1" x="64.3" y="82" width="8.04" height="4.82"/>
          <rect class="cls-1" x="56.27" y="82" width="8.04" height="4.82"/>
          <rect class="cls-1" x="48.23" y="82" width="8.04" height="4.82"/>
          <rect class="cls-1" x="40.19" y="82" width="8.04" height="4.82"/>
          <rect class="cls-1" x="32.15" y="82" width="8.04" height="4.82"/>
          <rect class="cls-1" x="24.11" y="82" width="8.04" height="4.82"/>
          <rect class="cls-1" x="144.69" y="77.18" width="8.04" height="4.82"/>
          <rect class="cls-1" x="136.65" y="77.18" width="8.04" height="4.82"/>
          <rect class="cls-1" x="128.61" y="77.18" width="8.04" height="4.82"/>
          <rect class="cls-1" x="120.57" y="77.18" width="8.04" height="4.82"/>
          <rect class="cls-1" x="104.5" y="77.18" width="8.04" height="4.82"/>
          <rect class="cls-1" x="96.46" y="77.18" width="8.04" height="4.82"/>
          <rect class="cls-1" x="88.42" y="77.18" width="8.04" height="4.82"/>
          <rect class="cls-1" x="80.38" y="77.18" width="8.04" height="4.82"/>
          <rect class="cls-1" x="72.34" y="77.18" width="8.04" height="4.82"/>
          <rect class="cls-1" x="64.3" y="77.18" width="8.04" height="4.82"/>
          <rect class="cls-1" x="56.27" y="77.18" width="8.04" height="4.82"/>
          <rect class="cls-1" x="48.23" y="77.18" width="8.04" height="4.82"/>
          <rect class="cls-1" x="40.19" y="77.18" width="8.04" height="4.82"/>
          <rect class="cls-1" x="32.15" y="77.18" width="8.04" height="4.82"/>
          <rect class="cls-1" x="144.69" y="72.36" width="8.04" height="4.82"/>
          <rect class="cls-1" x="136.65" y="72.36" width="8.04" height="4.82"/>
          <rect class="cls-1" x="128.61" y="72.36" width="8.04" height="4.82"/>
          <rect class="cls-1" x="120.57" y="72.36" width="8.04" height="4.82"/>
          <rect class="cls-1" x="96.46" y="72.36" width="8.04" height="4.82"/>
          <rect class="cls-1" x="88.42" y="72.36" width="8.04" height="4.82"/>
          <rect class="cls-1" x="64.3" y="72.36" width="8.04" height="4.82"/>
          <rect class="cls-1" x="56.27" y="72.36" width="8.04" height="4.82"/>
          <rect class="cls-1" x="48.23" y="72.36" width="8.04" height="4.82"/>
          <rect class="cls-1" x="40.19" y="72.36" width="8.04" height="4.82"/>
          <rect class="cls-1" x="144.69" y="67.53" width="8.04" height="4.82"/>
          <rect class="cls-1" x="136.65" y="67.53" width="8.04" height="4.82"/>
          <rect class="cls-1" x="128.61" y="67.53" width="8.04" height="4.82"/>
          <rect class="cls-1" x="120.57" y="67.53" width="8.04" height="4.82"/>
          <rect class="cls-1" x="112.53" y="67.53" width="8.04" height="4.82"/>
          <rect class="cls-1" x="96.46" y="67.53" width="8.04" height="4.82"/>
          <rect class="cls-1" x="88.42" y="67.53" width="8.04" height="4.82"/>
          <rect class="cls-1" x="80.38" y="67.53" width="8.04" height="4.82"/>
          <rect class="cls-1" x="72.34" y="67.53" width="8.04" height="4.82"/>
          <rect class="cls-1" x="48.23" y="67.53" width="8.04" height="4.82"/>
          <rect class="cls-1" x="40.19" y="67.53" width="8.04" height="4.82"/>
          <rect class="cls-1" x="24.11" y="67.53" width="8.04" height="4.82"/>
          <rect class="cls-1" x="16.08" y="67.53" width="8.04" height="4.82"/>
          <rect class="cls-1" x="8.04" y="67.53" width="8.04" height="4.82"/>
          <rect class="cls-1" x="144.69" y="62.71" width="8.04" height="4.82"/>
          <rect class="cls-1" x="136.65" y="62.71" width="8.04" height="4.82"/>
          <rect class="cls-1" x="128.61" y="62.71" width="8.04" height="4.82"/>
          <rect class="cls-1" x="120.57" y="62.71" width="8.04" height="4.82"/>
          <rect class="cls-1" x="112.53" y="62.71" width="8.04" height="4.82"/>
          <rect class="cls-1" x="96.46" y="62.71" width="8.04" height="4.82"/>
          <rect class="cls-1" x="88.42" y="62.71" width="8.04" height="4.82"/>
          <rect class="cls-1" x="80.38" y="62.71" width="8.04" height="4.82"/>
          <rect class="cls-1" x="72.34" y="62.71" width="8.04" height="4.82"/>
          <rect class="cls-1" x="64.3" y="62.71" width="8.04" height="4.82"/>
          <rect class="cls-1" x="48.23" y="62.71" width="8.04" height="4.82"/>
          <rect class="cls-1" x="40.19" y="62.71" width="8.04" height="4.82"/>
          <rect class="cls-1" x="32.15" y="62.71" width="8.04" height="4.82"/>
          <rect class="cls-1" x="24.11" y="62.71" width="8.04" height="4.82"/>
          <rect class="cls-1" x="16.08" y="62.71" width="8.04" height="4.82"/>
          <rect class="cls-1" x="8.04" y="62.71" width="8.04" height="4.82"/>
          <rect class="cls-1" x="144.69" y="57.89" width="8.04" height="4.82"/>
          <rect class="cls-1" x="136.65" y="57.89" width="8.04" height="4.82"/>
          <rect class="cls-1" x="128.61" y="57.89" width="8.04" height="4.82"/>
          <rect class="cls-1" x="120.57" y="57.89" width="8.04" height="4.82"/>
          <rect class="cls-1" x="112.53" y="57.89" width="8.04" height="4.82"/>
          <rect class="cls-1" x="104.5" y="57.89" width="8.04" height="4.82"/>
          <rect class="cls-1" x="88.42" y="57.89" width="8.04" height="4.82"/>
          <rect class="cls-1" x="80.38" y="57.89" width="8.04" height="4.82"/>
          <rect class="cls-1" x="72.34" y="57.89" width="8.04" height="4.82"/>
          <rect class="cls-1" x="64.3" y="57.89" width="8.04" height="4.82"/>
          <rect class="cls-1" x="56.27" y="57.89" width="8.04" height="4.82"/>
          <rect class="cls-1" x="48.23" y="57.89" width="8.04" height="4.82"/>
          <rect class="cls-1" x="40.19" y="57.89" width="8.04" height="4.82"/>
          <rect class="cls-1" x="32.15" y="57.89" width="8.04" height="4.82"/>
          <rect class="cls-1" x="16.08" y="57.89" width="8.04" height="4.82"/>
          <rect class="cls-1" x="8.04" y="57.89" width="8.04" height="4.82"/>
          <rect class="cls-1" x="136.65" y="53.06" width="8.04" height="4.82"/>
          <rect class="cls-1" x="128.61" y="53.06" width="8.04" height="4.82"/>
          <rect class="cls-1" x="120.57" y="53.06" width="8.04" height="4.82"/>
          <rect class="cls-1" x="112.53" y="53.06" width="8.04" height="4.82"/>
          <rect class="cls-1" x="104.5" y="53.06" width="8.04" height="4.82"/>
          <rect class="cls-1" x="96.46" y="53.06" width="8.04" height="4.82"/>
          <rect class="cls-1" x="88.42" y="53.06" width="8.04" height="4.82"/>
          <rect class="cls-1" x="80.38" y="53.06" width="8.04" height="4.82"/>
          <rect class="cls-1" x="72.34" y="53.06" width="8.04" height="4.82"/>
          <rect class="cls-1" x="64.3" y="53.06" width="8.04" height="4.82"/>
          <rect class="cls-1" x="56.27" y="53.06" width="8.04" height="4.82"/>
          <rect class="cls-1" x="48.23" y="53.06" width="8.04" height="4.82"/>
          <rect class="cls-1" x="40.19" y="53.06" width="8.04" height="4.82"/>
          <rect class="cls-1" x="24.11" y="53.06" width="8.04" height="4.82"/>
          <rect class="cls-1" x="8.04" y="53.06" width="8.04" height="4.82"/>
          <rect class="cls-1" x="136.65" y="48.24" width="8.04" height="4.82"/>
          <rect class="cls-1" x="128.61" y="48.24" width="8.04" height="4.82"/>
          <rect class="cls-1" x="120.57" y="48.24" width="8.04" height="4.82"/>
          <rect class="cls-1" x="112.53" y="48.24" width="8.04" height="4.82"/>
          <rect class="cls-1" x="104.5" y="48.24" width="8.04" height="4.82"/>
          <rect class="cls-1" x="96.46" y="48.24" width="8.04" height="4.82"/>
          <rect class="cls-1" x="88.42" y="48.24" width="8.04" height="4.82"/>
          <rect class="cls-1" x="80.38" y="48.24" width="8.04" height="4.82"/>
          <rect class="cls-1" x="72.34" y="48.24" width="8.04" height="4.82"/>
          <rect class="cls-1" x="64.3" y="48.24" width="8.04" height="4.82"/>
          <rect class="cls-1" x="56.27" y="48.24" width="8.04" height="4.82"/>
          <rect class="cls-1" x="32.15" y="48.24" width="8.04" height="4.82"/>
          <rect class="cls-1" x="16.08" y="48.24" width="8.04" height="4.82"/>
          <rect class="cls-1" x="128.61" y="43.41" width="8.04" height="4.82"/>
          <rect class="cls-1" x="120.57" y="43.41" width="8.04" height="4.82"/>
          <rect class="cls-1" x="112.53" y="43.41" width="8.04" height="4.82"/>
          <rect class="cls-1" x="104.5" y="43.41" width="8.04" height="4.82"/>
          <rect class="cls-1" x="96.46" y="43.41" width="8.04" height="4.82"/>
          <rect class="cls-1" x="88.42" y="43.41" width="8.04" height="4.82"/>
          <rect class="cls-1" x="80.38" y="43.41" width="8.04" height="4.82"/>
          <rect class="cls-1" x="72.34" y="43.41" width="8.04" height="4.82"/>
          <rect class="cls-1" x="40.19" y="43.41" width="8.04" height="4.82"/>
          <rect class="cls-1" x="24.11" y="43.41" width="8.04" height="4.82"/>
          <rect class="cls-1" x="16.08" y="43.41" width="8.04" height="4.82"/>
          <rect class="cls-1" x="120.57" y="38.59" width="8.04" height="4.82"/>
          <rect class="cls-1" x="112.53" y="38.59" width="8.04" height="4.82"/>
          <rect class="cls-1" x="104.5" y="38.59" width="8.04" height="4.82"/>
          <rect class="cls-1" x="96.46" y="38.59" width="8.04" height="4.82"/>
          <rect class="cls-1" x="88.42" y="38.59" width="8.04" height="4.82"/>
          <rect class="cls-1" x="80.38" y="38.59" width="8.04" height="4.82"/>
          <rect class="cls-1" x="24.11" y="38.59" width="8.04" height="4.82"/>
          <rect class="cls-1" x="16.08" y="38.59" width="8.04" height="4.82"/>
          <rect class="cls-1" x="112.53" y="33.77" width="8.04" height="4.82"/>
          <rect class="cls-1" x="104.5" y="33.77" width="8.04" height="4.82"/>
          <rect class="cls-1" x="96.46" y="33.77" width="8.04" height="4.82"/>
          <rect class="cls-1" x="88.42" y="33.77" width="8.04" height="4.82"/>
          <rect class="cls-1" x="80.38" y="33.77" width="8.04" height="4.82"/>
          <rect class="cls-1" x="72.34" y="33.77" width="8.04" height="4.82"/>
          <rect class="cls-1" x="32.15" y="33.77" width="8.04" height="4.82"/>
          <rect class="cls-1" x="96.46" y="28.94" width="8.04" height="4.82"/>
          <rect class="cls-1" x="88.42" y="28.94" width="8.04" height="4.82"/>
          <rect class="cls-1" x="80.38" y="28.94" width="8.04" height="4.82"/>
          <rect class="cls-1" x="72.34" y="28.94" width="8.04" height="4.82"/>
          <rect class="cls-1" x="64.3" y="28.94" width="8.04" height="4.82"/>
          <rect class="cls-1" x="56.27" y="28.94" width="8.04" height="4.82"/>
          <rect class="cls-1" x="48.23" y="28.94" width="8.04" height="4.82"/>
          <rect class="cls-1" x="88.42" y="24.12" width="8.04" height="4.82"/>
          <rect class="cls-1" x="80.38" y="24.12" width="8.04" height="4.82"/>
          <rect class="cls-1" x="72.34" y="24.12" width="8.04" height="4.82"/>
          <rect class="cls-1" x="64.3" y="24.12" width="8.04" height="4.82"/>
          <rect class="cls-1" x="56.27" y="24.12" width="8.04" height="4.82"/>
          <rect class="cls-1" x="48.23" y="24.12" width="8.04" height="4.82"/>
          <rect class="cls-1" x="96.46" y="19.3" width="8.04" height="4.82"/>
          <rect class="cls-1" x="88.42" y="19.3" width="8.04" height="4.82"/>
          <rect class="cls-1" x="80.38" y="19.3" width="8.04" height="4.82"/>
          <rect class="cls-1" x="72.34" y="19.3" width="8.04" height="4.82"/>
          <rect class="cls-1" x="64.3" y="19.3" width="8.04" height="4.82"/>
          <rect class="cls-1" x="56.27" y="19.3" width="8.04" height="4.82"/>
          <rect class="cls-1" x="48.23" y="19.3" width="8.04" height="4.82"/>
          <rect class="cls-1" x="96.46" y="14.47" width="8.04" height="4.82"/>
          <rect class="cls-1" x="88.42" y="14.47" width="8.04" height="4.82"/>
          <rect class="cls-1" x="80.38" y="14.47" width="8.04" height="4.82"/>
          <rect class="cls-1" x="72.34" y="14.47" width="8.04" height="4.82"/>
          <rect class="cls-1" x="64.3" y="14.47" width="8.04" height="4.82"/>
          <rect class="cls-1" x="56.27" y="14.47" width="8.04" height="4.82"/>
          <rect class="cls-1" x="48.23" y="14.47" width="8.04" height="4.82"/>
          <rect class="cls-1" x="96.46" y="9.65" width="8.04" height="4.82"/>
          <rect class="cls-1" x="88.42" y="9.65" width="8.04" height="4.82"/>
          <rect class="cls-1" x="80.38" y="9.65" width="8.04" height="4.82"/>
          <rect class="cls-1" x="72.34" y="9.65" width="8.04" height="4.82"/>
          <rect class="cls-1" x="64.3" y="9.65" width="8.04" height="4.82"/>
          <rect class="cls-1" x="56.27" y="9.65" width="8.04" height="4.82"/>
          <rect class="cls-1" x="48.23" y="9.65" width="8.04" height="4.82"/>
          <rect class="cls-1" x="40.19" y="9.65" width="8.04" height="4.82"/>
          <rect class="cls-1" x="88.42" y="4.82" width="8.04" height="4.82"/>
          <rect class="cls-1" x="80.38" y="4.82" width="8.04" height="4.82"/>
          <rect class="cls-1" x="72.34" y="4.82" width="8.04" height="4.82"/>
          <rect class="cls-1" x="64.3" y="4.82" width="8.04" height="4.82"/>
          <rect class="cls-1" x="56.27" y="4.82" width="8.04" height="4.82"/>
        </g>
        <g>
          <rect class="cls-3" x="104.5" y="241.19" width="8.04" height="4.82"/>
          <rect class="cls-3" x="96.46" y="241.19" width="8.04" height="4.82"/>
          <rect class="cls-3" x="88.42" y="241.19" width="8.04" height="4.82"/>
          <rect class="cls-3" x="80.38" y="241.19" width="8.04" height="4.82"/>
          <rect class="cls-3" x="72.34" y="241.19" width="8.04" height="4.82"/>
          <rect class="cls-3" x="64.3" y="241.19" width="8.04" height="4.82"/>
          <rect class="cls-3" x="56.27" y="241.19" width="8.04" height="4.82"/>
          <rect class="cls-3" x="104.5" y="236.37" width="8.04" height="4.82"/>
          <rect class="cls-3" x="48.23" y="236.37" width="8.04" height="4.82"/>
          <rect class="cls-3" x="112.53" y="231.54" width="8.04" height="4.82"/>
          <rect class="cls-3" x="40.19" y="231.54" width="8.04" height="4.82"/>
          <rect class="cls-3" x="112.53" y="226.72" width="8.04" height="4.82"/>
          <rect class="cls-3" x="80.38" y="226.72" width="8.04" height="4.82"/>
          <rect class="cls-3" x="48.23" y="226.72" width="8.04" height="4.82"/>
          <rect class="cls-3" x="112.53" y="221.9" width="8.04" height="4.82"/>
          <rect class="cls-3" x="80.38" y="221.9" width="8.04" height="4.82"/>
          <rect class="cls-3" x="56.27" y="221.9" width="8.04" height="4.82"/>
          <rect class="cls-3" x="112.53" y="217.07" width="8.04" height="4.82"/>
          <rect class="cls-3" x="88.42" y="217.07" width="8.04" height="4.82"/>
          <rect class="cls-3" x="56.27" y="217.07" width="8.04" height="4.82"/>
          <rect class="cls-3" x="112.53" y="212.25" width="8.04" height="4.82"/>
          <rect class="cls-3" x="88.42" y="212.25" width="8.04" height="4.82"/>
          <rect class="cls-3" x="56.27" y="212.25" width="8.04" height="4.82"/>
          <rect class="cls-3" x="120.57" y="207.42" width="8.04" height="4.82"/>
          <rect class="cls-3" x="88.42" y="207.42" width="8.04" height="4.82"/>
          <rect class="cls-3" x="56.27" y="207.42" width="8.04" height="4.82"/>
          <rect class="cls-3" x="120.57" y="202.6" width="8.04" height="4.82"/>
          <rect class="cls-3" x="80.38" y="202.6" width="8.04" height="4.82"/>
          <rect class="cls-3" x="56.27" y="202.6" width="8.04" height="4.82"/>
          <rect class="cls-3" x="120.57" y="197.78" width="8.04" height="4.82"/>
          <rect class="cls-3" x="80.38" y="197.78" width="8.04" height="4.82"/>
          <rect class="cls-3" x="56.27" y="197.78" width="8.04" height="4.82"/>
          <rect class="cls-3" x="120.57" y="192.95" width="8.04" height="4.82"/>
          <rect class="cls-3" x="80.38" y="192.95" width="8.04" height="4.82"/>
          <rect class="cls-3" x="56.27" y="192.95" width="8.04" height="4.82"/>
          <rect class="cls-3" x="120.57" y="188.13" width="8.04" height="4.82"/>
          <rect class="cls-3" x="80.38" y="188.13" width="8.04" height="4.82"/>
          <rect class="cls-3" x="56.27" y="188.13" width="8.04" height="4.82"/>
          <rect class="cls-3" x="120.57" y="183.3" width="8.04" height="4.82"/>
          <rect class="cls-3" x="80.38" y="183.3" width="8.04" height="4.82"/>
          <rect class="cls-3" x="48.23" y="183.3" width="8.04" height="4.82"/>
          <rect class="cls-3" x="112.53" y="178.48" width="8.04" height="4.82"/>
          <rect class="cls-3" x="80.38" y="178.48" width="8.04" height="4.82"/>
          <rect class="cls-3" x="48.23" y="178.48" width="8.04" height="4.82"/>
          <rect class="cls-3" x="112.53" y="173.66" width="8.04" height="4.82"/>
          <rect class="cls-3" x="80.38" y="173.66" width="8.04" height="4.82"/>
          <rect class="cls-3" x="48.23" y="173.66" width="8.04" height="4.82"/>
          <rect class="cls-3" x="112.53" y="168.83" width="8.04" height="4.82"/>
          <rect class="cls-3" x="72.34" y="168.83" width="8.04" height="4.82"/>
          <rect class="cls-3" x="48.23" y="168.83" width="8.04" height="4.82"/>
          <rect class="cls-3" x="112.53" y="164.01" width="8.04" height="4.82"/>
          <rect class="cls-3" x="72.34" y="164.01" width="8.04" height="4.82"/>
          <rect class="cls-3" x="40.19" y="164.01" width="8.04" height="4.82"/>
          <rect class="cls-3" x="112.53" y="159.19" width="8.04" height="4.82"/>
          <rect class="cls-3" x="104.5" y="159.19" width="8.04" height="4.82"/>
          <rect class="cls-3" x="72.34" y="159.19" width="8.04" height="4.82"/>
          <rect class="cls-3" x="40.19" y="159.19" width="8.04" height="4.82"/>
          <rect class="cls-3" x="104.5" y="154.36" width="8.04" height="4.82"/>
          <rect class="cls-3" x="64.3" y="154.36" width="8.04" height="4.82"/>
          <rect class="cls-3" x="40.19" y="154.36" width="8.04" height="4.82"/>
          <rect class="cls-3" x="32.15" y="154.36" width="8.04" height="4.82"/>
          <rect class="cls-3" x="104.5" y="149.54" width="8.04" height="4.82"/>
          <rect class="cls-3" x="64.3" y="149.54" width="8.04" height="4.82"/>
          <rect class="cls-3" x="32.15" y="149.54" width="8.04" height="4.82"/>
          <rect class="cls-3" x="104.5" y="144.71" width="8.04" height="4.82"/>
          <rect class="cls-3" x="56.27" y="144.71" width="8.04" height="4.82"/>
          <rect class="cls-3" x="32.15" y="144.71" width="8.04" height="4.82"/>
          <rect class="cls-3" x="104.5" y="139.89" width="8.04" height="4.82"/>
          <rect class="cls-3" x="56.27" y="139.89" width="8.04" height="4.82"/>
          <rect class="cls-3" x="32.15" y="139.89" width="8.04" height="4.82"/>
          <rect class="cls-3" x="112.53" y="135.07" width="8.04" height="4.82"/>
          <rect class="cls-3" x="104.5" y="135.07" width="8.04" height="4.82"/>
          <rect class="cls-3" x="32.15" y="135.07" width="8.04" height="4.82"/>
          <rect class="cls-3" x="112.53" y="130.24" width="8.04" height="4.82"/>
          <rect class="cls-3" x="112.53" y="125.42" width="8.04" height="4.82"/>
          <rect class="cls-3" x="88.42" y="125.42" width="8.04" height="4.82"/>
          <rect class="cls-3" x="80.38" y="125.42" width="8.04" height="4.82"/>
          <rect class="cls-3" x="72.34" y="125.42" width="8.04" height="4.82"/>
          <rect class="cls-3" x="64.3" y="125.42" width="8.04" height="4.82"/>
          <rect class="cls-3" x="56.27" y="125.42" width="8.04" height="4.82"/>
          <rect class="cls-3" x="112.53" y="120.6" width="8.04" height="4.82"/>
          <rect class="cls-3" x="104.5" y="120.6" width="8.04" height="4.82"/>
          <rect class="cls-3" x="96.46" y="120.6" width="8.04" height="4.82"/>
          <rect class="cls-3" x="56.27" y="120.6" width="8.04" height="4.82"/>
          <rect class="cls-3" x="32.15" y="120.6" width="8.04" height="4.82"/>
          <rect class="cls-3" x="112.53" y="115.77" width="8.04" height="4.82"/>
          <rect class="cls-3" x="104.5" y="115.77" width="8.04" height="4.82"/>
          <rect class="cls-3" x="56.27" y="115.77" width="8.04" height="4.82"/>
          <rect class="cls-3" x="32.15" y="115.77" width="8.04" height="4.82"/>
          <rect class="cls-3" x="120.57" y="110.95" width="8.04" height="4.82"/>
          <rect class="cls-3" x="112.53" y="110.95" width="8.04" height="4.82"/>
          <rect class="cls-3" x="72.34" y="110.95" width="8.04" height="4.82"/>
          <rect class="cls-3" x="64.3" y="110.95" width="8.04" height="4.82"/>
          <rect class="cls-3" x="56.27" y="110.95" width="8.04" height="4.82"/>
          <rect class="cls-3" x="32.15" y="110.95" width="8.04" height="4.82"/>
          <rect class="cls-3" x="144.69" y="106.12" width="8.04" height="4.82"/>
          <rect class="cls-3" x="136.65" y="106.12" width="8.04" height="4.82"/>
          <rect class="cls-3" x="128.61" y="106.12" width="8.04" height="4.82"/>
          <rect class="cls-3" x="96.46" y="106.12" width="8.04" height="4.82"/>
          <rect class="cls-3" x="88.42" y="106.12" width="8.04" height="4.82"/>
          <rect class="cls-3" x="80.38" y="106.12" width="8.04" height="4.82"/>
          <rect class="cls-3" x="56.27" y="106.12" width="8.04" height="4.82"/>
          <rect class="cls-3" x="48.23" y="106.12" width="8.04" height="4.82"/>
          <rect class="cls-3" x="40.19" y="106.12" width="8.04" height="4.82"/>
          <rect class="cls-3" x="24.11" y="106.12" width="8.04" height="4.82"/>
          <rect class="cls-3" x="16.08" y="106.12" width="8.04" height="4.82"/>
          <rect class="cls-3" x="144.69" y="101.3" width="8.04" height="4.82"/>
          <rect class="cls-3" x="104.5" y="101.3" width="8.04" height="4.82"/>
          <rect class="cls-3" x="32.15" y="101.3" width="8.04" height="4.82"/>
          <rect class="cls-3" x="16.08" y="101.3" width="8.04" height="4.82"/>
          <rect class="cls-3" x="144.69" y="96.48" width="8.04" height="4.82"/>
          <rect class="cls-3" x="112.53" y="96.48" width="8.04" height="4.82"/>
          <rect class="cls-3" x="104.5" y="96.48" width="8.04" height="4.82"/>
          <rect class="cls-3" x="24.11" y="96.48" width="8.04" height="4.82"/>
          <rect class="cls-3" x="8.04" y="96.48" width="8.04" height="4.82"/>
          <rect class="cls-3" x="144.69" y="91.65" width="8.04" height="4.82"/>
          <rect class="cls-3" x="112.53" y="91.65" width="8.04" height="4.82"/>
          <rect class="cls-3" x="8.04" y="91.65" width="8.04" height="4.82"/>
          <rect class="cls-3" x="144.69" y="86.83" width="8.04" height="4.82"/>
          <rect class="cls-3" x="112.53" y="86.83" width="8.04" height="4.82"/>
          <rect class="cls-3" x="8.04" y="86.83" width="8.04" height="4.82"/>
          <rect class="cls-3" x="144.69" y="82" width="8.04" height="4.82"/>
          <rect class="cls-3" x="120.57" y="82" width="8.04" height="4.82"/>
          <rect class="cls-3" x="16.08" y="82" width="8.04" height="4.82"/>
          <rect class="cls-3" x="152.72" y="77.18" width="8.04" height="4.82"/>
          <rect class="cls-3" x="112.53" y="77.18" width="8.04" height="4.82"/>
          <rect class="cls-3" x="24.11" y="77.18" width="8.04" height="4.82"/>
          <rect class="cls-3" x="16.08" y="77.18" width="8.04" height="4.82"/>
          <rect class="cls-3" x="152.72" y="72.36" width="8.04" height="4.82"/>
          <rect class="cls-3" x="112.53" y="72.36" width="8.04" height="4.82"/>
          <rect class="cls-3" x="104.5" y="72.36" width="8.04" height="4.82"/>
          <rect class="cls-3" x="80.38" y="72.36" width="8.04" height="4.82"/>
          <rect class="cls-3" x="72.34" y="72.36" width="8.04" height="4.82"/>
          <rect class="cls-3" x="32.15" y="72.36" width="8.04" height="4.82"/>
          <rect class="cls-3" x="24.11" y="72.36" width="8.04" height="4.82"/>
          <rect class="cls-3" x="16.08" y="72.36" width="8.04" height="4.82"/>
          <rect class="cls-3" x="8.04" y="72.36" width="8.04" height="4.82"/>
          <rect class="cls-3" y="72.36" width="8.04" height="4.82"/>
          <rect class="cls-3" x="152.72" y="67.53" width="8.04" height="4.82"/>
          <rect class="cls-3" x="104.5" y="67.53" width="8.04" height="4.82"/>
          <rect class="cls-3" x="64.3" y="67.53" width="8.04" height="4.82"/>
          <rect class="cls-3" x="56.27" y="67.53" width="8.04" height="4.82"/>
          <rect class="cls-3" x="32.15" y="67.53" width="8.04" height="4.82"/>
          <rect class="cls-3" y="67.53" width="8.04" height="4.82"/>
          <rect class="cls-3" x="152.72" y="62.71" width="8.04" height="4.82"/>
          <rect class="cls-3" x="104.5" y="62.71" width="8.04" height="4.82"/>
          <rect class="cls-3" x="56.27" y="62.71" width="8.04" height="4.82"/>
          <rect class="cls-3" y="62.71" width="8.04" height="4.82"/>
          <rect class="cls-3" x="152.72" y="57.89" width="8.04" height="4.82"/>
          <rect class="cls-3" x="96.46" y="57.89" width="8.04" height="4.82"/>
          <rect class="cls-3" x="24.11" y="57.89" width="8.04" height="4.82"/>
          <rect class="cls-3" y="57.89" width="8.04" height="4.82"/>
          <rect class="cls-3" x="144.69" y="53.06" width="8.04" height="4.82"/>
          <rect class="cls-3" x="32.15" y="53.06" width="8.04" height="4.82"/>
          <rect class="cls-3" x="16.08" y="53.06" width="8.04" height="4.82"/>
          <rect class="cls-3" y="53.06" width="8.04" height="4.82"/>
          <rect class="cls-3" x="144.69" y="48.24" width="8.04" height="4.82"/>
          <rect class="cls-3" x="48.23" y="48.24" width="8.04" height="4.82"/>
          <rect class="cls-3" x="40.19" y="48.24" width="8.04" height="4.82"/>
          <rect class="cls-3" x="24.11" y="48.24" width="8.04" height="4.82"/>
          <rect class="cls-3" x="8.04" y="48.24" width="8.04" height="4.82"/>
          <rect class="cls-3" x="136.65" y="43.41" width="8.04" height="4.82"/>
          <rect class="cls-3" x="64.3" y="43.41" width="8.04" height="4.82"/>
          <rect class="cls-3" x="56.27" y="43.41" width="8.04" height="4.82"/>
          <rect class="cls-3" x="32.15" y="43.41" width="8.04" height="4.82"/>
          <rect class="cls-3" x="8.04" y="43.41" width="8.04" height="4.82"/>
          <rect class="cls-3" x="128.61" y="38.59" width="8.04" height="4.82"/>
          <rect class="cls-3" x="72.34" y="38.59" width="8.04" height="4.82"/>
          <rect class="cls-3" x="64.3" y="38.59" width="8.04" height="4.82"/>
          <rect class="cls-3" x="40.19" y="38.59" width="8.04" height="4.82"/>
          <rect class="cls-3" x="32.15" y="38.59" width="8.04" height="4.82"/>
          <rect class="cls-3" x="8.04" y="38.59" width="8.04" height="4.82"/>
          <rect class="cls-3" x="120.57" y="33.77" width="8.04" height="4.82"/>
          <rect class="cls-3" x="64.3" y="33.77" width="8.04" height="4.82"/>
          <rect class="cls-3" x="56.27" y="33.77" width="8.04" height="4.82"/>
          <rect class="cls-3" x="48.23" y="33.77" width="8.04" height="4.82"/>
          <rect class="cls-3" x="40.19" y="33.77" width="8.04" height="4.82"/>
          <rect class="cls-3" x="24.11" y="33.77" width="8.04" height="4.82"/>
          <rect class="cls-3" x="16.08" y="33.77" width="8.04" height="4.82"/>
          <rect class="cls-3" x="112.53" y="28.94" width="8.04" height="4.82"/>
          <rect class="cls-3" x="104.5" y="28.94" width="8.04" height="4.82"/>
          <rect class="cls-3" x="40.19" y="28.94" width="8.04" height="4.82"/>
          <rect class="cls-3" x="32.15" y="28.94" width="8.04" height="4.82"/>
          <rect class="cls-3" x="24.11" y="28.94" width="8.04" height="4.82"/>
          <rect class="cls-3" x="16.08" y="28.94" width="8.04" height="4.82"/>
          <rect class="cls-3" x="96.46" y="24.12" width="8.04" height="4.82"/>
          <rect class="cls-3" x="40.19" y="24.12" width="8.04" height="4.82"/>
          <rect class="cls-3" x="40.19" y="19.3" width="8.04" height="4.82"/>
          <rect class="cls-3" x="40.19" y="14.47" width="8.04" height="4.82"/>
          <rect class="cls-3" x="32.15" y="14.47" width="8.04" height="4.82"/>
          <rect class="cls-3" x="104.5" y="9.65" width="8.04" height="4.82"/>
          <rect class="cls-3" x="32.15" y="9.65" width="8.04" height="4.82"/>
          <rect class="cls-3" x="96.46" y="4.82" width="8.04" height="4.82"/>
          <rect class="cls-3" x="48.23" y="4.82" width="8.04" height="4.82"/>
          <rect class="cls-3" x="40.19" y="4.82" width="8.04" height="4.82"/>
          <rect class="cls-3" x="96.46" width="8.04" height="4.82"/>
          <rect class="cls-3" x="88.42" width="8.04" height="4.82"/>
          <rect class="cls-3" x="80.38" width="8.04" height="4.82"/>
          <rect class="cls-3" x="72.34" width="8.04" height="4.82"/>
          <rect class="cls-3" x="64.3" width="8.04" height="4.82"/>
          <rect class="cls-3" x="56.27" width="8.04" height="4.82"/>
        </g>
      </g>
      <text class="cls-2" transform="translate(33.61 214.43)"><tspan x="0" y="0">(1)</tspan></text>
    </g>
  </g>
</svg>