<?xml version="1.0" encoding="UTF-8"?>
<svg id="Layer_2" data-name="Layer 2" xmlns="http://www.w3.org/2000/svg" xmlns:xlink="http://www.w3.org/1999/xlink" viewBox="0 0 138.44 133.46">
  <defs>
    <style>
      .cls-1, .cls-2 {
        fill: none;
      }

      .cls-3 {
        fill: #fff;
        font-family: PingFangSC-Light-GBpc-EUC-H, 'PingFang SC';
        font-size: 12px;
      }

      .cls-4 {
        fill: url(#_波纹_4);
      }

      .cls-2 {
        stroke: #fff;
        stroke-width: .75px;
      }
    </style>
    <pattern id="_波纹_4" data-name="波纹 4" x="0" y="0" width="72" height="72" patternTransform="translate(-5417.48 -2369.04) rotate(18.91) scale(.57 .65) skewX(.83)" patternUnits="userSpaceOnUse" viewBox="0 0 72 72">
      <g>
        <rect class="cls-1" width="72" height="72"/>
        <path class="cls-2" d="M80.4,64.14s.96,4.06-2.92,4c-3.88-.06-3.94,1.87-3.13,4.29s-.18,4.62-3.34,4.57"/>
        <g>
          <path class="cls-2" d="M13.35,15.53s3.79-1.74,4.5,2.08c.71,3.82,2.61,3.5,4.82,2.23,2.21-1.28,4.56-.74,5.14,2.37"/>
          <path class="cls-2" d="M66.04,28.74s-2.6,3.26-4.95,.18c-2.36-3.08-3.91-1.94-5.3,.19-1.4,2.14-3.74,2.72-5.66,.2"/>
          <path class="cls-2" d="M39.03,29.05s-3.82-1.67-1.45-4.74c2.38-3.07,.87-4.28-1.55-5.08-2.42-.8-3.59-2.91-1.65-5.41"/>
          <path class="cls-2" d="M41.14,24.82s4.08-.88,2.36-4.36c-1.72-3.48-.01-4.36,2.52-4.67,2.54-.3,4.1-2.14,2.69-4.98"/>
          <path class="cls-2" d="M55.12,14.87s4.08-.88,2.36-4.36c-1.72-3.48-.01-4.36,2.52-4.67,2.54-.3,4.1-2.14,2.69-4.98"/>
          <path class="cls-2" d="M27.39,34.19s3.68-1.96,1.07-4.84c-2.61-2.87-1.21-4.19,1.15-5.18,2.36-.99,3.35-3.18,1.23-5.53"/>
          <path class="cls-2" d="M10.39,22.94s1.29,3.96-2.58,4.23c-3.87,.27-3.77,2.19-2.76,4.53,1.01,2.35,.21,4.62-2.94,4.84"/>
          <path class="cls-2" d="M7.56,41.16s-2.02-3.65,1.72-4.64c3.75-1,3.29-2.87,1.85-4.97-1.44-2.11-1.09-4.5,1.97-5.31"/>
          <path class="cls-2" d="M20.44,17s1.35-3.95,4.6-1.83c3.25,2.12,4.33,.52,4.93-1.96,.6-2.48,2.61-3.82,5.26-2.09"/>
          <path class="cls-2" d="M12.33,44.48s-1.77-3.78,2.04-4.51c3.81-.73,3.48-2.63,2.19-4.83-1.29-2.2-.77-4.56,2.34-5.16"/>
          <path class="cls-2" d="M24.03,38.67s-3.43-2.37-.51-4.93c2.92-2.56,1.68-4.03-.55-5.28-2.23-1.25-2.96-3.55-.58-5.63"/>
          <path class="cls-2" d="M11.01,59.64s.3-4.16,3.99-2.94c3.69,1.22,4.32-.6,4.27-3.15-.05-2.55,1.55-4.36,4.56-3.36"/>
          <path class="cls-2" d="M29.5,52.86s-.38,4.15-4.04,2.87c-3.66-1.29-4.33,.52-4.33,3.07,0,2.55-1.63,4.33-4.62,3.28"/>
          <path class="cls-2" d="M19.67,27.31s-4.17,.18-3.38-3.62c.79-3.8-1.09-4.22-3.62-3.88-2.53,.34-4.5-1.04-3.86-4.14"/>
          <path class="cls-2" d="M32.71,27.97s-1.49,3.89,2.37,4.35c3.85,.46,3.66,2.38,2.53,4.66-1.13,2.29-.44,4.6,2.7,4.98"/>
          <path class="cls-2" d="M3.32,45.67s1.92,3.7,4.82,1.13c2.91-2.57,4.21-1.15,5.17,1.21,.96,2.37,3.14,3.39,5.51,1.29"/>
          <path class="cls-2" d="M51.02,83.38s-1.86-3.73,1.93-4.56c3.79-.83,3.41-2.72,2.07-4.89-1.34-2.17-.88-4.54,2.21-5.21"/>
          <path class="cls-2" d="M64.56,9.98s2.47,3.36-1.13,4.83c-3.59,1.46-2.9,3.26-1.2,5.17,1.7,1.91,1.64,4.32-1.29,5.51"/>
          <path class="cls-2" d="M59.95,14.27s-4.09,.84-2.4,4.33c1.68,3.5-.04,4.36-2.58,4.64-2.54,.28-4.12,2.1-2.75,4.95"/>
          <path class="cls-2" d="M17.08,.72s4.17,.2,3.04,3.91c-1.13,3.71,.71,4.31,3.26,4.19,2.55-.11,4.39,1.44,3.47,4.47"/>
          <path class="cls-2" d="M39.44,15.71s-4.05-.99-2.23-4.42c1.82-3.43,.13-4.36-2.39-4.74-2.53-.38-4.04-2.26-2.55-5.05"/>
          <path class="cls-2" d="M18.03,7.9s-3.97-1.27-4.22,2.6c-.25,3.87-2.17,3.78-4.52,2.78-2.35-1-4.62-.19-4.82,2.97"/>
          <path class="cls-2" d="M8.4,64.14s.96,4.06-2.92,4c-3.88-.06-3.94,1.87-3.13,4.29s-.18,4.62-3.34,4.57"/>
          <path class="cls-2" d="M70.32,33.48s-2.27,3.5-4.91,.65c-2.64-2.84-4.08-1.56-5.26,.7-1.19,2.26-3.46,3.07-5.61,.75"/>
          <path class="cls-2" d="M50.38,1.6s.96,4.06-2.92,4c-3.88-.06-3.95,1.87-3.13,4.28,.81,2.42-.18,4.62-3.34,4.57"/>
          <path class="cls-2" d="M43.88,31.8s-1.63-3.83,2.2-4.44c3.83-.6,3.57-2.51,2.35-4.76-1.21-2.25-.61-4.58,2.51-5.07"/>
          <path class="cls-2" d="M74.88,33.61s-4.15-.44-2.81-4.08c1.34-3.64-.46-4.34-3.01-4.38-2.55-.03-4.3-1.7-3.21-4.67"/>
          <path class="cls-2" d="M62.12,38.22s3.47-2.32,4.77,1.34c1.3,3.65,3.13,3.04,5.11,1.43,1.98-1.61,4.39-1.45,5.45,1.53"/>
          <path class="cls-2" d="M71.68,62.73s-.76,4.1-4.29,2.48c-3.53-1.62-4.36,.12-4.59,2.66-.23,2.54-2.02,4.16-4.9,2.84"/>
          <path class="cls-2" d="M28.78,43.96s4.13,.55,2.7,4.16c-1.44,3.61,.34,4.35,2.89,4.45,2.55,.1,4.25,1.81,3.08,4.75"/>
          <path class="cls-2" d="M14.79,43.43s1.2,3.99,4.53,2.01c3.33-1.99,4.35-.36,4.85,2.15,.5,2.5,2.46,3.91,5.18,2.29"/>
          <path class="cls-2" d="M1.79,60.01s1.2,3.99,4.53,2.01c3.33-1.99,4.35-.36,4.85,2.15,.5,2.5,2.46,3.91,5.18,2.29"/>
          <path class="cls-2" d="M37.88,69.01s4.15-.36,2.89-4.03c-1.27-3.67,.54-4.33,3.09-4.31,2.55,.02,4.33-1.61,3.3-4.6"/>
          <path class="cls-2" d="M34.49,60.09s3.21,2.66,.08,4.95c-3.13,2.29-2.02,3.87,.09,5.31,2.11,1.44,2.65,3.79,.1,5.66"/>
          <path class="cls-2" d="M50.83,63.59s-3.37-2.46-.39-4.94c2.98-2.48,1.78-3.99-.42-5.29-2.19-1.31-2.88-3.62-.44-5.64"/>
          <path class="cls-2" d="M55.94,59.43s2.82-3.07,4.95,.17c2.13,3.24,3.76,2.21,5.3,.18,1.54-2.03,3.92-2.45,5.66,.2"/>
          <path class="cls-2" d="M40.17,32.48s4.16,.24,3,3.94c-1.16,3.7,.66,4.31,3.22,4.22,2.55-.09,4.38,1.49,3.43,4.5"/>
          <path class="cls-2" d="M31.67,40.41s-.39,4.15,3.45,3.56c3.83-.59,4.16,1.3,3.69,3.81-.47,2.51,.81,4.55,3.94,4.07"/>
          <path class="cls-2" d="M19.47,42.71s1.06-4.03,4.46-2.16c3.4,1.88,4.36,.21,4.78-2.31,.42-2.52,2.33-3.99,5.1-2.46"/>
          <path class="cls-2" d="M1.21,13.18s4.16-.21,3.03-3.92c-1.14-3.71,.69-4.31,3.24-4.2,2.55,.11,4.39-1.46,3.46-4.48"/>
          <path class="cls-2" d="M35.69,57.65s-3.82-1.68-4.46,2.15c-.64,3.83-2.55,3.54-4.78,2.3s-4.57-.66-5.1,2.46"/>
          <path class="cls-2" d="M83.79,52.82s-1.59-3.86-4.71-1.55c-3.12,2.31-4.29,.78-5.04-1.66-.75-2.44-2.83-3.65-5.38-1.77"/>
          <path class="cls-2" d="M67.72,48.84s-1.02,4.04-4.44,2.21c-3.42-1.84-4.36-.16-4.75,2.36-.39,2.52-2.28,4.02-5.07,2.52"/>
          <path class="cls-2" d="M59.64,60.81s-.12,4.17-3.86,3.11c-3.73-1.06-4.29,.78-4.13,3.33,.16,2.55-1.37,4.42-4.41,3.55"/>
          <path class="cls-2" d="M51.35,47.94s2.02-3.65,4.85-1c2.83,2.65,4.17,1.27,5.2-1.07,1.02-2.34,3.24-3.3,5.54-1.14"/>
          <path class="cls-2" d="M41.29,59.08s-1.96-3.68,1.81-4.61c3.77-.93,3.34-2.81,1.93-4.94-1.4-2.13-1.01-4.51,2.06-5.27"/>
          <path class="cls-2" d="M62.01,83.53s-1.29-3.96,2.58-4.23c3.87-.27,3.77-2.19,2.76-4.53-1.01-2.34-.21-4.62,2.95-4.84"/>
          <path class="cls-2" d="M46.41,34.02s4.09-.81,3.89,3.06c-.2,3.88,1.72,4.01,4.17,3.28,2.45-.72,4.61,.34,4.45,3.5"/>
          <path class="cls-2" d="M66.59,12.82s4.13-.53,3.67,3.32c-.46,3.85,1.45,4.12,3.94,3.56,2.49-.56,4.58,.65,4.2,3.8"/>
          <path class="cls-2" d="M65.07,53.84s2.41,3.4,4.94,.45c2.52-2.95,4.01-1.73,5.28,.48,1.28,2.21,3.58,2.92,5.64,.52"/>
          <path class="cls-2" d="M45.46,62.83s-3.72,1.88-1.18,4.81c2.54,2.93,1.11,4.22-1.26,5.15-2.38,.93-3.42,3.11-1.35,5.5"/>
          <path class="cls-2" d="M28.23,80.31s-3.57-2.16-.81-4.89c2.76-2.73,1.43-4.12-.87-5.24-2.3-1.12-3.18-3.36-.92-5.59"/>
          <path class="cls-2" d="M19.97,65.69s1.2,4-2.68,4.17c-3.88,.17-3.83,2.09-2.87,4.46,.95,2.37,.1,4.62-3.06,4.76"/>
        </g>
        <g>
          <path class="cls-2" d="M2.88,33.61s-4.15-.44-2.81-4.08c1.34-3.64-.46-4.34-3.01-4.38-2.55-.03-4.3-1.7-3.21-4.67"/>
          <path class="cls-2" d="M-9.88,38.22s3.47-2.32,4.77,1.34c1.3,3.65,3.13,3.04,5.11,1.43,1.98-1.61,4.39-1.45,5.45,1.53"/>
          <path class="cls-2" d="M-.32,62.73s-.76,4.1-4.29,2.48c-3.53-1.62-4.36,.12-4.59,2.66-.23,2.54-2.02,4.16-4.9,2.84"/>
          <path class="cls-2" d="M-16.06,59.43s2.82-3.07,4.95,.17c2.13,3.24,3.76,2.21,5.3,.18,1.54-2.03,3.92-2.45,5.66,.2"/>
          <path class="cls-2" d="M11.79,52.82s-1.59-3.86-4.71-1.55c-3.12,2.31-4.29,.78-5.04-1.66-.75-2.44-2.83-3.65-5.38-1.77"/>
          <path class="cls-2" d="M-5.41,12.82s4.13-.53,3.67,3.32c-.46,3.85,1.45,4.12,3.94,3.56,2.49-.56,4.58,.65,4.2,3.8"/>
          <path class="cls-2" d="M-6.93,53.84s2.41,3.4,4.94,.45c2.52-2.95,4.01-1.73,5.28,.48,1.28,2.21,3.58,2.92,5.64,.52"/>
        </g>
        <path class="cls-2" d="M80.4-7.86s.96,4.06-2.92,4c-3.88-.06-3.94,1.87-3.13,4.29s-.18,4.62-3.34,4.57"/>
        <g>
          <path class="cls-2" d="M51.02,11.38s-1.86-3.73,1.93-4.56c3.79-.83,3.41-2.72,2.07-4.89-1.34-2.17-.88-4.54,2.21-5.21"/>
          <path class="cls-2" d="M8.4-7.86s.96,4.06-2.92,4C1.6-3.92,1.54-1.99,2.35,.43s-.18,4.62-3.34,4.57"/>
          <path class="cls-2" d="M34.49-11.91s3.21,2.66,.08,4.95c-3.13,2.29-2.02,3.87,.09,5.31,2.11,1.44,2.65,3.79,.1,5.66"/>
          <path class="cls-2" d="M62.01,11.53s-1.29-3.96,2.58-4.23c3.87-.27,3.77-2.19,2.76-4.53-1.01-2.34-.21-4.62,2.95-4.84"/>
          <path class="cls-2" d="M45.46-9.17s-3.72,1.88-1.18,4.81c2.54,2.93,1.11,4.22-1.26,5.15-2.38,.93-3.42,3.11-1.35,5.5"/>
          <path class="cls-2" d="M28.23,8.31s-3.57-2.16-.81-4.89c2.76-2.73,1.43-4.12-.87-5.24-2.3-1.12-3.18-3.36-.92-5.59"/>
          <path class="cls-2" d="M19.97-6.31s1.2,4-2.68,4.17c-3.88,.17-3.83,2.09-2.87,4.46,.95,2.37,.1,4.62-3.06,4.76"/>
        </g>
      </g>
    </pattern>
  </defs>
  <g id="_图层_1" data-name="图层 1">
    <g>
      <g>
        <g>
          <polygon class="cls-4" points="99.48 131.03 103.03 132.24 104.36 128.2 100.81 126.99 99.48 131.03"/>
          <polygon class="cls-4" points="95.93 129.81 99.48 131.03 100.81 126.99 97.26 125.77 95.93 129.81"/>
          <polygon class="cls-4" points="92.38 128.59 95.93 129.81 97.26 125.77 93.7 124.55 92.38 128.59"/>
          <polygon class="cls-4" points="88.82 127.37 92.38 128.59 93.7 124.55 90.15 123.34 88.82 127.37"/>
          <polygon class="cls-4" points="85.27 126.16 88.82 127.37 90.15 123.34 86.6 122.12 85.27 126.16"/>
          <polygon class="cls-4" points="81.72 124.94 85.27 126.16 86.6 122.12 83.04 120.9 81.72 124.94"/>
          <polygon class="cls-4" points="74.61 122.51 78.16 123.72 79.49 119.68 75.94 118.47 74.61 122.51"/>
          <polygon class="cls-4" points="71.06 121.29 74.61 122.51 75.94 118.47 72.39 117.25 71.06 121.29"/>
          <polygon class="cls-4" points="67.51 120.07 71.06 121.29 72.39 117.25 68.83 116.03 67.51 120.07"/>
          <polygon class="cls-4" points="63.95 118.85 67.51 120.07 68.83 116.03 65.28 114.81 63.95 118.85"/>
          <polygon class="cls-4" points="60.4 117.64 63.95 118.85 65.28 114.81 61.73 113.6 60.4 117.64"/>
          <polygon class="cls-4" points="56.85 116.42 60.4 117.64 61.73 113.6 58.17 112.38 56.85 116.42"/>
          <polygon class="cls-4" points="53.29 115.2 56.85 116.42 58.17 112.38 54.62 111.16 53.29 115.2"/>
          <polygon class="cls-4" points="49.74 113.98 53.29 115.2 54.62 111.16 51.07 109.95 49.74 113.98"/>
          <polygon class="cls-4" points="46.19 112.77 49.74 113.98 51.07 109.95 47.51 108.73 46.19 112.77"/>
          <polygon class="cls-4" points="42.63 111.55 46.19 112.77 47.51 108.73 43.96 107.51 42.63 111.55"/>
          <polygon class="cls-4" points="39.08 110.33 42.63 111.55 43.96 107.51 40.41 106.29 39.08 110.33"/>
          <polygon class="cls-4" points="35.53 109.12 39.08 110.33 40.41 106.29 36.86 105.08 35.53 109.12"/>
          <polygon class="cls-4" points="31.98 107.9 35.53 109.12 36.86 105.08 33.3 103.86 31.98 107.9"/>
          <polygon class="cls-4" points="28.42 106.68 31.98 107.9 33.3 103.86 29.75 102.64 28.42 106.68"/>
          <polygon class="cls-4" points="24.87 105.46 28.42 106.68 29.75 102.64 26.2 101.42 24.87 105.46"/>
          <polygon class="cls-4" points="21.32 104.25 24.87 105.46 26.2 101.42 22.64 100.21 21.32 104.25"/>
          <polygon class="cls-4" points="17.76 103.03 21.32 104.25 22.64 100.21 19.09 98.99 17.76 103.03"/>
          <polygon class="cls-4" points="14.21 101.81 17.76 103.03 19.09 98.99 15.54 97.77 14.21 101.81"/>
          <polygon class="cls-4" points="10.66 100.6 14.21 101.81 15.54 97.77 11.99 96.56 10.66 100.6"/>
          <polygon class="cls-4" points="7.11 99.38 10.66 100.6 11.99 96.56 8.43 95.34 7.11 99.38"/>
          <polygon class="cls-4" points="3.55 98.16 7.11 99.38 8.43 95.34 4.88 94.12 3.55 98.16"/>
          <polygon class="cls-4" points="0 96.94 3.55 98.16 4.88 94.12 1.33 92.9 0 96.94"/>
          <polygon class="cls-4" points="104.36 128.2 107.91 129.42 109.24 125.38 105.69 124.16 104.36 128.2"/>
          <polygon class="cls-4" points="100.81 126.99 104.36 128.2 105.69 124.16 102.14 122.95 100.81 126.99"/>
          <polygon class="cls-4" points="97.26 125.77 100.81 126.99 102.14 122.95 98.58 121.73 97.26 125.77"/>
          <polygon class="cls-4" points="93.7 124.55 97.26 125.77 98.58 121.73 95.03 120.51 93.7 124.55"/>
          <polygon class="cls-4" points="90.15 123.34 93.7 124.55 95.03 120.51 91.48 119.3 90.15 123.34"/>
          <polygon class="cls-4" points="86.6 122.12 90.15 123.34 91.48 119.3 87.92 118.08 86.6 122.12"/>
          <polygon class="cls-4" points="83.04 120.9 86.6 122.12 87.92 118.08 84.37 116.86 83.04 120.9"/>
          <polygon class="cls-4" points="79.49 119.68 83.04 120.9 84.37 116.86 80.82 115.64 79.49 119.68"/>
          <polygon class="cls-4" points="75.94 118.47 79.49 119.68 80.82 115.64 77.27 114.43 75.94 118.47"/>
          <polygon class="cls-4" points="72.39 117.25 75.94 118.47 77.27 114.43 73.71 113.21 72.39 117.25"/>
          <polygon class="cls-4" points="68.83 116.03 72.39 117.25 73.71 113.21 70.16 111.99 68.83 116.03"/>
          <polygon class="cls-4" points="65.28 114.81 68.83 116.03 70.16 111.99 66.61 110.78 65.28 114.81"/>
          <polygon class="cls-4" points="61.73 113.6 65.28 114.81 66.61 110.78 63.05 109.56 61.73 113.6"/>
          <polygon class="cls-4" points="58.17 112.38 61.73 113.6 63.05 109.56 59.5 108.34 58.17 112.38"/>
          <polygon class="cls-4" points="54.62 111.16 58.17 112.38 59.5 108.34 55.95 107.12 54.62 111.16"/>
          <polygon class="cls-4" points="51.07 109.95 54.62 111.16 55.95 107.12 52.39 105.91 51.07 109.95"/>
          <polygon class="cls-4" points="47.51 108.73 51.07 109.95 52.39 105.91 48.84 104.69 47.51 108.73"/>
          <polygon class="cls-4" points="43.96 107.51 47.51 108.73 48.84 104.69 45.29 103.47 43.96 107.51"/>
          <polygon class="cls-4" points="40.41 106.29 43.96 107.51 45.29 103.47 41.74 102.25 40.41 106.29"/>
          <polygon class="cls-4" points="36.86 105.08 40.41 106.29 41.74 102.25 38.18 101.04 36.86 105.08"/>
          <polygon class="cls-4" points="33.3 103.86 36.86 105.08 38.18 101.04 34.63 99.82 33.3 103.86"/>
          <polygon class="cls-4" points="29.75 102.64 33.3 103.86 34.63 99.82 31.08 98.6 29.75 102.64"/>
          <polygon class="cls-4" points="26.2 101.42 29.75 102.64 31.08 98.6 27.52 97.39 26.2 101.42"/>
          <polygon class="cls-4" points="22.64 100.21 26.2 101.42 27.52 97.39 23.97 96.17 22.64 100.21"/>
          <polygon class="cls-4" points="19.09 98.99 22.64 100.21 23.97 96.17 20.42 94.95 19.09 98.99"/>
          <polygon class="cls-4" points="15.54 97.77 19.09 98.99 20.42 94.95 16.87 93.73 15.54 97.77"/>
          <polygon class="cls-4" points="11.99 96.56 15.54 97.77 16.87 93.73 13.31 92.52 11.99 96.56"/>
          <polygon class="cls-4" points="8.43 95.34 11.99 96.56 13.31 92.52 9.76 91.3 8.43 95.34"/>
          <polygon class="cls-4" points="4.88 94.12 8.43 95.34 9.76 91.3 6.21 90.08 4.88 94.12"/>
          <polygon class="cls-4" points="1.33 92.9 4.88 94.12 6.21 90.08 2.65 88.86 1.33 92.9"/>
          <polygon class="cls-4" points="105.69 124.16 109.24 125.38 110.57 121.34 107.02 120.13 105.69 124.16"/>
          <polygon class="cls-4" points="102.14 122.95 105.69 124.16 107.02 120.13 103.46 118.91 102.14 122.95"/>
          <polygon class="cls-4" points="98.58 121.73 102.14 122.95 103.46 118.91 99.91 117.69 98.58 121.73"/>
          <polygon class="cls-4" points="95.03 120.51 98.58 121.73 99.91 117.69 96.36 116.47 95.03 120.51"/>
          <polygon class="cls-4" points="91.48 119.3 95.03 120.51 96.36 116.47 92.8 115.26 91.48 119.3"/>
          <polygon class="cls-4" points="84.37 116.86 87.92 118.08 89.25 114.04 85.7 112.82 84.37 116.86"/>
          <polygon class="cls-4" points="80.82 115.64 84.37 116.86 85.7 112.82 82.15 111.6 80.82 115.64"/>
          <polygon class="cls-4" points="77.27 114.43 80.82 115.64 82.15 111.6 78.59 110.39 77.27 114.43"/>
          <polygon class="cls-4" points="73.71 113.21 77.27 114.43 78.59 110.39 75.04 109.17 73.71 113.21"/>
          <polygon class="cls-4" points="70.16 111.99 73.71 113.21 75.04 109.17 71.49 107.95 70.16 111.99"/>
          <polygon class="cls-4" points="66.61 110.78 70.16 111.99 71.49 107.95 67.93 106.74 66.61 110.78"/>
          <polygon class="cls-4" points="63.05 109.56 66.61 110.78 67.93 106.74 64.38 105.52 63.05 109.56"/>
          <polygon class="cls-4" points="59.5 108.34 63.05 109.56 64.38 105.52 60.83 104.3 59.5 108.34"/>
          <polygon class="cls-4" points="55.95 107.12 59.5 108.34 60.83 104.3 57.27 103.08 55.95 107.12"/>
          <polygon class="cls-4" points="52.39 105.91 55.95 107.12 57.27 103.08 53.72 101.87 52.39 105.91"/>
          <polygon class="cls-4" points="48.84 104.69 52.39 105.91 53.72 101.87 50.17 100.65 48.84 104.69"/>
          <polygon class="cls-4" points="45.29 103.47 48.84 104.69 50.17 100.65 46.62 99.43 45.29 103.47"/>
          <polygon class="cls-4" points="41.74 102.25 45.29 103.47 46.62 99.43 43.06 98.22 41.74 102.25"/>
          <polygon class="cls-4" points="38.18 101.04 41.74 102.25 43.06 98.22 39.51 97 38.18 101.04"/>
          <polygon class="cls-4" points="34.63 99.82 38.18 101.04 39.51 97 35.96 95.78 34.63 99.82"/>
          <polygon class="cls-4" points="31.08 98.6 34.63 99.82 35.96 95.78 32.4 94.56 31.08 98.6"/>
          <polygon class="cls-4" points="27.52 97.39 31.08 98.6 32.4 94.56 28.85 93.35 27.52 97.39"/>
          <polygon class="cls-4" points="20.42 94.95 23.97 96.17 25.3 92.13 21.75 90.91 20.42 94.95"/>
          <polygon class="cls-4" points="16.87 93.73 20.42 94.95 21.75 90.91 18.19 89.69 16.87 93.73"/>
          <polygon class="cls-4" points="99.91 117.69 103.46 118.91 104.79 114.87 101.24 113.65 99.91 117.69"/>
          <polygon class="cls-4" points="96.36 116.47 99.91 117.69 101.24 113.65 97.68 112.43 96.36 116.47"/>
          <polygon class="cls-4" points="92.8 115.26 96.36 116.47 97.68 112.43 94.13 111.22 92.8 115.26"/>
          <polygon class="cls-4" points="71.49 107.95 75.04 109.17 76.37 105.13 72.81 103.91 71.49 107.95"/>
          <polygon class="cls-4" points="67.93 106.74 71.49 107.95 72.81 103.91 69.26 102.7 67.93 106.74"/>
          <polygon class="cls-4" points="64.38 105.52 67.93 106.74 69.26 102.7 65.71 101.48 64.38 105.52"/>
          <polygon class="cls-4" points="60.83 104.3 64.38 105.52 65.71 101.48 62.15 100.26 60.83 104.3"/>
          <polygon class="cls-4" points="57.27 103.08 60.83 104.3 62.15 100.26 58.6 99.04 57.27 103.08"/>
          <polygon class="cls-4" points="53.72 101.87 57.27 103.08 58.6 99.04 55.05 97.83 53.72 101.87"/>
          <polygon class="cls-4" points="50.17 100.65 53.72 101.87 55.05 97.83 51.5 96.61 50.17 100.65"/>
          <polygon class="cls-4" points="46.62 99.43 50.17 100.65 51.5 96.61 47.94 95.39 46.62 99.43"/>
          <polygon class="cls-4" points="43.06 98.22 46.62 99.43 47.94 95.39 44.39 94.18 43.06 98.22"/>
          <polygon class="cls-4" points="39.51 97 43.06 98.22 44.39 94.18 40.84 92.96 39.51 97"/>
          <polygon class="cls-4" points="35.96 95.78 39.51 97 40.84 92.96 37.28 91.74 35.96 95.78"/>
          <polygon class="cls-4" points="32.4 94.56 35.96 95.78 37.28 91.74 33.73 90.52 32.4 94.56"/>
          <polygon class="cls-4" points="28.85 93.35 32.4 94.56 33.73 90.52 30.18 89.31 28.85 93.35"/>
          <polygon class="cls-4" points="21.75 90.91 25.3 92.13 26.63 88.09 23.07 86.87 21.75 90.91"/>
          <polygon class="cls-4" points="18.19 89.69 21.75 90.91 23.07 86.87 19.52 85.66 18.19 89.69"/>
          <polygon class="cls-4" points="14.64 88.48 18.19 89.69 19.52 85.66 15.97 84.44 14.64 88.48"/>
          <polygon class="cls-4" points="11.09 87.26 14.64 88.48 15.97 84.44 12.41 83.22 11.09 87.26"/>
          <polygon class="cls-4" points="7.53 86.04 11.09 87.26 12.41 83.22 8.86 82 7.53 86.04"/>
          <polygon class="cls-4" points="108.34 116.09 111.9 117.3 113.22 113.26 109.67 112.05 108.34 116.09"/>
          <polygon class="cls-4" points="104.79 114.87 108.34 116.09 109.67 112.05 106.12 110.83 104.79 114.87"/>
          <polygon class="cls-4" points="101.24 113.65 104.79 114.87 106.12 110.83 102.56 109.61 101.24 113.65"/>
          <polygon class="cls-4" points="97.68 112.43 101.24 113.65 102.56 109.61 99.01 108.4 97.68 112.43"/>
          <polygon class="cls-4" points="94.13 111.22 97.68 112.43 99.01 108.4 95.46 107.18 94.13 111.22"/>
          <polygon class="cls-4" points="90.58 110 94.13 111.22 95.46 107.18 91.9 105.96 90.58 110"/>
          <polygon class="cls-4" points="87.02 108.78 90.58 110 91.9 105.96 88.35 104.74 87.02 108.78"/>
          <polygon class="cls-4" points="83.47 107.57 87.02 108.78 88.35 104.74 84.8 103.53 83.47 107.57"/>
          <polygon class="cls-4" points="79.92 106.35 83.47 107.57 84.8 103.53 81.25 102.31 79.92 106.35"/>
          <polygon class="cls-4" points="76.37 105.13 79.92 106.35 81.25 102.31 77.69 101.09 76.37 105.13"/>
          <polygon class="cls-4" points="72.81 103.91 76.37 105.13 77.69 101.09 74.14 99.87 72.81 103.91"/>
          <polygon class="cls-4" points="69.26 102.7 72.81 103.91 74.14 99.87 70.59 98.66 69.26 102.7"/>
          <polygon class="cls-4" points="65.71 101.48 69.26 102.7 70.59 98.66 67.03 97.44 65.71 101.48"/>
          <polygon class="cls-4" points="62.15 100.26 65.71 101.48 67.03 97.44 63.48 96.22 62.15 100.26"/>
          <polygon class="cls-4" points="58.6 99.04 62.15 100.26 63.48 96.22 59.93 95.01 58.6 99.04"/>
          <polygon class="cls-4" points="55.05 97.83 58.6 99.04 59.93 95.01 56.38 93.79 55.05 97.83"/>
          <polygon class="cls-4" points="51.5 96.61 55.05 97.83 56.38 93.79 52.82 92.57 51.5 96.61"/>
          <polygon class="cls-4" points="47.94 95.39 51.5 96.61 52.82 92.57 49.27 91.35 47.94 95.39"/>
          <polygon class="cls-4" points="44.39 94.18 47.94 95.39 49.27 91.35 45.72 90.14 44.39 94.18"/>
          <polygon class="cls-4" points="40.84 92.96 44.39 94.18 45.72 90.14 42.16 88.92 40.84 92.96"/>
          <polygon class="cls-4" points="37.28 91.74 40.84 92.96 42.16 88.92 38.61 87.7 37.28 91.74"/>
          <polygon class="cls-4" points="33.73 90.52 37.28 91.74 38.61 87.7 35.06 86.48 33.73 90.52"/>
          <polygon class="cls-4" points="23.07 86.87 26.63 88.09 27.95 84.05 24.4 82.83 23.07 86.87"/>
          <polygon class="cls-4" points="19.52 85.66 23.07 86.87 24.4 82.83 20.85 81.62 19.52 85.66"/>
          <polygon class="cls-4" points="15.97 84.44 19.52 85.66 20.85 81.62 17.29 80.4 15.97 84.44"/>
          <polygon class="cls-4" points="12.41 83.22 15.97 84.44 17.29 80.4 13.74 79.18 12.41 83.22"/>
          <polygon class="cls-4" points="8.86 82 12.41 83.22 13.74 79.18 10.19 77.96 8.86 82"/>
          <polygon class="cls-4" points="109.67 112.05 113.22 113.26 114.55 109.22 111 108.01 109.67 112.05"/>
          <polygon class="cls-4" points="106.12 110.83 109.67 112.05 111 108.01 107.44 106.79 106.12 110.83"/>
          <polygon class="cls-4" points="102.56 109.61 106.12 110.83 107.44 106.79 103.89 105.57 102.56 109.61"/>
          <polygon class="cls-4" points="99.01 108.4 102.56 109.61 103.89 105.57 100.34 104.36 99.01 108.4"/>
          <polygon class="cls-4" points="95.46 107.18 99.01 108.4 100.34 104.36 96.78 103.14 95.46 107.18"/>
          <polygon class="cls-4" points="91.9 105.96 95.46 107.18 96.78 103.14 93.23 101.92 91.9 105.96"/>
          <polygon class="cls-4" points="88.35 104.74 91.9 105.96 93.23 101.92 89.68 100.7 88.35 104.74"/>
          <polygon class="cls-4" points="84.8 103.53 88.35 104.74 89.68 100.7 86.13 99.49 84.8 103.53"/>
          <polygon class="cls-4" points="81.25 102.31 84.8 103.53 86.13 99.49 82.57 98.27 81.25 102.31"/>
          <polygon class="cls-4" points="77.69 101.09 81.25 102.31 82.57 98.27 79.02 97.05 77.69 101.09"/>
          <polygon class="cls-4" points="74.14 99.87 77.69 101.09 79.02 97.05 75.47 95.84 74.14 99.87"/>
          <polygon class="cls-4" points="70.59 98.66 74.14 99.87 75.47 95.84 71.91 94.62 70.59 98.66"/>
          <polygon class="cls-4" points="67.03 97.44 70.59 98.66 71.91 94.62 68.36 93.4 67.03 97.44"/>
          <polygon class="cls-4" points="63.48 96.22 67.03 97.44 68.36 93.4 64.81 92.18 63.48 96.22"/>
          <polygon class="cls-4" points="59.93 95.01 63.48 96.22 64.81 92.18 61.26 90.97 59.93 95.01"/>
          <polygon class="cls-4" points="56.38 93.79 59.93 95.01 61.26 90.97 57.7 89.75 56.38 93.79"/>
          <polygon class="cls-4" points="52.82 92.57 56.38 93.79 57.7 89.75 54.15 88.53 52.82 92.57"/>
          <polygon class="cls-4" points="49.27 91.35 52.82 92.57 54.15 88.53 50.6 87.31 49.27 91.35"/>
          <polygon class="cls-4" points="35.06 86.48 38.61 87.7 39.94 83.66 36.39 82.45 35.06 86.48"/>
          <polygon class="cls-4" points="31.51 85.27 35.06 86.48 36.39 82.45 32.83 81.23 31.51 85.27"/>
          <polygon class="cls-4" points="27.95 84.05 31.51 85.27 32.83 81.23 29.28 80.01 27.95 84.05"/>
          <polygon class="cls-4" points="24.4 82.83 27.95 84.05 29.28 80.01 25.73 78.79 24.4 82.83"/>
          <polygon class="cls-4" points="20.85 81.62 24.4 82.83 25.73 78.79 22.17 77.58 20.85 81.62"/>
          <polygon class="cls-4" points="17.29 80.4 20.85 81.62 22.17 77.58 18.62 76.36 17.29 80.4"/>
          <polygon class="cls-4" points="13.74 79.18 17.29 80.4 18.62 76.36 15.07 75.14 13.74 79.18"/>
          <polygon class="cls-4" points="10.19 77.96 13.74 79.18 15.07 75.14 11.52 73.92 10.19 77.96"/>
          <polygon class="cls-4" points="111 108.01 114.55 109.22 115.88 105.19 112.32 103.97 111 108.01"/>
          <polygon class="cls-4" points="107.44 106.79 111 108.01 112.32 103.97 108.77 102.75 107.44 106.79"/>
          <polygon class="cls-4" points="103.89 105.57 107.44 106.79 108.77 102.75 105.22 101.53 103.89 105.57"/>
          <polygon class="cls-4" points="100.34 104.36 103.89 105.57 105.22 101.53 101.66 100.32 100.34 104.36"/>
          <polygon class="cls-4" points="96.78 103.14 100.34 104.36 101.66 100.32 98.11 99.1 96.78 103.14"/>
          <polygon class="cls-4" points="93.23 101.92 96.78 103.14 98.11 99.1 94.56 97.88 93.23 101.92"/>
          <polygon class="cls-4" points="89.68 100.7 93.23 101.92 94.56 97.88 91.01 96.66 89.68 100.7"/>
          <polygon class="cls-4" points="86.13 99.49 89.68 100.7 91.01 96.66 87.45 95.45 86.13 99.49"/>
          <polygon class="cls-4" points="82.57 98.27 86.13 99.49 87.45 95.45 83.9 94.23 82.57 98.27"/>
          <polygon class="cls-4" points="79.02 97.05 82.57 98.27 83.9 94.23 80.35 93.01 79.02 97.05"/>
          <polygon class="cls-4" points="75.47 95.84 79.02 97.05 80.35 93.01 76.79 91.8 75.47 95.84"/>
          <polygon class="cls-4" points="71.91 94.62 75.47 95.84 76.79 91.8 73.24 90.58 71.91 94.62"/>
          <polygon class="cls-4" points="68.36 93.4 71.91 94.62 73.24 90.58 69.69 89.36 68.36 93.4"/>
          <polygon class="cls-4" points="64.81 92.18 68.36 93.4 69.69 89.36 66.14 88.14 64.81 92.18"/>
          <polygon class="cls-4" points="61.26 90.97 64.81 92.18 66.14 88.14 62.58 86.93 61.26 90.97"/>
          <polygon class="cls-4" points="57.7 89.75 61.26 90.97 62.58 86.93 59.03 85.71 57.7 89.75"/>
          <polygon class="cls-4" points="54.15 88.53 57.7 89.75 59.03 85.71 55.48 84.49 54.15 88.53"/>
          <polygon class="cls-4" points="50.6 87.31 54.15 88.53 55.48 84.49 51.92 83.28 50.6 87.31"/>
          <polygon class="cls-4" points="47.04 86.1 50.6 87.31 51.92 83.28 48.37 82.06 47.04 86.1"/>
          <polygon class="cls-4" points="43.49 84.88 47.04 86.1 48.37 82.06 44.82 80.84 43.49 84.88"/>
          <polygon class="cls-4" points="39.94 83.66 43.49 84.88 44.82 80.84 41.27 79.62 39.94 83.66"/>
          <polygon class="cls-4" points="36.39 82.45 39.94 83.66 41.27 79.62 37.71 78.41 36.39 82.45"/>
          <polygon class="cls-4" points="32.83 81.23 36.39 82.45 37.71 78.41 34.16 77.19 32.83 81.23"/>
          <polygon class="cls-4" points="29.28 80.01 32.83 81.23 34.16 77.19 30.61 75.97 29.28 80.01"/>
          <polygon class="cls-4" points="25.73 78.79 29.28 80.01 30.61 75.97 27.05 74.75 25.73 78.79"/>
          <polygon class="cls-4" points="22.17 77.58 25.73 78.79 27.05 74.75 23.5 73.54 22.17 77.58"/>
          <polygon class="cls-4" points="18.62 76.36 22.17 77.58 23.5 73.54 19.95 72.32 18.62 76.36"/>
          <polygon class="cls-4" points="15.07 75.14 18.62 76.36 19.95 72.32 16.39 71.1 15.07 75.14"/>
          <polygon class="cls-4" points="11.52 73.92 15.07 75.14 16.39 71.1 12.84 69.89 11.52 73.92"/>
          <polygon class="cls-4" points="112.32 103.97 115.88 105.19 117.2 101.15 113.65 99.93 112.32 103.97"/>
          <polygon class="cls-4" points="108.77 102.75 112.32 103.97 113.65 99.93 110.1 98.71 108.77 102.75"/>
          <polygon class="cls-4" points="105.22 101.53 108.77 102.75 110.1 98.71 106.54 97.49 105.22 101.53"/>
          <polygon class="cls-4" points="101.66 100.32 105.22 101.53 106.54 97.49 102.99 96.28 101.66 100.32"/>
          <polygon class="cls-4" points="98.11 99.1 101.66 100.32 102.99 96.28 99.44 95.06 98.11 99.1"/>
          <polygon class="cls-4" points="94.56 97.88 98.11 99.1 99.44 95.06 95.89 93.84 94.56 97.88"/>
          <polygon class="cls-4" points="91.01 96.66 94.56 97.88 95.89 93.84 92.33 92.63 91.01 96.66"/>
          <polygon class="cls-4" points="87.45 95.45 91.01 96.66 92.33 92.63 88.78 91.41 87.45 95.45"/>
          <polygon class="cls-4" points="83.9 94.23 87.45 95.45 88.78 91.41 85.23 90.19 83.9 94.23"/>
          <polygon class="cls-4" points="80.35 93.01 83.9 94.23 85.23 90.19 81.67 88.97 80.35 93.01"/>
          <polygon class="cls-4" points="76.79 91.8 80.35 93.01 81.67 88.97 78.12 87.76 76.79 91.8"/>
          <polygon class="cls-4" points="73.24 90.58 76.79 91.8 78.12 87.76 74.57 86.54 73.24 90.58"/>
          <polygon class="cls-4" points="69.69 89.36 73.24 90.58 74.57 86.54 71.02 85.32 69.69 89.36"/>
          <polygon class="cls-4" points="66.14 88.14 69.69 89.36 71.02 85.32 67.46 84.1 66.14 88.14"/>
          <polygon class="cls-4" points="62.58 86.93 66.14 88.14 67.46 84.1 63.91 82.89 62.58 86.93"/>
          <polygon class="cls-4" points="59.03 85.71 62.58 86.93 63.91 82.89 60.36 81.67 59.03 85.71"/>
          <polygon class="cls-4" points="51.92 83.28 55.48 84.49 56.8 80.45 53.25 79.24 51.92 83.28"/>
          <polygon class="cls-4" points="48.37 82.06 51.92 83.28 53.25 79.24 49.7 78.02 48.37 82.06"/>
          <polygon class="cls-4" points="44.82 80.84 48.37 82.06 49.7 78.02 46.15 76.8 44.82 80.84"/>
          <polygon class="cls-4" points="41.27 79.62 44.82 80.84 46.15 76.8 42.59 75.58 41.27 79.62"/>
          <polygon class="cls-4" points="37.71 78.41 41.27 79.62 42.59 75.58 39.04 74.37 37.71 78.41"/>
          <polygon class="cls-4" points="34.16 77.19 37.71 78.41 39.04 74.37 35.49 73.15 34.16 77.19"/>
          <polygon class="cls-4" points="30.61 75.97 34.16 77.19 35.49 73.15 31.93 71.93 30.61 75.97"/>
          <polygon class="cls-4" points="27.05 74.75 30.61 75.97 31.93 71.93 28.38 70.72 27.05 74.75"/>
          <polygon class="cls-4" points="23.5 73.54 27.05 74.75 28.38 70.72 24.83 69.5 23.5 73.54"/>
          <polygon class="cls-4" points="19.95 72.32 23.5 73.54 24.83 69.5 21.27 68.28 19.95 72.32"/>
          <polygon class="cls-4" points="16.39 71.1 19.95 72.32 21.27 68.28 17.72 67.06 16.39 71.1"/>
          <polygon class="cls-4" points="12.84 69.89 16.39 71.1 17.72 67.06 14.17 65.85 12.84 69.89"/>
          <polygon class="cls-4" points="113.65 99.93 117.2 101.15 118.53 97.11 114.98 95.89 113.65 99.93"/>
          <polygon class="cls-4" points="110.1 98.71 113.65 99.93 114.98 95.89 111.42 94.67 110.1 98.71"/>
          <polygon class="cls-4" points="102.99 96.28 106.54 97.49 107.87 93.46 104.32 92.24 102.99 96.28"/>
          <polygon class="cls-4" points="95.89 93.84 99.44 95.06 100.77 91.02 97.21 89.8 95.89 93.84"/>
          <polygon class="cls-4" points="92.33 92.63 95.89 93.84 97.21 89.8 93.66 88.59 92.33 92.63"/>
          <polygon class="cls-4" points="88.78 91.41 92.33 92.63 93.66 88.59 90.11 87.37 88.78 91.41"/>
          <polygon class="cls-4" points="85.23 90.19 88.78 91.41 90.11 87.37 86.55 86.15 85.23 90.19"/>
          <polygon class="cls-4" points="81.67 88.97 85.23 90.19 86.55 86.15 83 84.93 81.67 88.97"/>
          <polygon class="cls-4" points="78.12 87.76 81.67 88.97 83 84.93 79.45 83.72 78.12 87.76"/>
          <polygon class="cls-4" points="74.57 86.54 78.12 87.76 79.45 83.72 75.9 82.5 74.57 86.54"/>
          <polygon class="cls-4" points="71.02 85.32 74.57 86.54 75.9 82.5 72.34 81.28 71.02 85.32"/>
          <polygon class="cls-4" points="67.46 84.1 71.02 85.32 72.34 81.28 68.79 80.07 67.46 84.1"/>
          <polygon class="cls-4" points="63.91 82.89 67.46 84.1 68.79 80.07 65.24 78.85 63.91 82.89"/>
          <polygon class="cls-4" points="60.36 81.67 63.91 82.89 65.24 78.85 61.68 77.63 60.36 81.67"/>
          <polygon class="cls-4" points="53.25 79.24 56.8 80.45 58.13 76.41 54.58 75.2 53.25 79.24"/>
          <polygon class="cls-4" points="49.7 78.02 53.25 79.24 54.58 75.2 51.03 73.98 49.7 78.02"/>
          <polygon class="cls-4" points="46.15 76.8 49.7 78.02 51.03 73.98 47.47 72.76 46.15 76.8"/>
          <polygon class="cls-4" points="39.04 74.37 42.59 75.58 43.92 71.54 40.37 70.33 39.04 74.37"/>
          <polygon class="cls-4" points="35.49 73.15 39.04 74.37 40.37 70.33 36.81 69.11 35.49 73.15"/>
          <polygon class="cls-4" points="31.93 71.93 35.49 73.15 36.81 69.11 33.26 67.89 31.93 71.93"/>
          <polygon class="cls-4" points="28.38 70.72 31.93 71.93 33.26 67.89 29.71 66.68 28.38 70.72"/>
          <polygon class="cls-4" points="21.27 68.28 24.83 69.5 26.15 65.46 22.6 64.24 21.27 68.28"/>
          <polygon class="cls-4" points="17.72 67.06 21.27 68.28 22.6 64.24 19.05 63.02 17.72 67.06"/>
          <polygon class="cls-4" points="14.17 65.85 17.72 67.06 19.05 63.02 15.5 61.81 14.17 65.85"/>
          <polygon class="cls-4" points="97.21 89.8 100.77 91.02 102.09 86.98 98.54 85.76 97.21 89.8"/>
          <polygon class="cls-4" points="83 84.93 86.55 86.15 87.88 82.11 84.33 80.9 83 84.93"/>
          <polygon class="cls-4" points="79.45 83.72 83 84.93 84.33 80.9 80.78 79.68 79.45 83.72"/>
          <polygon class="cls-4" points="75.9 82.5 79.45 83.72 80.78 79.68 77.22 78.46 75.9 82.5"/>
          <polygon class="cls-4" points="72.34 81.28 75.9 82.5 77.22 78.46 73.67 77.24 72.34 81.28"/>
          <polygon class="cls-4" points="68.79 80.07 72.34 81.28 73.67 77.24 70.12 76.03 68.79 80.07"/>
          <polygon class="cls-4" points="65.24 78.85 68.79 80.07 70.12 76.03 66.56 74.81 65.24 78.85"/>
          <polygon class="cls-4" points="61.68 77.63 65.24 78.85 66.56 74.81 63.01 73.59 61.68 77.63"/>
          <polygon class="cls-4" points="51.03 73.98 54.58 75.2 55.91 71.16 52.35 69.94 51.03 73.98"/>
          <polygon class="cls-4" points="47.47 72.76 51.03 73.98 52.35 69.94 48.8 68.72 47.47 72.76"/>
          <polygon class="cls-4" points="43.92 71.54 47.47 72.76 48.8 68.72 45.25 67.51 43.92 71.54"/>
          <polygon class="cls-4" points="36.81 69.11 40.37 70.33 41.69 66.29 38.14 65.07 36.81 69.11"/>
          <polygon class="cls-4" points="33.26 67.89 36.81 69.11 38.14 65.07 34.59 63.85 33.26 67.89"/>
          <polygon class="cls-4" points="29.71 66.68 33.26 67.89 34.59 63.85 31.03 62.64 29.71 66.68"/>
          <polygon class="cls-4" points="26.15 65.46 29.71 66.68 31.03 62.64 27.48 61.42 26.15 65.46"/>
          <polygon class="cls-4" points="22.6 64.24 26.15 65.46 27.48 61.42 23.93 60.2 22.6 64.24"/>
          <polygon class="cls-4" points="19.05 63.02 22.6 64.24 23.93 60.2 20.38 58.98 19.05 63.02"/>
          <polygon class="cls-4" points="15.5 61.81 19.05 63.02 20.38 58.98 16.82 57.77 15.5 61.81"/>
          <polygon class="cls-4" points="105.65 88.2 109.2 89.42 110.53 85.38 106.97 84.16 105.65 88.2"/>
          <polygon class="cls-4" points="102.09 86.98 105.65 88.2 106.97 84.16 103.42 82.94 102.09 86.98"/>
          <polygon class="cls-4" points="94.99 84.55 98.54 85.76 99.87 81.72 96.31 80.51 94.99 84.55"/>
          <polygon class="cls-4" points="91.43 83.33 94.99 84.55 96.31 80.51 92.76 79.29 91.43 83.33"/>
          <polygon class="cls-4" points="87.88 82.11 91.43 83.33 92.76 79.29 89.21 78.07 87.88 82.11"/>
          <polygon class="cls-4" points="52.35 69.94 55.91 71.16 57.23 67.12 53.68 65.9 52.35 69.94"/>
          <polygon class="cls-4" points="48.8 68.72 52.35 69.94 53.68 65.9 50.13 64.68 48.8 68.72"/>
          <polygon class="cls-4" points="45.25 67.51 48.8 68.72 50.13 64.68 46.57 63.47 45.25 67.51"/>
          <polygon class="cls-4" points="41.69 66.29 45.25 67.51 46.57 63.47 43.02 62.25 41.69 66.29"/>
          <polygon class="cls-4" points="38.14 65.07 41.69 66.29 43.02 62.25 39.47 61.03 38.14 65.07"/>
          <polygon class="cls-4" points="34.59 63.85 38.14 65.07 39.47 61.03 35.91 59.81 34.59 63.85"/>
          <polygon class="cls-4" points="31.03 62.64 34.59 63.85 35.91 59.81 32.36 58.6 31.03 62.64"/>
          <polygon class="cls-4" points="27.48 61.42 31.03 62.64 32.36 58.6 28.81 57.38 27.48 61.42"/>
          <polygon class="cls-4" points="23.93 60.2 27.48 61.42 28.81 57.38 25.26 56.16 23.93 60.2"/>
          <polygon class="cls-4" points="20.38 58.98 23.93 60.2 25.26 56.16 21.7 54.95 20.38 58.98"/>
          <polygon class="cls-4" points="16.82 57.77 20.38 58.98 21.7 54.95 18.15 53.73 16.82 57.77"/>
          <polygon class="cls-4" points="114.08 86.59 117.63 87.81 118.96 83.77 115.41 82.55 114.08 86.59"/>
          <polygon class="cls-4" points="106.97 84.16 110.53 85.38 111.85 81.34 108.3 80.12 106.97 84.16"/>
          <polygon class="cls-4" points="96.31 80.51 99.87 81.72 101.19 77.69 97.64 76.47 96.31 80.51"/>
          <polygon class="cls-4" points="85.66 76.86 89.21 78.07 90.54 74.03 86.98 72.82 85.66 76.86"/>
          <polygon class="cls-4" points="82.1 75.64 85.66 76.86 86.98 72.82 83.43 71.6 82.1 75.64"/>
          <polygon class="cls-4" points="78.55 74.42 82.1 75.64 83.43 71.6 79.88 70.38 78.55 74.42"/>
          <polygon class="cls-4" points="75 73.2 78.55 74.42 79.88 70.38 76.32 69.16 75 73.2"/>
          <polygon class="cls-4" points="71.44 71.99 75 73.2 76.32 69.16 72.77 67.95 71.44 71.99"/>
          <polygon class="cls-4" points="67.89 70.77 71.44 71.99 72.77 67.95 69.22 66.73 67.89 70.77"/>
          <polygon class="cls-4" points="64.34 69.55 67.89 70.77 69.22 66.73 65.67 65.51 64.34 69.55"/>
          <polygon class="cls-4" points="57.23 67.12 60.79 68.34 62.11 64.3 58.56 63.08 57.23 67.12"/>
          <polygon class="cls-4" points="53.68 65.9 57.23 67.12 58.56 63.08 55.01 61.86 53.68 65.9"/>
          <polygon class="cls-4" points="50.13 64.68 53.68 65.9 55.01 61.86 51.45 60.64 50.13 64.68"/>
          <polygon class="cls-4" points="46.57 63.47 50.13 64.68 51.45 60.64 47.9 59.43 46.57 63.47"/>
          <polygon class="cls-4" points="43.02 62.25 46.57 63.47 47.9 59.43 44.35 58.21 43.02 62.25"/>
          <polygon class="cls-4" points="39.47 61.03 43.02 62.25 44.35 58.21 40.79 56.99 39.47 61.03"/>
          <polygon class="cls-4" points="35.91 59.81 39.47 61.03 40.79 56.99 37.24 55.78 35.91 59.81"/>
          <polygon class="cls-4" points="32.36 58.6 35.91 59.81 37.24 55.78 33.69 54.56 32.36 58.6"/>
          <polygon class="cls-4" points="28.81 57.38 32.36 58.6 33.69 54.56 30.14 53.34 28.81 57.38"/>
          <polygon class="cls-4" points="25.26 56.16 28.81 57.38 30.14 53.34 26.58 52.12 25.26 56.16"/>
          <polygon class="cls-4" points="21.7 54.95 25.26 56.16 26.58 52.12 23.03 50.91 21.7 54.95"/>
          <polygon class="cls-4" points="18.15 53.73 21.7 54.95 23.03 50.91 19.48 49.69 18.15 53.73"/>
          <polygon class="cls-4" points="115.41 82.55 118.96 83.77 120.29 79.73 116.73 78.52 115.41 82.55"/>
          <polygon class="cls-4" points="97.64 76.47 101.19 77.69 102.52 73.65 98.97 72.43 97.64 76.47"/>
          <polygon class="cls-4" points="86.98 72.82 90.54 74.03 91.86 69.99 88.31 68.78 86.98 72.82"/>
          <polygon class="cls-4" points="83.43 71.6 86.98 72.82 88.31 68.78 84.76 67.56 83.43 71.6"/>
          <polygon class="cls-4" points="72.77 67.95 76.32 69.16 77.65 65.13 74.1 63.91 72.77 67.95"/>
          <polygon class="cls-4" points="69.22 66.73 72.77 67.95 74.1 63.91 70.54 62.69 69.22 66.73"/>
          <polygon class="cls-4" points="65.67 65.51 69.22 66.73 70.54 62.69 66.99 61.47 65.67 65.51"/>
          <polygon class="cls-4" points="62.11 64.3 65.67 65.51 66.99 61.47 63.44 60.26 62.11 64.3"/>
          <polygon class="cls-4" points="58.56 63.08 62.11 64.3 63.44 60.26 59.89 59.04 58.56 63.08"/>
          <polygon class="cls-4" points="55.01 61.86 58.56 63.08 59.89 59.04 56.33 57.82 55.01 61.86"/>
          <polygon class="cls-4" points="51.45 60.64 55.01 61.86 56.33 57.82 52.78 56.6 51.45 60.64"/>
          <polygon class="cls-4" points="47.9 59.43 51.45 60.64 52.78 56.6 49.23 55.39 47.9 59.43"/>
          <polygon class="cls-4" points="44.35 58.21 47.9 59.43 49.23 55.39 45.67 54.17 44.35 58.21"/>
          <polygon class="cls-4" points="40.79 56.99 44.35 58.21 45.67 54.17 42.12 52.95 40.79 56.99"/>
          <polygon class="cls-4" points="37.24 55.78 40.79 56.99 42.12 52.95 38.57 51.74 37.24 55.78"/>
          <polygon class="cls-4" points="33.69 54.56 37.24 55.78 38.57 51.74 35.02 50.52 33.69 54.56"/>
          <polygon class="cls-4" points="30.14 53.34 33.69 54.56 35.02 50.52 31.46 49.3 30.14 53.34"/>
          <polygon class="cls-4" points="26.58 52.12 30.14 53.34 31.46 49.3 27.91 48.08 26.58 52.12"/>
          <polygon class="cls-4" points="23.03 50.91 26.58 52.12 27.91 48.08 24.36 46.87 23.03 50.91"/>
          <polygon class="cls-4" points="19.48 49.69 23.03 50.91 24.36 46.87 20.8 45.65 19.48 49.69"/>
          <polygon class="cls-4" points="15.92 48.47 19.48 49.69 20.8 45.65 17.25 44.43 15.92 48.47"/>
          <polygon class="cls-4" points="120.29 79.73 123.84 80.95 125.17 76.91 121.61 75.69 120.29 79.73"/>
          <polygon class="cls-4" points="116.73 78.52 120.29 79.73 121.61 75.69 118.06 74.48 116.73 78.52"/>
          <polygon class="cls-4" points="113.18 77.3 116.73 78.52 118.06 74.48 114.51 73.26 113.18 77.3"/>
          <polygon class="cls-4" points="106.07 74.86 109.63 76.08 110.95 72.04 107.4 70.82 106.07 74.86"/>
          <polygon class="cls-4" points="102.52 73.65 106.07 74.86 107.4 70.82 103.85 69.61 102.52 73.65"/>
          <polygon class="cls-4" points="98.97 72.43 102.52 73.65 103.85 69.61 100.3 68.39 98.97 72.43"/>
          <polygon class="cls-4" points="84.76 67.56 88.31 68.78 89.64 64.74 86.08 63.52 84.76 67.56"/>
          <polygon class="cls-4" points="81.2 66.34 84.76 67.56 86.08 63.52 82.53 62.3 81.2 66.34"/>
          <polygon class="cls-4" points="77.65 65.13 81.2 66.34 82.53 62.3 78.98 61.09 77.65 65.13"/>
          <polygon class="cls-4" points="74.1 63.91 77.65 65.13 78.98 61.09 75.42 59.87 74.1 63.91"/>
          <polygon class="cls-4" points="66.99 61.47 70.54 62.69 71.87 58.65 68.32 57.43 66.99 61.47"/>
          <polygon class="cls-4" points="52.78 56.6 56.33 57.82 57.66 53.78 54.11 52.57 52.78 56.6"/>
          <polygon class="cls-4" points="49.23 55.39 52.78 56.6 54.11 52.57 50.55 51.35 49.23 55.39"/>
          <polygon class="cls-4" points="45.67 54.17 49.23 55.39 50.55 51.35 47 50.13 45.67 54.17"/>
          <polygon class="cls-4" points="42.12 52.95 45.67 54.17 47 50.13 43.45 48.91 42.12 52.95"/>
          <polygon class="cls-4" points="38.57 51.74 42.12 52.95 43.45 48.91 39.9 47.7 38.57 51.74"/>
          <polygon class="cls-4" points="35.02 50.52 38.57 51.74 39.9 47.7 36.34 46.48 35.02 50.52"/>
          <polygon class="cls-4" points="31.46 49.3 35.02 50.52 36.34 46.48 32.79 45.26 31.46 49.3"/>
          <polygon class="cls-4" points="27.91 48.08 31.46 49.3 32.79 45.26 29.24 44.04 27.91 48.08"/>
          <polygon class="cls-4" points="24.36 46.87 27.91 48.08 29.24 44.04 25.68 42.83 24.36 46.87"/>
          <polygon class="cls-4" points="20.8 45.65 24.36 46.87 25.68 42.83 22.13 41.61 20.8 45.65"/>
          <polygon class="cls-4" points="17.25 44.43 20.8 45.65 22.13 41.61 18.58 40.39 17.25 44.43"/>
          <polygon class="cls-4" points="121.61 75.69 125.17 76.91 126.49 72.87 122.94 71.65 121.61 75.69"/>
          <polygon class="cls-4" points="103.85 69.61 107.4 70.82 108.73 66.78 105.18 65.57 103.85 69.61"/>
          <polygon class="cls-4" points="86.08 63.52 89.64 64.74 90.96 60.7 87.41 59.48 86.08 63.52"/>
          <polygon class="cls-4" points="64.77 56.22 68.32 57.43 69.65 53.4 66.09 52.18 64.77 56.22"/>
          <polygon class="cls-4" points="61.21 55 64.77 56.22 66.09 52.18 62.54 50.96 61.21 55"/>
          <polygon class="cls-4" points="50.55 51.35 54.11 52.57 55.43 48.53 51.88 47.31 50.55 51.35"/>
          <polygon class="cls-4" points="47 50.13 50.55 51.35 51.88 47.31 48.33 46.09 47 50.13"/>
          <polygon class="cls-4" points="43.45 48.91 47 50.13 48.33 46.09 44.78 44.87 43.45 48.91"/>
          <polygon class="cls-4" points="39.9 47.7 43.45 48.91 44.78 44.87 41.22 43.66 39.9 47.7"/>
          <polygon class="cls-4" points="36.34 46.48 39.9 47.7 41.22 43.66 37.67 42.44 36.34 46.48"/>
          <polygon class="cls-4" points="32.79 45.26 36.34 46.48 37.67 42.44 34.12 41.22 32.79 45.26"/>
          <polygon class="cls-4" points="29.24 44.04 32.79 45.26 34.12 41.22 30.56 40.01 29.24 44.04"/>
          <polygon class="cls-4" points="25.68 42.83 29.24 44.04 30.56 40.01 27.01 38.79 25.68 42.83"/>
          <polygon class="cls-4" points="18.58 40.39 22.13 41.61 23.46 37.57 19.91 36.35 18.58 40.39"/>
          <polygon class="cls-4" points="119.39 70.44 122.94 71.65 124.27 67.61 120.71 66.4 119.39 70.44"/>
          <polygon class="cls-4" points="115.83 69.22 119.39 70.44 120.71 66.4 117.16 65.18 115.83 69.22"/>
          <polygon class="cls-4" points="94.52 61.92 98.07 63.13 99.4 59.09 95.84 57.88 94.52 61.92"/>
          <polygon class="cls-4" points="83.86 58.26 87.41 59.48 88.74 55.44 85.18 54.22 83.86 58.26"/>
          <polygon class="cls-4" points="80.3 57.05 83.86 58.26 85.18 54.22 81.63 53.01 80.3 57.05"/>
          <polygon class="cls-4" points="76.75 55.83 80.3 57.05 81.63 53.01 78.08 51.79 76.75 55.83"/>
          <polygon class="cls-4" points="73.2 54.61 76.75 55.83 78.08 51.79 74.53 50.57 73.2 54.61"/>
          <polygon class="cls-4" points="69.65 53.4 73.2 54.61 74.53 50.57 70.97 49.36 69.65 53.4"/>
          <polygon class="cls-4" points="66.09 52.18 69.65 53.4 70.97 49.36 67.42 48.14 66.09 52.18"/>
          <polygon class="cls-4" points="62.54 50.96 66.09 52.18 67.42 48.14 63.87 46.92 62.54 50.96"/>
          <polygon class="cls-4" points="58.99 49.74 62.54 50.96 63.87 46.92 60.31 45.7 58.99 49.74"/>
          <polygon class="cls-4" points="55.43 48.53 58.99 49.74 60.31 45.7 56.76 44.49 55.43 48.53"/>
          <polygon class="cls-4" points="51.88 47.31 55.43 48.53 56.76 44.49 53.21 43.27 51.88 47.31"/>
          <polygon class="cls-4" points="48.33 46.09 51.88 47.31 53.21 43.27 49.66 42.05 48.33 46.09"/>
          <polygon class="cls-4" points="44.78 44.87 48.33 46.09 49.66 42.05 46.1 40.84 44.78 44.87"/>
          <polygon class="cls-4" points="41.22 43.66 44.78 44.87 46.1 40.84 42.55 39.62 41.22 43.66"/>
          <polygon class="cls-4" points="37.67 42.44 41.22 43.66 42.55 39.62 39 38.4 37.67 42.44"/>
          <polygon class="cls-4" points="34.12 41.22 37.67 42.44 39 38.4 35.44 37.18 34.12 41.22"/>
          <polygon class="cls-4" points="30.56 40.01 34.12 41.22 35.44 37.18 31.89 35.97 30.56 40.01"/>
          <polygon class="cls-4" points="27.01 38.79 30.56 40.01 31.89 35.97 28.34 34.75 27.01 38.79"/>
          <polygon class="cls-4" points="19.91 36.35 23.46 37.57 24.79 33.53 21.23 32.31 19.91 36.35"/>
          <polygon class="cls-4" points="124.27 67.61 127.82 68.83 129.15 64.79 125.59 63.58 124.27 67.61"/>
          <polygon class="cls-4" points="120.71 66.4 124.27 67.61 125.59 63.58 122.04 62.36 120.71 66.4"/>
          <polygon class="cls-4" points="106.5 61.53 110.06 62.75 111.38 58.71 107.83 57.49 106.5 61.53"/>
          <polygon class="cls-4" points="102.95 60.31 106.5 61.53 107.83 57.49 104.28 56.27 102.95 60.31"/>
          <polygon class="cls-4" points="99.4 59.09 102.95 60.31 104.28 56.27 100.72 55.05 99.4 59.09"/>
          <polygon class="cls-4" points="95.84 57.88 99.4 59.09 100.72 55.05 97.17 53.84 95.84 57.88"/>
          <polygon class="cls-4" points="85.18 54.22 88.74 55.44 90.06 51.4 86.51 50.19 85.18 54.22"/>
          <polygon class="cls-4" points="81.63 53.01 85.18 54.22 86.51 50.19 82.96 48.97 81.63 53.01"/>
          <polygon class="cls-4" points="78.08 51.79 81.63 53.01 82.96 48.97 79.41 47.75 78.08 51.79"/>
          <polygon class="cls-4" points="74.53 50.57 78.08 51.79 79.41 47.75 75.85 46.53 74.53 50.57"/>
          <polygon class="cls-4" points="70.97 49.36 74.53 50.57 75.85 46.53 72.3 45.32 70.97 49.36"/>
          <polygon class="cls-4" points="67.42 48.14 70.97 49.36 72.3 45.32 68.75 44.1 67.42 48.14"/>
          <polygon class="cls-4" points="63.87 46.92 67.42 48.14 68.75 44.1 65.19 42.88 63.87 46.92"/>
          <polygon class="cls-4" points="60.31 45.7 63.87 46.92 65.19 42.88 61.64 41.66 60.31 45.7"/>
          <polygon class="cls-4" points="56.76 44.49 60.31 45.7 61.64 41.66 58.09 40.45 56.76 44.49"/>
          <polygon class="cls-4" points="53.21 43.27 56.76 44.49 58.09 40.45 54.54 39.23 53.21 43.27"/>
          <polygon class="cls-4" points="49.66 42.05 53.21 43.27 54.54 39.23 50.98 38.01 49.66 42.05"/>
          <polygon class="cls-4" points="46.1 40.84 49.66 42.05 50.98 38.01 47.43 36.8 46.1 40.84"/>
          <polygon class="cls-4" points="42.55 39.62 46.1 40.84 47.43 36.8 43.88 35.58 42.55 39.62"/>
          <polygon class="cls-4" points="39 38.4 42.55 39.62 43.88 35.58 40.32 34.36 39 38.4"/>
          <polygon class="cls-4" points="35.44 37.18 39 38.4 40.32 34.36 36.77 33.14 35.44 37.18"/>
          <polygon class="cls-4" points="31.89 35.97 35.44 37.18 36.77 33.14 33.22 31.93 31.89 35.97"/>
          <polygon class="cls-4" points="24.79 33.53 28.34 34.75 29.67 30.71 26.11 29.49 24.79 33.53"/>
          <polygon class="cls-4" points="21.23 32.31 24.79 33.53 26.11 29.49 22.56 28.28 21.23 32.31"/>
          <polygon class="cls-4" points="125.59 63.58 129.15 64.79 130.47 60.75 126.92 59.54 125.59 63.58"/>
          <polygon class="cls-4" points="122.04 62.36 125.59 63.58 126.92 59.54 123.37 58.32 122.04 62.36"/>
          <polygon class="cls-4" points="118.49 61.14 122.04 62.36 123.37 58.32 119.81 57.1 118.49 61.14"/>
          <polygon class="cls-4" points="111.38 58.71 114.94 59.92 116.26 55.88 112.71 54.67 111.38 58.71"/>
          <polygon class="cls-4" points="107.83 57.49 111.38 58.71 112.71 54.67 109.16 53.45 107.83 57.49"/>
          <polygon class="cls-4" points="104.28 56.27 107.83 57.49 109.16 53.45 105.6 52.23 104.28 56.27"/>
          <polygon class="cls-4" points="100.72 55.05 104.28 56.27 105.6 52.23 102.05 51.02 100.72 55.05"/>
          <polygon class="cls-4" points="97.17 53.84 100.72 55.05 102.05 51.02 98.5 49.8 97.17 53.84"/>
          <polygon class="cls-4" points="82.96 48.97 86.51 50.19 87.84 46.15 84.29 44.93 82.96 48.97"/>
          <polygon class="cls-4" points="79.41 47.75 82.96 48.97 84.29 44.93 80.73 43.71 79.41 47.75"/>
          <polygon class="cls-4" points="75.85 46.53 79.41 47.75 80.73 43.71 77.18 42.49 75.85 46.53"/>
          <polygon class="cls-4" points="72.3 45.32 75.85 46.53 77.18 42.49 73.63 41.28 72.3 45.32"/>
          <polygon class="cls-4" points="65.19 42.88 68.75 44.1 70.07 40.06 66.52 38.84 65.19 42.88"/>
          <polygon class="cls-4" points="61.64 41.66 65.19 42.88 66.52 38.84 62.97 37.63 61.64 41.66"/>
          <polygon class="cls-4" points="58.09 40.45 61.64 41.66 62.97 37.63 59.42 36.41 58.09 40.45"/>
          <polygon class="cls-4" points="50.98 38.01 54.54 39.23 55.86 35.19 52.31 33.97 50.98 38.01"/>
          <polygon class="cls-4" points="47.43 36.8 50.98 38.01 52.31 33.97 48.76 32.76 47.43 36.8"/>
          <polygon class="cls-4" points="43.88 35.58 47.43 36.8 48.76 32.76 45.2 31.54 43.88 35.58"/>
          <polygon class="cls-4" points="40.32 34.36 43.88 35.58 45.2 31.54 41.65 30.32 40.32 34.36"/>
          <polygon class="cls-4" points="36.77 33.14 40.32 34.36 41.65 30.32 38.1 29.1 36.77 33.14"/>
          <polygon class="cls-4" points="33.22 31.93 36.77 33.14 38.1 29.1 34.55 27.89 33.22 31.93"/>
          <polygon class="cls-4" points="26.11 29.49 29.67 30.71 30.99 26.67 27.44 25.45 26.11 29.49"/>
          <polygon class="cls-4" points="22.56 28.28 26.11 29.49 27.44 25.45 23.89 24.24 22.56 28.28"/>
          <polygon class="cls-4" points="126.92 59.54 130.47 60.75 131.8 56.71 128.25 55.5 126.92 59.54"/>
          <polygon class="cls-4" points="123.37 58.32 126.92 59.54 128.25 55.5 124.69 54.28 123.37 58.32"/>
          <polygon class="cls-4" points="119.81 57.1 123.37 58.32 124.69 54.28 121.14 53.06 119.81 57.1"/>
          <polygon class="cls-4" points="116.26 55.88 119.81 57.1 121.14 53.06 117.59 51.85 116.26 55.88"/>
          <polygon class="cls-4" points="105.6 52.23 109.16 53.45 110.48 49.41 106.93 48.19 105.6 52.23"/>
          <polygon class="cls-4" points="94.94 48.58 98.5 49.8 99.82 45.76 96.27 44.54 94.94 48.58"/>
          <polygon class="cls-4" points="87.84 46.15 91.39 47.36 92.72 43.32 89.17 42.11 87.84 46.15"/>
          <polygon class="cls-4" points="84.29 44.93 87.84 46.15 89.17 42.11 85.61 40.89 84.29 44.93"/>
          <polygon class="cls-4" points="80.73 43.71 84.29 44.93 85.61 40.89 82.06 39.67 80.73 43.71"/>
          <polygon class="cls-4" points="77.18 42.49 80.73 43.71 82.06 39.67 78.51 38.46 77.18 42.49"/>
          <polygon class="cls-4" points="73.63 41.28 77.18 42.49 78.51 38.46 74.95 37.24 73.63 41.28"/>
          <polygon class="cls-4" points="70.07 40.06 73.63 41.28 74.95 37.24 71.4 36.02 70.07 40.06"/>
          <polygon class="cls-4" points="62.97 37.63 66.52 38.84 67.85 34.8 64.3 33.59 62.97 37.63"/>
          <polygon class="cls-4" points="59.42 36.41 62.97 37.63 64.3 33.59 60.74 32.37 59.42 36.41"/>
          <polygon class="cls-4" points="55.86 35.19 59.42 36.41 60.74 32.37 57.19 31.15 55.86 35.19"/>
          <polygon class="cls-4" points="52.31 33.97 55.86 35.19 57.19 31.15 53.64 29.93 52.31 33.97"/>
          <polygon class="cls-4" points="48.76 32.76 52.31 33.97 53.64 29.93 50.08 28.72 48.76 32.76"/>
          <polygon class="cls-4" points="45.2 31.54 48.76 32.76 50.08 28.72 46.53 27.5 45.2 31.54"/>
          <polygon class="cls-4" points="41.65 30.32 45.2 31.54 46.53 27.5 42.98 26.28 41.65 30.32"/>
          <polygon class="cls-4" points="38.1 29.1 41.65 30.32 42.98 26.28 39.43 25.07 38.1 29.1"/>
          <polygon class="cls-4" points="34.55 27.89 38.1 29.1 39.43 25.07 35.87 23.85 34.55 27.89"/>
          <polygon class="cls-4" points="30.99 26.67 34.55 27.89 35.87 23.85 32.32 22.63 30.99 26.67"/>
          <polygon class="cls-4" points="27.44 25.45 30.99 26.67 32.32 22.63 28.77 21.41 27.44 25.45"/>
          <polygon class="cls-4" points="23.89 24.24 27.44 25.45 28.77 21.41 25.21 20.2 23.89 24.24"/>
          <polygon class="cls-4" points="128.25 55.5 131.8 56.71 133.13 52.67 129.57 51.46 128.25 55.5"/>
          <polygon class="cls-4" points="124.69 54.28 128.25 55.5 129.57 51.46 126.02 50.24 124.69 54.28"/>
          <polygon class="cls-4" points="121.14 53.06 124.69 54.28 126.02 50.24 122.47 49.02 121.14 53.06"/>
          <polygon class="cls-4" points="117.59 51.85 121.14 53.06 122.47 49.02 118.92 47.81 117.59 51.85"/>
          <polygon class="cls-4" points="114.04 50.63 117.59 51.85 118.92 47.81 115.36 46.59 114.04 50.63"/>
          <polygon class="cls-4" points="103.38 46.98 106.93 48.19 108.26 44.15 104.7 42.94 103.38 46.98"/>
          <polygon class="cls-4" points="96.27 44.54 99.82 45.76 101.15 41.72 97.6 40.5 96.27 44.54"/>
          <polygon class="cls-4" points="89.17 42.11 92.72 43.32 94.05 39.28 90.49 38.07 89.17 42.11"/>
          <polygon class="cls-4" points="85.61 40.89 89.17 42.11 90.49 38.07 86.94 36.85 85.61 40.89"/>
          <polygon class="cls-4" points="82.06 39.67 85.61 40.89 86.94 36.85 83.39 35.63 82.06 39.67"/>
          <polygon class="cls-4" points="78.51 38.46 82.06 39.67 83.39 35.63 79.83 34.42 78.51 38.46"/>
          <polygon class="cls-4" points="74.95 37.24 78.51 38.46 79.83 34.42 76.28 33.2 74.95 37.24"/>
          <polygon class="cls-4" points="71.4 36.02 74.95 37.24 76.28 33.2 72.73 31.98 71.4 36.02"/>
          <polygon class="cls-4" points="67.85 34.8 71.4 36.02 72.73 31.98 69.18 30.76 67.85 34.8"/>
          <polygon class="cls-4" points="64.3 33.59 67.85 34.8 69.18 30.76 65.62 29.55 64.3 33.59"/>
          <polygon class="cls-4" points="60.74 32.37 64.3 33.59 65.62 29.55 62.07 28.33 60.74 32.37"/>
          <polygon class="cls-4" points="57.19 31.15 60.74 32.37 62.07 28.33 58.52 27.11 57.19 31.15"/>
          <polygon class="cls-4" points="53.64 29.93 57.19 31.15 58.52 27.11 54.96 25.9 53.64 29.93"/>
          <polygon class="cls-4" points="50.08 28.72 53.64 29.93 54.96 25.9 51.41 24.68 50.08 28.72"/>
          <polygon class="cls-4" points="46.53 27.5 50.08 28.72 51.41 24.68 47.86 23.46 46.53 27.5"/>
          <polygon class="cls-4" points="42.98 26.28 46.53 27.5 47.86 23.46 44.31 22.24 42.98 26.28"/>
          <polygon class="cls-4" points="39.43 25.07 42.98 26.28 44.31 22.24 40.75 21.03 39.43 25.07"/>
          <polygon class="cls-4" points="35.87 23.85 39.43 25.07 40.75 21.03 37.2 19.81 35.87 23.85"/>
          <polygon class="cls-4" points="32.32 22.63 35.87 23.85 37.2 19.81 33.65 18.59 32.32 22.63"/>
          <polygon class="cls-4" points="28.77 21.41 32.32 22.63 33.65 18.59 30.09 17.37 28.77 21.41"/>
          <polygon class="cls-4" points="25.21 20.2 28.77 21.41 30.09 17.37 26.54 16.16 25.21 20.2"/>
          <polygon class="cls-4" points="129.57 51.46 133.13 52.67 134.45 48.64 130.9 47.42 129.57 51.46"/>
          <polygon class="cls-4" points="126.02 50.24 129.57 51.46 130.9 47.42 127.35 46.2 126.02 50.24"/>
          <polygon class="cls-4" points="122.47 49.02 126.02 50.24 127.35 46.2 123.8 44.98 122.47 49.02"/>
          <polygon class="cls-4" points="118.92 47.81 122.47 49.02 123.8 44.98 120.24 43.77 118.92 47.81"/>
          <polygon class="cls-4" points="115.36 46.59 118.92 47.81 120.24 43.77 116.69 42.55 115.36 46.59"/>
          <polygon class="cls-4" points="111.81 45.37 115.36 46.59 116.69 42.55 113.14 41.33 111.81 45.37"/>
          <polygon class="cls-4" points="108.26 44.15 111.81 45.37 113.14 41.33 109.58 40.11 108.26 44.15"/>
          <polygon class="cls-4" points="94.05 39.28 97.6 40.5 98.93 36.46 95.37 35.25 94.05 39.28"/>
          <polygon class="cls-4" points="90.49 38.07 94.05 39.28 95.37 35.25 91.82 34.03 90.49 38.07"/>
          <polygon class="cls-4" points="79.83 34.42 83.39 35.63 84.71 31.59 81.16 30.38 79.83 34.42"/>
          <polygon class="cls-4" points="76.28 33.2 79.83 34.42 81.16 30.38 77.61 29.16 76.28 33.2"/>
          <polygon class="cls-4" points="72.73 31.98 76.28 33.2 77.61 29.16 74.06 27.94 72.73 31.98"/>
          <polygon class="cls-4" points="69.18 30.76 72.73 31.98 74.06 27.94 70.5 26.72 69.18 30.76"/>
          <polygon class="cls-4" points="65.62 29.55 69.18 30.76 70.5 26.72 66.95 25.51 65.62 29.55"/>
          <polygon class="cls-4" points="62.07 28.33 65.62 29.55 66.95 25.51 63.4 24.29 62.07 28.33"/>
          <polygon class="cls-4" points="58.52 27.11 62.07 28.33 63.4 24.29 59.84 23.07 58.52 27.11"/>
          <polygon class="cls-4" points="54.96 25.9 58.52 27.11 59.84 23.07 56.29 21.86 54.96 25.9"/>
          <polygon class="cls-4" points="44.31 22.24 47.86 23.46 49.18 19.42 45.63 18.2 44.31 22.24"/>
          <polygon class="cls-4" points="40.75 21.03 44.31 22.24 45.63 18.2 42.08 16.99 40.75 21.03"/>
          <polygon class="cls-4" points="37.2 19.81 40.75 21.03 42.08 16.99 38.53 15.77 37.2 19.81"/>
          <polygon class="cls-4" points="33.65 18.59 37.2 19.81 38.53 15.77 34.97 14.55 33.65 18.59"/>
          <polygon class="cls-4" points="30.09 17.37 33.65 18.59 34.97 14.55 31.42 13.34 30.09 17.37"/>
          <polygon class="cls-4" points="26.54 16.16 30.09 17.37 31.42 13.34 27.87 12.12 26.54 16.16"/>
          <polygon class="cls-4" points="130.9 47.42 134.45 48.64 135.78 44.6 132.23 43.38 130.9 47.42"/>
          <polygon class="cls-4" points="127.35 46.2 130.9 47.42 132.23 43.38 128.68 42.16 127.35 46.2"/>
          <polygon class="cls-4" points="123.8 44.98 127.35 46.2 128.68 42.16 125.12 40.94 123.8 44.98"/>
          <polygon class="cls-4" points="120.24 43.77 123.8 44.98 125.12 40.94 121.57 39.73 120.24 43.77"/>
          <polygon class="cls-4" points="116.69 42.55 120.24 43.77 121.57 39.73 118.02 38.51 116.69 42.55"/>
          <polygon class="cls-4" points="113.14 41.33 116.69 42.55 118.02 38.51 114.46 37.29 113.14 41.33"/>
          <polygon class="cls-4" points="109.58 40.11 113.14 41.33 114.46 37.29 110.91 36.08 109.58 40.11"/>
          <polygon class="cls-4" points="106.03 38.9 109.58 40.11 110.91 36.08 107.36 34.86 106.03 38.9"/>
          <polygon class="cls-4" points="84.71 31.59 88.27 32.81 89.59 28.77 86.04 27.55 84.71 31.59"/>
          <polygon class="cls-4" points="81.16 30.38 84.71 31.59 86.04 27.55 82.49 26.34 81.16 30.38"/>
          <polygon class="cls-4" points="77.61 29.16 81.16 30.38 82.49 26.34 78.94 25.12 77.61 29.16"/>
          <polygon class="cls-4" points="74.06 27.94 77.61 29.16 78.94 25.12 75.38 23.9 74.06 27.94"/>
          <polygon class="cls-4" points="70.5 26.72 74.06 27.94 75.38 23.9 71.83 22.69 70.5 26.72"/>
          <polygon class="cls-4" points="66.95 25.51 70.5 26.72 71.83 22.69 68.28 21.47 66.95 25.51"/>
          <polygon class="cls-4" points="63.4 24.29 66.95 25.51 68.28 21.47 64.72 20.25 63.4 24.29"/>
          <polygon class="cls-4" points="59.84 23.07 63.4 24.29 64.72 20.25 61.17 19.03 59.84 23.07"/>
          <polygon class="cls-4" points="49.18 19.42 52.74 20.64 54.06 16.6 50.51 15.38 49.18 19.42"/>
          <polygon class="cls-4" points="45.63 18.2 49.18 19.42 50.51 15.38 46.96 14.16 45.63 18.2"/>
          <polygon class="cls-4" points="42.08 16.99 45.63 18.2 46.96 14.16 43.41 12.95 42.08 16.99"/>
          <polygon class="cls-4" points="38.53 15.77 42.08 16.99 43.41 12.95 39.85 11.73 38.53 15.77"/>
          <polygon class="cls-4" points="34.97 14.55 38.53 15.77 39.85 11.73 36.3 10.51 34.97 14.55"/>
          <polygon class="cls-4" points="31.42 13.34 34.97 14.55 36.3 10.51 32.75 9.3 31.42 13.34"/>
          <polygon class="cls-4" points="27.87 12.12 31.42 13.34 32.75 9.3 29.19 8.08 27.87 12.12"/>
          <polygon class="cls-4" points="132.23 43.38 135.78 44.6 137.11 40.56 133.56 39.34 132.23 43.38"/>
          <polygon class="cls-4" points="128.68 42.16 132.23 43.38 133.56 39.34 130 38.12 128.68 42.16"/>
          <polygon class="cls-4" points="125.12 40.94 128.68 42.16 130 38.12 126.45 36.91 125.12 40.94"/>
          <polygon class="cls-4" points="121.57 39.73 125.12 40.94 126.45 36.91 122.9 35.69 121.57 39.73"/>
          <polygon class="cls-4" points="118.02 38.51 121.57 39.73 122.9 35.69 119.34 34.47 118.02 38.51"/>
          <polygon class="cls-4" points="114.46 37.29 118.02 38.51 119.34 34.47 115.79 33.25 114.46 37.29"/>
          <polygon class="cls-4" points="110.91 36.08 114.46 37.29 115.79 33.25 112.24 32.04 110.91 36.08"/>
          <polygon class="cls-4" points="107.36 34.86 110.91 36.08 112.24 32.04 108.69 30.82 107.36 34.86"/>
          <polygon class="cls-4" points="103.81 33.64 107.36 34.86 108.69 30.82 105.13 29.6 103.81 33.64"/>
          <polygon class="cls-4" points="100.25 32.42 103.81 33.64 105.13 29.6 101.58 28.38 100.25 32.42"/>
          <polygon class="cls-4" points="96.7 31.21 100.25 32.42 101.58 28.38 98.03 27.17 96.7 31.21"/>
          <polygon class="cls-4" points="57.62 17.82 61.17 19.03 62.5 14.99 58.94 13.78 57.62 17.82"/>
          <polygon class="cls-4" points="54.06 16.6 57.62 17.82 58.94 13.78 55.39 12.56 54.06 16.6"/>
          <polygon class="cls-4" points="50.51 15.38 54.06 16.6 55.39 12.56 51.84 11.34 50.51 15.38"/>
          <polygon class="cls-4" points="46.96 14.16 50.51 15.38 51.84 11.34 48.29 10.13 46.96 14.16"/>
          <polygon class="cls-4" points="43.41 12.95 46.96 14.16 48.29 10.13 44.73 8.91 43.41 12.95"/>
          <polygon class="cls-4" points="39.85 11.73 43.41 12.95 44.73 8.91 41.18 7.69 39.85 11.73"/>
          <polygon class="cls-4" points="36.3 10.51 39.85 11.73 41.18 7.69 37.63 6.47 36.3 10.51"/>
          <polygon class="cls-4" points="32.75 9.3 36.3 10.51 37.63 6.47 34.07 5.26 32.75 9.3"/>
          <polygon class="cls-4" points="29.19 8.08 32.75 9.3 34.07 5.26 30.52 4.04 29.19 8.08"/>
          <polygon class="cls-4" points="133.56 39.34 137.11 40.56 138.44 36.52 134.88 35.3 133.56 39.34"/>
          <polygon class="cls-4" points="130 38.12 133.56 39.34 134.88 35.3 131.33 34.08 130 38.12"/>
          <polygon class="cls-4" points="126.45 36.91 130 38.12 131.33 34.08 127.78 32.87 126.45 36.91"/>
          <polygon class="cls-4" points="122.9 35.69 126.45 36.91 127.78 32.87 124.22 31.65 122.9 35.69"/>
          <polygon class="cls-4" points="119.34 34.47 122.9 35.69 124.22 31.65 120.67 30.43 119.34 34.47"/>
          <polygon class="cls-4" points="115.79 33.25 119.34 34.47 120.67 30.43 117.12 29.21 115.79 33.25"/>
          <polygon class="cls-4" points="112.24 32.04 115.79 33.25 117.12 29.21 113.57 28 112.24 32.04"/>
          <polygon class="cls-4" points="108.69 30.82 112.24 32.04 113.57 28 110.01 26.78 108.69 30.82"/>
          <polygon class="cls-4" points="105.13 29.6 108.69 30.82 110.01 26.78 106.46 25.56 105.13 29.6"/>
          <polygon class="cls-4" points="101.58 28.38 105.13 29.6 106.46 25.56 102.91 24.35 101.58 28.38"/>
          <polygon class="cls-4" points="98.03 27.17 101.58 28.38 102.91 24.35 99.35 23.13 98.03 27.17"/>
          <polygon class="cls-4" points="94.47 25.95 98.03 27.17 99.35 23.13 95.8 21.91 94.47 25.95"/>
          <polygon class="cls-4" points="90.92 24.73 94.47 25.95 95.8 21.91 92.25 20.69 90.92 24.73"/>
          <polygon class="cls-4" points="87.37 23.52 90.92 24.73 92.25 20.69 88.7 19.48 87.37 23.52"/>
          <polygon class="cls-4" points="80.26 21.08 83.82 22.3 85.14 18.26 81.59 17.04 80.26 21.08"/>
          <polygon class="cls-4" points="76.71 19.86 80.26 21.08 81.59 17.04 78.04 15.82 76.71 19.86"/>
          <polygon class="cls-4" points="73.16 18.65 76.71 19.86 78.04 15.82 74.48 14.61 73.16 18.65"/>
          <polygon class="cls-4" points="69.6 17.43 73.16 18.65 74.48 14.61 70.93 13.39 69.6 17.43"/>
          <polygon class="cls-4" points="66.05 16.21 69.6 17.43 70.93 13.39 67.38 12.17 66.05 16.21"/>
          <polygon class="cls-4" points="62.5 14.99 66.05 16.21 67.38 12.17 63.82 10.96 62.5 14.99"/>
          <polygon class="cls-4" points="58.94 13.78 62.5 14.99 63.82 10.96 60.27 9.74 58.94 13.78"/>
          <polygon class="cls-4" points="55.39 12.56 58.94 13.78 60.27 9.74 56.72 8.52 55.39 12.56"/>
          <polygon class="cls-4" points="51.84 11.34 55.39 12.56 56.72 8.52 53.17 7.3 51.84 11.34"/>
          <polygon class="cls-4" points="48.29 10.13 51.84 11.34 53.17 7.3 49.61 6.09 48.29 10.13"/>
          <polygon class="cls-4" points="44.73 8.91 48.29 10.13 49.61 6.09 46.06 4.87 44.73 8.91"/>
          <polygon class="cls-4" points="41.18 7.69 44.73 8.91 46.06 4.87 42.51 3.65 41.18 7.69"/>
          <polygon class="cls-4" points="37.63 6.47 41.18 7.69 42.51 3.65 38.95 2.43 37.63 6.47"/>
          <polygon class="cls-4" points="34.07 5.26 37.63 6.47 38.95 2.43 35.4 1.22 34.07 5.26"/>
          <polygon class="cls-4" points="30.52 4.04 34.07 5.26 35.4 1.22 31.85 0 30.52 4.04"/>
        </g>
        <g>
          <g>
            <polygon class="cls-4" points="103.06 132.24 106.61 133.46 107.94 129.42 104.39 128.2 103.06 132.24"/>
            <polygon class="cls-4" points="78.19 123.72 81.74 124.94 83.07 120.9 79.52 119.68 78.19 123.72"/>
            <polygon class="cls-4" points="87.95 118.08 91.5 119.29 92.83 115.25 89.28 114.04 87.95 118.08"/>
            <polygon class="cls-4" points="24 96.17 27.55 97.38 28.88 93.34 25.32 92.13 24 96.17"/>
            <polygon class="cls-4" points="13.34 92.51 16.89 93.73 18.22 89.69 14.67 88.47 13.34 92.51"/>
            <polygon class="cls-4" points="9.79 91.3 13.34 92.51 14.67 88.47 11.11 87.26 9.79 91.3"/>
            <polygon class="cls-4" points="6.23 90.08 9.79 91.3 11.11 87.26 7.56 86.04 6.23 90.08"/>
            <polygon class="cls-4" points="2.68 88.86 6.23 90.08 7.56 86.04 4.01 84.82 2.68 88.86"/>
            <polygon class="cls-4" points="107.04 120.12 110.59 121.34 111.92 117.3 108.37 116.08 107.04 120.12"/>
            <polygon class="cls-4" points="103.49 118.91 107.04 120.12 108.37 116.08 104.82 114.87 103.49 118.91"/>
            <polygon class="cls-4" points="89.28 114.04 92.83 115.25 94.16 111.21 90.6 110 89.28 114.04"/>
            <polygon class="cls-4" points="85.72 112.82 89.28 114.04 90.6 110 87.05 108.78 85.72 112.82"/>
            <polygon class="cls-4" points="82.17 111.6 85.72 112.82 87.05 108.78 83.5 107.56 82.17 111.6"/>
            <polygon class="cls-4" points="78.62 110.39 82.17 111.6 83.5 107.56 79.94 106.35 78.62 110.39"/>
            <polygon class="cls-4" points="75.06 109.17 78.62 110.39 79.94 106.35 76.39 105.13 75.06 109.17"/>
            <polygon class="cls-4" points="25.32 92.13 28.88 93.34 30.2 89.3 26.65 88.09 25.32 92.13"/>
            <polygon class="cls-4" points="4.01 84.82 7.56 86.04 8.89 82 5.33 80.78 4.01 84.82"/>
            <polygon class="cls-4" points="30.2 89.3 33.76 90.52 35.08 86.48 31.53 85.26 30.2 89.3"/>
            <polygon class="cls-4" points="26.65 88.09 30.2 89.3 31.53 85.26 27.98 84.05 26.65 88.09"/>
            <polygon class="cls-4" points="5.33 80.78 8.89 82 10.21 77.96 6.66 76.74 5.33 80.78"/>
            <polygon class="cls-4" points="45.74 90.13 49.3 91.35 50.62 87.31 47.07 86.09 45.74 90.13"/>
            <polygon class="cls-4" points="42.19 88.92 45.74 90.13 47.07 86.09 43.52 84.88 42.19 88.92"/>
            <polygon class="cls-4" points="38.64 87.7 42.19 88.92 43.52 84.88 39.96 83.66 38.64 87.7"/>
            <polygon class="cls-4" points="6.66 76.74 10.21 77.96 11.54 73.92 7.99 72.7 6.66 76.74"/>
            <polygon class="cls-4" points="7.99 72.7 11.54 73.92 12.87 69.88 9.31 68.67 7.99 72.7"/>
            <polygon class="cls-4" points="55.5 84.49 59.06 85.71 60.38 81.67 56.83 80.45 55.5 84.49"/>
            <polygon class="cls-4" points="9.31 68.67 12.87 69.88 14.19 65.84 10.64 64.63 9.31 68.67"/>
            <polygon class="cls-4" points="106.57 97.49 110.12 98.71 111.45 94.67 107.9 93.45 106.57 97.49"/>
            <polygon class="cls-4" points="99.46 95.06 103.02 96.27 104.34 92.24 100.79 91.02 99.46 95.06"/>
            <polygon class="cls-4" points="56.83 80.45 60.38 81.67 61.71 77.63 58.16 76.41 56.83 80.45"/>
            <polygon class="cls-4" points="42.62 75.58 46.17 76.8 47.5 72.76 43.95 71.54 42.62 75.58"/>
            <polygon class="cls-4" points="24.85 69.5 28.41 70.71 29.73 66.67 26.18 65.46 24.85 69.5"/>
            <polygon class="cls-4" points="10.64 64.63 14.19 65.84 15.52 61.8 11.97 60.59 10.64 64.63"/>
            <polygon class="cls-4" points="115 95.89 118.56 97.1 119.88 93.07 116.33 91.85 115 95.89"/>
            <polygon class="cls-4" points="111.45 94.67 115 95.89 116.33 91.85 112.78 90.63 111.45 94.67"/>
            <polygon class="cls-4" points="107.9 93.45 111.45 94.67 112.78 90.63 109.22 89.41 107.9 93.45"/>
            <polygon class="cls-4" points="104.34 92.24 107.9 93.45 109.22 89.41 105.67 88.2 104.34 92.24"/>
            <polygon class="cls-4" points="100.79 91.02 104.34 92.24 105.67 88.2 102.12 86.98 100.79 91.02"/>
            <polygon class="cls-4" points="93.69 88.58 97.24 89.8 98.57 85.76 95.01 84.54 93.69 88.58"/>
            <polygon class="cls-4" points="90.13 87.37 93.69 88.58 95.01 84.54 91.46 83.33 90.13 87.37"/>
            <polygon class="cls-4" points="86.58 86.15 90.13 87.37 91.46 83.33 87.91 82.11 86.58 86.15"/>
            <polygon class="cls-4" points="58.16 76.41 61.71 77.63 63.04 73.59 59.48 72.37 58.16 76.41"/>
            <polygon class="cls-4" points="54.6 75.19 58.16 76.41 59.48 72.37 55.93 71.15 54.6 75.19"/>
            <polygon class="cls-4" points="40.39 70.32 43.95 71.54 45.27 67.5 41.72 66.29 40.39 70.32"/>
            <polygon class="cls-4" points="11.97 60.59 15.52 61.8 16.85 57.76 13.3 56.55 11.97 60.59"/>
            <polygon class="cls-4" points="116.33 91.85 119.88 93.07 121.21 89.03 117.66 87.81 116.33 91.85"/>
            <polygon class="cls-4" points="112.78 90.63 116.33 91.85 117.66 87.81 114.1 86.59 112.78 90.63"/>
            <polygon class="cls-4" points="109.22 89.41 112.78 90.63 114.1 86.59 110.55 85.37 109.22 89.41"/>
            <polygon class="cls-4" points="98.57 85.76 102.12 86.98 103.45 82.94 99.89 81.72 98.57 85.76"/>
            <polygon class="cls-4" points="84.35 80.89 87.91 82.11 89.23 78.07 85.68 76.85 84.35 80.89"/>
            <polygon class="cls-4" points="80.8 79.68 84.35 80.89 85.68 76.85 82.13 75.64 80.8 79.68"/>
            <polygon class="cls-4" points="77.25 78.46 80.8 79.68 82.13 75.64 78.58 74.42 77.25 78.46"/>
            <polygon class="cls-4" points="73.7 77.24 77.25 78.46 78.58 74.42 75.02 73.2 73.7 77.24"/>
            <polygon class="cls-4" points="70.14 76.02 73.7 77.24 75.02 73.2 71.47 71.98 70.14 76.02"/>
            <polygon class="cls-4" points="66.59 74.81 70.14 76.02 71.47 71.98 67.92 70.77 66.59 74.81"/>
            <polygon class="cls-4" points="63.04 73.59 66.59 74.81 67.92 70.77 64.36 69.55 63.04 73.59"/>
            <polygon class="cls-4" points="59.48 72.37 63.04 73.59 64.36 69.55 60.81 68.33 59.48 72.37"/>
            <polygon class="cls-4" points="55.93 71.15 59.48 72.37 60.81 68.33 57.26 67.12 55.93 71.15"/>
            <polygon class="cls-4" points="13.3 56.55 16.85 57.76 18.18 53.73 14.62 52.51 13.3 56.55"/>
            <polygon class="cls-4" points="117.66 87.81 121.21 89.03 122.54 84.99 118.98 83.77 117.66 87.81"/>
            <polygon class="cls-4" points="110.55 85.37 114.1 86.59 115.43 82.55 111.88 81.33 110.55 85.37"/>
            <polygon class="cls-4" points="103.45 82.94 107 84.16 108.33 80.12 104.77 78.9 103.45 82.94"/>
            <polygon class="cls-4" points="99.89 81.72 103.45 82.94 104.77 78.9 101.22 77.68 99.89 81.72"/>
            <polygon class="cls-4" points="92.79 79.29 96.34 80.51 97.67 76.47 94.11 75.25 92.79 79.29"/>
            <polygon class="cls-4" points="89.23 78.07 92.79 79.29 94.11 75.25 90.56 74.03 89.23 78.07"/>
            <polygon class="cls-4" points="60.81 68.33 64.36 69.55 65.69 65.51 62.14 64.29 60.81 68.33"/>
            <polygon class="cls-4" points="14.62 52.51 18.18 53.73 19.5 49.69 15.95 48.47 14.62 52.51"/>
            <polygon class="cls-4" points="118.98 83.77 122.54 84.99 123.86 80.95 120.31 79.73 118.98 83.77"/>
            <polygon class="cls-4" points="111.88 81.33 115.43 82.55 116.76 78.51 113.21 77.3 111.88 81.33"/>
            <polygon class="cls-4" points="108.33 80.12 111.88 81.33 113.21 77.3 109.65 76.08 108.33 80.12"/>
            <polygon class="cls-4" points="104.77 78.9 108.33 80.12 109.65 76.08 106.1 74.86 104.77 78.9"/>
            <polygon class="cls-4" points="101.22 77.68 104.77 78.9 106.1 74.86 102.55 73.64 101.22 77.68"/>
            <polygon class="cls-4" points="94.11 75.25 97.67 76.47 98.99 72.43 95.44 71.21 94.11 75.25"/>
            <polygon class="cls-4" points="90.56 74.03 94.11 75.25 95.44 71.21 91.89 69.99 90.56 74.03"/>
            <polygon class="cls-4" points="79.9 70.38 83.46 71.6 84.78 67.56 81.23 66.34 79.9 70.38"/>
            <polygon class="cls-4" points="76.35 69.16 79.9 70.38 81.23 66.34 77.68 65.12 76.35 69.16"/>
            <polygon class="cls-4" points="109.65 76.08 113.21 77.3 114.53 73.26 110.98 72.04 109.65 76.08"/>
            <polygon class="cls-4" points="95.44 71.21 98.99 72.43 100.32 68.39 96.77 67.17 95.44 71.21"/>
            <polygon class="cls-4" points="91.89 69.99 95.44 71.21 96.77 67.17 93.22 65.95 91.89 69.99"/>
            <polygon class="cls-4" points="88.34 68.77 91.89 69.99 93.22 65.95 89.66 64.74 88.34 68.77"/>
            <polygon class="cls-4" points="70.57 62.69 74.12 63.91 75.45 59.87 71.9 58.65 70.57 62.69"/>
            <polygon class="cls-4" points="63.46 60.25 67.02 61.47 68.34 57.43 64.79 56.21 63.46 60.25"/>
            <polygon class="cls-4" points="59.91 59.04 63.46 60.25 64.79 56.21 61.24 55 59.91 59.04"/>
            <polygon class="cls-4" points="56.36 57.82 59.91 59.04 61.24 55 57.69 53.78 56.36 57.82"/>
            <polygon class="cls-4" points="118.09 74.47 121.64 75.69 122.97 71.65 119.41 70.43 118.09 74.47"/>
            <polygon class="cls-4" points="114.53 73.26 118.09 74.47 119.41 70.43 115.86 69.22 114.53 73.26"/>
            <polygon class="cls-4" points="110.98 72.04 114.53 73.26 115.86 69.22 112.31 68 110.98 72.04"/>
            <polygon class="cls-4" points="107.43 70.82 110.98 72.04 112.31 68 108.75 66.78 107.43 70.82"/>
            <polygon class="cls-4" points="100.32 68.39 103.87 69.6 105.2 65.57 101.65 64.35 100.32 68.39"/>
            <polygon class="cls-4" points="96.77 67.17 100.32 68.39 101.65 64.35 98.1 63.13 96.77 67.17"/>
            <polygon class="cls-4" points="93.22 65.95 96.77 67.17 98.1 63.13 94.54 61.91 93.22 65.95"/>
            <polygon class="cls-4" points="89.66 64.74 93.22 65.95 94.54 61.91 90.99 60.7 89.66 64.74"/>
            <polygon class="cls-4" points="82.56 62.3 86.11 63.52 87.44 59.48 83.88 58.26 82.56 62.3"/>
            <polygon class="cls-4" points="79 61.08 82.56 62.3 83.88 58.26 80.33 57.04 79 61.08"/>
            <polygon class="cls-4" points="75.45 59.87 79 61.08 80.33 57.04 76.78 55.83 75.45 59.87"/>
            <polygon class="cls-4" points="71.9 58.65 75.45 59.87 76.78 55.83 73.22 54.61 71.9 58.65"/>
            <polygon class="cls-4" points="68.34 57.43 71.9 58.65 73.22 54.61 69.67 53.39 68.34 57.43"/>
            <polygon class="cls-4" points="57.69 53.78 61.24 55 62.57 50.96 59.01 49.74 57.69 53.78"/>
            <polygon class="cls-4" points="54.13 52.56 57.69 53.78 59.01 49.74 55.46 48.52 54.13 52.56"/>
            <polygon class="cls-4" points="22.16 41.61 25.71 42.82 27.04 38.79 23.48 37.57 22.16 41.61"/>
            <polygon class="cls-4" points="122.97 71.65 126.52 72.87 127.85 68.83 124.29 67.61 122.97 71.65"/>
            <polygon class="cls-4" points="112.31 68 115.86 69.22 117.19 65.18 113.63 63.96 112.31 68"/>
            <polygon class="cls-4" points="108.75 66.78 112.31 68 113.63 63.96 110.08 62.74 108.75 66.78"/>
            <polygon class="cls-4" points="105.2 65.57 108.75 66.78 110.08 62.74 106.53 61.53 105.2 65.57"/>
            <polygon class="cls-4" points="101.65 64.35 105.2 65.57 106.53 61.53 102.98 60.31 101.65 64.35"/>
            <polygon class="cls-4" points="98.1 63.13 101.65 64.35 102.98 60.31 99.42 59.09 98.1 63.13"/>
            <polygon class="cls-4" points="90.99 60.7 94.54 61.91 95.87 57.87 92.32 56.66 90.99 60.7"/>
            <polygon class="cls-4" points="87.44 59.48 90.99 60.7 92.32 56.66 88.76 55.44 87.44 59.48"/>
            <polygon class="cls-4" points="23.48 37.57 27.04 38.79 28.36 34.75 24.81 33.53 23.48 37.57"/>
            <polygon class="cls-4" points="117.19 65.18 120.74 66.39 122.07 62.36 118.51 61.14 117.19 65.18"/>
            <polygon class="cls-4" points="113.63 63.96 117.19 65.18 118.51 61.14 114.96 59.92 113.63 63.96"/>
            <polygon class="cls-4" points="110.08 62.74 113.63 63.96 114.96 59.92 111.41 58.7 110.08 62.74"/>
            <polygon class="cls-4" points="92.32 56.66 95.87 57.87 97.2 53.83 93.64 52.62 92.32 56.66"/>
            <polygon class="cls-4" points="88.76 55.44 92.32 56.66 93.64 52.62 90.09 51.4 88.76 55.44"/>
            <polygon class="cls-4" points="28.36 34.75 31.92 35.96 33.24 31.92 29.69 30.71 28.36 34.75"/>
            <polygon class="cls-4" points="114.96 59.92 118.51 61.14 119.84 57.1 116.29 55.88 114.96 59.92"/>
            <polygon class="cls-4" points="93.64 52.62 97.2 53.83 98.52 49.8 94.97 48.58 93.64 52.62"/>
            <polygon class="cls-4" points="90.09 51.4 93.64 52.62 94.97 48.58 91.42 47.36 90.09 51.4"/>
            <polygon class="cls-4" points="86.54 50.18 90.09 51.4 91.42 47.36 87.86 46.14 86.54 50.18"/>
            <polygon class="cls-4" points="68.77 44.1 72.33 45.31 73.65 41.27 70.1 40.06 68.77 44.1"/>
            <polygon class="cls-4" points="54.56 39.23 58.11 40.45 59.44 36.41 55.89 35.19 54.56 39.23"/>
            <polygon class="cls-4" points="29.69 30.71 33.24 31.92 34.57 27.88 31.02 26.67 29.69 30.71"/>
            <polygon class="cls-4" points="112.73 54.66 116.29 55.88 117.61 51.84 114.06 50.63 112.73 54.66"/>
            <polygon class="cls-4" points="109.18 53.45 112.73 54.66 114.06 50.63 110.51 49.41 109.18 53.45"/>
            <polygon class="cls-4" points="102.08 51.01 105.63 52.23 106.96 48.19 103.4 46.97 102.08 51.01"/>
            <polygon class="cls-4" points="98.52 49.8 102.08 51.01 103.4 46.97 99.85 45.76 98.52 49.8"/>
            <polygon class="cls-4" points="91.42 47.36 94.97 48.58 96.3 44.54 92.74 43.32 91.42 47.36"/>
            <polygon class="cls-4" points="66.55 38.84 70.1 40.06 71.43 36.02 67.87 34.8 66.55 38.84"/>
            <polygon class="cls-4" points="110.51 49.41 114.06 50.63 115.39 46.59 111.84 45.37 110.51 49.41"/>
            <polygon class="cls-4" points="106.96 48.19 110.51 49.41 111.84 45.37 108.28 44.15 106.96 48.19"/>
            <polygon class="cls-4" points="99.85 45.76 103.4 46.97 104.73 42.93 101.18 41.72 99.85 45.76"/>
            <polygon class="cls-4" points="92.74 43.32 96.3 44.54 97.62 40.5 94.07 39.28 92.74 43.32"/>
            <polygon class="cls-4" points="104.73 42.93 108.28 44.15 109.61 40.11 106.06 38.89 104.73 42.93"/>
            <polygon class="cls-4" points="101.18 41.72 104.73 42.93 106.06 38.89 102.5 37.68 101.18 41.72"/>
            <polygon class="cls-4" points="97.62 40.5 101.18 41.72 102.5 37.68 98.95 36.46 97.62 40.5"/>
            <polygon class="cls-4" points="86.97 36.85 90.52 38.07 91.85 34.03 88.29 32.81 86.97 36.85"/>
            <polygon class="cls-4" points="83.41 35.63 86.97 36.85 88.29 32.81 84.74 31.59 83.41 35.63"/>
            <polygon class="cls-4" points="51.44 24.68 54.99 25.89 56.32 21.85 52.76 20.64 51.44 24.68"/>
            <polygon class="cls-4" points="47.88 23.46 51.44 24.68 52.76 20.64 49.21 19.42 47.88 23.46"/>
            <polygon class="cls-4" points="102.5 37.68 106.06 38.89 107.38 34.86 103.83 33.64 102.5 37.68"/>
            <polygon class="cls-4" points="98.95 36.46 102.5 37.68 103.83 33.64 100.28 32.42 98.95 36.46"/>
            <polygon class="cls-4" points="95.4 35.24 98.95 36.46 100.28 32.42 96.73 31.2 95.4 35.24"/>
            <polygon class="cls-4" points="91.85 34.03 95.4 35.24 96.73 31.2 93.17 29.99 91.85 34.03"/>
            <polygon class="cls-4" points="88.29 32.81 91.85 34.03 93.17 29.99 89.62 28.77 88.29 32.81"/>
            <polygon class="cls-4" points="56.32 21.85 59.87 23.07 61.2 19.03 57.64 17.81 56.32 21.85"/>
            <polygon class="cls-4" points="52.76 20.64 56.32 21.85 57.64 17.81 54.09 16.6 52.76 20.64"/>
            <polygon class="cls-4" points="93.17 29.99 96.73 31.2 98.05 27.16 94.5 25.95 93.17 29.99"/>
            <polygon class="cls-4" points="89.62 28.77 93.17 29.99 94.5 25.95 90.95 24.73 89.62 28.77"/>
            <polygon class="cls-4" points="86.07 27.55 89.62 28.77 90.95 24.73 87.39 23.51 86.07 27.55"/>
            <polygon class="cls-4" points="82.51 26.33 86.07 27.55 87.39 23.51 83.84 22.3 82.51 26.33"/>
            <polygon class="cls-4" points="78.96 25.12 82.51 26.33 83.84 22.3 80.29 21.08 78.96 25.12"/>
            <polygon class="cls-4" points="75.41 23.9 78.96 25.12 80.29 21.08 76.74 19.86 75.41 23.9"/>
            <polygon class="cls-4" points="71.86 22.68 75.41 23.9 76.74 19.86 73.18 18.64 71.86 22.68"/>
            <polygon class="cls-4" points="68.3 21.47 71.86 22.68 73.18 18.64 69.63 17.43 68.3 21.47"/>
            <polygon class="cls-4" points="64.75 20.25 68.3 21.47 69.63 17.43 66.08 16.21 64.75 20.25"/>
            <polygon class="cls-4" points="61.2 19.03 64.75 20.25 66.08 16.21 62.52 14.99 61.2 19.03"/>
            <polygon class="cls-4" points="83.84 22.3 87.39 23.51 88.72 19.47 85.17 18.26 83.84 22.3"/>
          </g>
          <path class="cls-4" d="M88.74,19.49l-1.32,4.02,3.51,1.2c-1.94-.66-2.92-3-2.19-5.22Z"/>
          <path class="cls-4" d="M65.71,65.53l-1.32,4.02,3.51,1.2c-1.94-.66-2.92-3-2.19-5.22Z"/>
          <path class="cls-4" d="M117.19,65.23l-1.32,4.02,3.51,1.2c-1.94-.66-2.92-3-2.19-5.22Z"/>
          <path class="cls-4" d="M96.32,44.56l-1.32,4.02,3.51,1.2c-1.94-.66-2.92-3-2.19-5.22Z"/>
          <path class="cls-4" d="M104.73,43.01l-1.32,4.02,3.51,1.2c-1.94-.66-2.92-3-2.19-5.22Z"/>
          <path class="cls-4" d="M119.86,57.12l-1.32,4.02,3.51,1.2c-1.94-.66-2.92-3-2.19-5.22Z"/>
          <path class="cls-4" d="M115.41,46.6l-1.32,4.02,3.51,1.2c-1.94-.66-2.92-3-2.19-5.22Z"/>
          <path class="cls-4" d="M109.63,40.13l-1.32,4.02,3.51,1.2c-1.94-.66-2.92-3-2.19-5.22Z"/>
          <path class="cls-4" d="M107.4,34.87l-1.32,4.02,3.51,1.2c-1.94-.66-2.92-3-2.19-5.22Z"/>
          <path class="cls-4" d="M98.07,27.18l-1.32,4.02,3.51,1.2c-1.94-.66-2.92-3-2.19-5.22Z"/>
          <path class="cls-4" d="M71.45,36.04l-1.32,4.02,3.51,1.2c-1.94-.66-2.92-3-2.19-5.22Z"/>
          <path class="cls-4" d="M62.59,50.98l-1.32,4.02,3.51,1.2c-1.94-.66-2.92-3-2.19-5.22Z"/>
          <path class="cls-4" d="M45.29,67.52l-1.32,4.02,3.51,1.2c-1.94-.66-2.92-3-2.19-5.22Z"/>
          <path class="cls-4" d="M8.88,82.02l-1.32,4.02,3.51,1.2c-1.94-.66-2.92-3-2.19-5.22Z"/>
          <path class="cls-4" d="M64.68,20.24l-3.51-1.2-1.32,4.02c.73-2.22,2.89-3.48,4.83-2.82Z"/>
          <path class="cls-4" d="M102.04,51.05l-3.51-1.2-1.32,4.02c.73-2.22,2.89-3.48,4.83-2.82Z"/>
          <path class="cls-4" d="M126.49,72.87l-3.51-1.2-1.32,4.02c.73-2.22,2.89-3.48,4.83-2.82Z"/>
          <path class="cls-4" d="M114.98,95.89l-3.51-1.2-1.32,4.02c.73-2.22,2.89-3.48,4.83-2.82Z"/>
          <path class="cls-4" d="M102.09,86.98l-3.51-1.2-1.32,4.02c.73-2.22,2.89-3.48,4.83-2.82Z"/>
          <path class="cls-4" d="M118.06,74.47l-3.51-1.2-1.32,4.02c.73-2.22,2.89-3.48,4.83-2.82Z"/>
          <path class="cls-4" d="M107.87,93.46l-3.51-1.2-1.32,4.02c.73-2.22,2.89-3.48,4.83-2.82Z"/>
          <path class="cls-4" d="M111.85,81.34l-3.51-1.2-1.32,4.02c.73-2.22,2.89-3.48,4.83-2.82Z"/>
          <path class="cls-4" d="M106.97,84.16l-3.51-1.2-1.32,4.02c.73-2.22,2.89-3.48,4.83-2.82Z"/>
          <path class="cls-4" d="M92.76,79.29l-3.51-1.2-1.32,4.02c.73-2.22,2.89-3.48,4.83-2.82Z"/>
          <path class="cls-4" d="M108.73,66.78l-3.51-1.2-1.32,4.02c.73-2.22,2.89-3.48,4.83-2.82Z"/>
          <path class="cls-4" d="M103.83,69.59l-3.51-1.2-1.32,4.02c.73-2.22,2.89-3.48,4.83-2.82Z"/>
          <path class="cls-4" d="M110.48,49.41l-3.51-1.2-1.32,4.02c.73-2.22,2.89-3.48,4.83-2.82Z"/>
          <path class="cls-4" d="M95.35,35.32l-3.51-1.2-1.32,4.02c.73-2.22,2.89-3.48,4.83-2.82Z"/>
          <path class="cls-4" d="M78.98,61.09l-3.51-1.2-1.32,4.02c.73-2.22,2.89-3.48,4.83-2.82Z"/>
          <path class="cls-4" d="M59.84,23.07l-3.51-1.2-1.32,4.02c.73-2.22,2.89-3.48,4.83-2.82Z"/>
          <path class="cls-4" d="M31.88,36l-3.51-1.2-1.32,4.02c.73-2.22,2.89-3.48,4.83-2.82Z"/>
          <path class="cls-4" d="M66.56,74.81l-3.51-1.2-1.32,4.02c.73-2.22,2.89-3.48,4.83-2.82Z"/>
          <path class="cls-4" d="M33.73,90.53l-3.51-1.2-1.32,4.02c.73-2.22,2.89-3.48,4.83-2.82Z"/>
          <path class="cls-4" d="M88.75,55.42l1.32-4.02-3.51-1.2c1.94,.66,2.92,3,2.19,5.22Z"/>
          <path class="cls-4" d="M86.56,86.13l1.32-4.02-3.51-1.2c1.94,.66,2.92,3,2.19,5.22Z"/>
          <path class="cls-4" d="M109.64,76.05l1.32-4.02-3.51-1.2c1.94,.66,2.92,3,2.19,5.22Z"/>
          <path class="cls-4" d="M90.54,74.01l1.32-4.02-3.51-1.2c1.94,.66,2.92,3,2.19,5.22Z"/>
          <path class="cls-4" d="M89.64,64.72l1.32-4.02-3.51-1.2c1.94,.66,2.92,3,2.19,5.22Z"/>
          <path class="cls-4" d="M97.61,40.48l1.32-4.02-3.51-1.2c1.94,.66,2.92,3,2.19,5.22Z"/>
          <path class="cls-4" d="M99.81,45.8l1.32-4.02-3.51-1.2c1.94,.66,2.92,3,2.19,5.22Z"/>
          <path class="cls-4" d="M68.75,44.08l1.32-4.02-3.51-1.2c1.94,.66,2.92,3,2.19,5.22Z"/>
          <path class="cls-4" d="M70.55,62.67l1.32-4.02-3.51-1.2c1.94,.66,2.92,3,2.19,5.22Z"/>
          <path class="cls-4" d="M56.34,57.8l1.32-4.02-3.51-1.2c1.94,.66,2.92,3,2.19,5.22Z"/>
          <path class="cls-4" d="M87.93,118.06l1.32-4.02-3.51-1.2c1.94,.66,2.92,3,2.19,5.22Z"/>
          <path class="cls-4" d="M56.81,80.43l1.32-4.02-3.51-1.2c1.94,.66,2.92,3,2.19,5.22Z"/>
          <path class="cls-4" d="M42.6,75.56l1.32-4.02-3.51-1.2c1.94,.66,2.92,3,2.19,5.22Z"/>
          <path class="cls-4" d="M80.31,21.08l3.51,1.2,1.32-4.02c-.73,2.22-2.89,3.48-4.83,2.82Z"/>
          <path class="cls-4" d="M57.67,17.81l3.51,1.2,1.32-4.02c-.73,2.22-2.89,3.48-4.83,2.82Z"/>
          <path class="cls-4" d="M64.82,56.21l3.51,1.2,1.32-4.02c-.73,2.22-2.89,3.48-4.83,2.82Z"/>
          <path class="cls-4" d="M85.71,76.85l3.51,1.2,1.32-4.02c-.73,2.22-2.89,3.48-4.83,2.82Z"/>
          <path class="cls-4" d="M106.56,61.52l3.51,1.2,1.32-4.02c-.73,2.22-2.89,3.48-4.83,2.82Z"/>
          <path class="cls-4" d="M119.48,70.45l3.51,1.2,1.32-4.02c-.73,2.22-2.89,3.48-4.83,2.82Z"/>
          <path class="cls-4" d="M105.7,88.19l3.51,1.2,1.32-4.02c-.73,2.22-2.89,3.48-4.83,2.82Z"/>
          <path class="cls-4" d="M95.02,84.53l3.51,1.2,1.32-4.02c-.73,2.22-2.89,3.48-4.83,2.82Z"/>
          <path class="cls-4" d="M114.13,86.59l3.51,1.2,1.32-4.02c-.73,2.22-2.89,3.48-4.83,2.82Z"/>
          <path class="cls-4" d="M83.91,58.26l3.51,1.2,1.32-4.02c-.73,2.22-2.89,3.48-4.83,2.82Z"/>
          <path class="cls-4" d="M87.89,46.14l3.51,1.2,1.32-4.02c-.73,2.22-2.89,3.48-4.83,2.82Z"/>
          <path class="cls-4" d="M94.57,61.91l3.51,1.2,1.32-4.02c-.73,2.22-2.89,3.48-4.83,2.82Z"/>
          <path class="cls-4" d="M111.43,58.7l3.51,1.2,1.32-4.02c-.73,2.22-2.89,3.48-4.83,2.82Z"/>
          <path class="cls-4" d="M84.74,31.67l3.51,1.2,1.32-4.02c-.73,2.22-2.89,3.48-4.83,2.82Z"/>
          <path class="cls-4" d="M49.24,19.42l3.51,1.2,1.32-4.02c-.73,2.22-2.89,3.48-4.83,2.82Z"/>
          <path class="cls-4" d="M24.84,33.53l3.51,1.2,1.32-4.02c-.73,2.22-2.89,3.48-4.83,2.82Z"/>
          <path class="cls-4" d="M57.28,67.11l3.51,1.2,1.32-4.02c-.73,2.22-2.89,3.48-4.83,2.82Z"/>
        </g>
      </g>
      <text class="cls-3" transform="translate(.09 12.32)"><tspan x="0" y="0">(2)</tspan></text>
    </g>
  </g>
</svg>