<?xml version="1.0" encoding="UTF-8"?>
<svg id="Layer_2" data-name="Layer 2" xmlns="http://www.w3.org/2000/svg" viewBox="0 0 290.91 325.15">
  <defs>
    <style>
      .cls-1, .cls-2, .cls-3 {
        fill: #fff;
      }

      .cls-2 {
        font-family: PingFangSC-Medium-GBpc-EUC-H, 'PingFang SC';
        font-size: 30.32px;
      }

      .cls-3 {
        font-family: PingFangSC-Semibold-GBpc-EUC-H, 'PingFang SC';
        font-size: 20.22px;
        font-weight: 700;
      }
    </style>
  </defs>
  <g id="_图层_1" data-name="图层 1">
    <g>
      <rect class="cls-1" x="40.1" y="137.21" width="48" height="9.5" transform="translate(-91.57 147.34) rotate(-67.68)"/>
      <rect class="cls-1" x="33.99" y="124.87" width="7.51" height="37.91" transform="translate(-29.12 11.01) rotate(-12.02)"/>
      <rect class="cls-1" x="41.21" y="113.42" width="37.8" height="7.48" transform="translate(-71.55 114.83) rotate(-61.82)"/>
      <rect class="cls-1" x="32.58" y="148.4" width="10.98" height="55.46" transform="translate(-133.14 119.9) rotate(-59.62)"/>
      <rect class="cls-1" x="62.46" y="171.07" width="9.89" height="49.97" transform="translate(-139.5 183.01) rotate(-67.42)"/>
      <rect class="cls-1" x="77.11" y="194.69" width="51.33" height="10.16"/>
      <rect class="cls-1" x="102.21" y="192.81" width="70.31" height="13.92"/>
      <rect class="cls-1" x="136.36" y="175.03" width="43.25" height="8.56" transform="translate(-28.34 328.96) rotate(-87.39)"/>
      <rect class="cls-1" x="130.04" y="139.82" width="60.65" height="12.01" transform="translate(-18.55 268.17) rotate(-76.65)"/>
      <rect class="cls-1" x="157.76" y="80.68" width="11.8" height="59.57"/>
      <rect class="cls-1" x="147.08" y="58" width="8.16" height="41.21" transform="translate(-12.45 126.12) rotate(-43.67)"/>
      <rect class="cls-1" x="115.21" y="41.66" width="8.65" height="43.66" transform="translate(-.36 126.29) rotate(-55.62)"/>
      <rect class="cls-1" x="115.56" width="12.77" height="64.5"/>
      <rect class="cls-1" x="74.05" y="12.79" width="39.72" height="7.87"/>
      <rect class="cls-1" x="69.96" y="13.62" width="10.02" height="50.59" transform="translate(-6.76 17.58) rotate(-12.8)"/>
      <rect class="cls-1" x="45.7" y="63.1" width="67.55" height="13.38" transform="translate(-24.21 48.9) rotate(-29.9)"/>
      <rect class="cls-1" x="21" y="82.46" width="57.57" height="11.4" transform="translate(-50.29 72.84) rotate(-51.84)"/>
      <rect class="cls-1" x="10.5" y="114.38" width="48" height="9.5" transform="translate(-59.27 37.95) rotate(-32.96)"/>
      <rect class="cls-1" x="-6.33" y="140.14" width="37.91" height="7.51" transform="translate(-118.72 83.79) rotate(-60.4)"/>
      <rect class="cls-1" x="16.87" y="154.86" width="7.48" height="37.8" transform="translate(-98.41 45.49) rotate(-36.09)"/>
    </g>
    <text class="cls-3" transform="translate(63.34 320.46)"><tspan x="0" y="0">（2）</tspan></text>
    <text class="cls-2" transform="translate(59.42 272.49)"><tspan x="0" y="0">QUANTITATIVE </tspan><tspan x="44.96" y="28.33">CHANGE</tspan></text>
  </g>
</svg>