<?xml version="1.0" encoding="UTF-8"?>
<svg id="Layer_2" data-name="Layer 2" xmlns="http://www.w3.org/2000/svg" viewBox="0 0 349.99 218.62">
  <defs>
    <style>
      .cls-1, .cls-2, .cls-3 {
        fill: #fff;
      }

      .cls-2 {
        font-family: PingFangSC-Medium-GBpc-EUC-H, 'PingFang SC';
        font-size: 30.32px;
      }

      .cls-3 {
        font-family: PingFangSC-Semibold-GBpc-EUC-H, 'PingFang SC';
        font-size: 20.22px;
        font-weight: 700;
      }
    </style>
  </defs>
  <g id="_图层_1" data-name="图层 1">
    <g>
      <g>
        <rect class="cls-1" x="122.41" y="135.79" width="6.8" height="6.79"/>
        <rect class="cls-1" x="115.61" y="135.79" width="6.8" height="6.79"/>
        <rect class="cls-1" x="108.81" y="135.79" width="6.8" height="6.79"/>
        <rect class="cls-1" x="224.42" y="129" width="6.8" height="6.79"/>
        <rect class="cls-1" x="217.62" y="129" width="6.8" height="6.79"/>
        <rect class="cls-1" x="210.81" y="129" width="6.8" height="6.79"/>
        <rect class="cls-1" x="204.01" y="129" width="6.8" height="6.79"/>
        <rect class="cls-1" x="183.61" y="129" width="6.8" height="6.79"/>
        <rect class="cls-1" x="176.81" y="129" width="6.8" height="6.79"/>
        <rect class="cls-1" x="170.01" y="129" width="6.8" height="6.79"/>
        <rect class="cls-1" x="163.21" y="129" width="6.8" height="6.79"/>
        <rect class="cls-1" x="136.01" y="129" width="6.8" height="6.79"/>
        <rect class="cls-1" x="129.21" y="129" width="6.8" height="6.79"/>
        <rect class="cls-1" x="102.01" y="129" width="6.8" height="6.79"/>
        <rect class="cls-1" x="61.2" y="129" width="6.8" height="6.79"/>
        <rect class="cls-1" x="54.4" y="129" width="6.8" height="6.79"/>
        <rect class="cls-1" x="231.22" y="122.21" width="6.8" height="6.79"/>
        <rect class="cls-1" x="204.01" y="122.21" width="6.8" height="6.79"/>
        <rect class="cls-1" x="197.21" y="122.21" width="6.8" height="6.79"/>
        <rect class="cls-1" x="190.41" y="122.21" width="6.8" height="6.79"/>
        <rect class="cls-1" x="156.41" y="122.21" width="6.8" height="6.79"/>
        <rect class="cls-1" x="149.61" y="122.21" width="6.8" height="6.79"/>
        <rect class="cls-1" x="142.81" y="122.21" width="6.8" height="6.79"/>
        <rect class="cls-1" x="95.21" y="122.21" width="6.8" height="6.79"/>
        <rect class="cls-1" x="88.41" y="122.21" width="6.8" height="6.79"/>
        <rect class="cls-1" x="81.61" y="122.21" width="6.8" height="6.79"/>
        <rect class="cls-1" x="74.81" y="122.21" width="6.8" height="6.79"/>
        <rect class="cls-1" x="47.6" y="122.21" width="6.8" height="6.79"/>
        <rect class="cls-1" x="231.22" y="115.42" width="6.8" height="6.79"/>
        <rect class="cls-1" x="190.41" y="115.42" width="6.8" height="6.79"/>
        <rect class="cls-1" x="176.81" y="115.42" width="6.8" height="6.79"/>
        <rect class="cls-1" x="170.01" y="115.42" width="6.8" height="6.79"/>
        <rect class="cls-1" x="149.61" y="115.42" width="6.8" height="6.79"/>
        <rect class="cls-1" x="108.81" y="115.42" width="6.8" height="6.79"/>
        <rect class="cls-1" x="102.01" y="115.42" width="6.8" height="6.79"/>
        <rect class="cls-1" x="95.21" y="115.42" width="6.8" height="6.79"/>
        <rect class="cls-1" x="61.2" y="115.42" width="6.8" height="6.79"/>
        <rect class="cls-1" x="47.6" y="115.42" width="6.8" height="6.79"/>
        <rect class="cls-1" x="258.42" y="108.63" width="6.8" height="6.79"/>
        <rect class="cls-1" x="251.62" y="108.63" width="6.8" height="6.79"/>
        <rect class="cls-1" x="244.82" y="108.63" width="6.8" height="6.79"/>
        <rect class="cls-1" x="238.02" y="108.63" width="6.8" height="6.79"/>
        <rect class="cls-1" x="231.22" y="108.63" width="6.8" height="6.79"/>
        <rect class="cls-1" x="224.42" y="108.63" width="6.8" height="6.79"/>
        <rect class="cls-1" x="217.62" y="108.63" width="6.8" height="6.79"/>
        <rect class="cls-1" x="210.81" y="108.63" width="6.8" height="6.79"/>
        <rect class="cls-1" x="204.01" y="108.63" width="6.8" height="6.79"/>
        <rect class="cls-1" x="197.21" y="108.63" width="6.8" height="6.79"/>
        <rect class="cls-1" x="190.41" y="108.63" width="6.8" height="6.79"/>
        <rect class="cls-1" x="183.61" y="108.63" width="6.8" height="6.79"/>
        <rect class="cls-1" x="176.81" y="108.63" width="6.8" height="6.79"/>
        <rect class="cls-1" x="163.21" y="108.63" width="6.8" height="6.79"/>
        <rect class="cls-1" x="149.61" y="108.63" width="6.8" height="6.79"/>
        <rect class="cls-1" x="142.81" y="108.63" width="6.8" height="6.79"/>
        <rect class="cls-1" x="136.01" y="108.63" width="6.8" height="6.79"/>
        <rect class="cls-1" x="129.21" y="108.63" width="6.8" height="6.79"/>
        <rect class="cls-1" x="122.41" y="108.63" width="6.8" height="6.79"/>
        <rect class="cls-1" x="115.61" y="108.63" width="6.8" height="6.79"/>
        <rect class="cls-1" x="95.21" y="108.63" width="6.8" height="6.79"/>
        <rect class="cls-1" x="61.2" y="108.63" width="6.8" height="6.79"/>
        <rect class="cls-1" x="54.4" y="108.63" width="6.8" height="6.79"/>
        <rect class="cls-1" x="47.6" y="108.63" width="6.8" height="6.79"/>
        <rect class="cls-1" x="40.8" y="108.63" width="6.8" height="6.79"/>
        <rect class="cls-1" x="34" y="108.63" width="6.8" height="6.79"/>
        <rect class="cls-1" x="27.2" y="108.63" width="6.8" height="6.79"/>
        <rect class="cls-1" x="292.42" y="101.84" width="6.8" height="6.79"/>
        <rect class="cls-1" x="285.62" y="101.84" width="6.8" height="6.79"/>
        <rect class="cls-1" x="278.82" y="101.84" width="6.8" height="6.79"/>
        <rect class="cls-1" x="272.02" y="101.84" width="6.8" height="6.79"/>
        <rect class="cls-1" x="265.22" y="101.84" width="6.8" height="6.79"/>
        <rect class="cls-1" x="258.42" y="101.84" width="6.8" height="6.79"/>
        <rect class="cls-1" x="251.62" y="101.84" width="6.8" height="6.79"/>
        <rect class="cls-1" x="244.82" y="101.84" width="6.8" height="6.79"/>
        <rect class="cls-1" x="231.22" y="101.84" width="6.8" height="6.79"/>
        <rect class="cls-1" x="224.42" y="101.84" width="6.8" height="6.79"/>
        <rect class="cls-1" x="217.62" y="101.84" width="6.8" height="6.79"/>
        <rect class="cls-1" x="210.81" y="101.84" width="6.8" height="6.79"/>
        <rect class="cls-1" x="190.41" y="101.84" width="6.8" height="6.79"/>
        <rect class="cls-1" x="176.81" y="101.84" width="6.8" height="6.79"/>
        <rect class="cls-1" x="163.21" y="101.84" width="6.8" height="6.79"/>
        <rect class="cls-1" x="156.41" y="101.84" width="6.8" height="6.79"/>
        <rect class="cls-1" x="149.61" y="101.84" width="6.8" height="6.79"/>
        <rect class="cls-1" x="115.61" y="101.84" width="6.8" height="6.79"/>
        <rect class="cls-1" x="108.81" y="101.84" width="6.8" height="6.79"/>
        <rect class="cls-1" x="95.21" y="101.84" width="6.8" height="6.79"/>
        <rect class="cls-1" x="88.41" y="101.84" width="6.8" height="6.79"/>
        <rect class="cls-1" x="81.61" y="101.84" width="6.8" height="6.79"/>
        <rect class="cls-1" x="74.81" y="101.84" width="6.8" height="6.79"/>
        <rect class="cls-1" x="68" y="101.84" width="6.8" height="6.79"/>
        <rect class="cls-1" x="61.2" y="101.84" width="6.8" height="6.79"/>
        <rect class="cls-1" x="47.6" y="101.84" width="6.8" height="6.79"/>
        <rect class="cls-1" x="40.8" y="101.84" width="6.8" height="6.79"/>
        <rect class="cls-1" x="27.2" y="101.84" width="6.8" height="6.79"/>
        <rect class="cls-1" x="20.4" y="101.84" width="6.8" height="6.79"/>
        <rect class="cls-1" x="299.22" y="95.05" width="6.8" height="6.79"/>
        <rect class="cls-1" x="292.42" y="95.05" width="6.8" height="6.79"/>
        <rect class="cls-1" x="272.02" y="95.05" width="6.8" height="6.79"/>
        <rect class="cls-1" x="265.22" y="95.05" width="6.8" height="6.79"/>
        <rect class="cls-1" x="258.42" y="95.05" width="6.8" height="6.79"/>
        <rect class="cls-1" x="251.62" y="95.05" width="6.8" height="6.79"/>
        <rect class="cls-1" x="244.82" y="95.05" width="6.8" height="6.79"/>
        <rect class="cls-1" x="238.02" y="95.05" width="6.8" height="6.79"/>
        <rect class="cls-1" x="231.22" y="95.05" width="6.8" height="6.79"/>
        <rect class="cls-1" x="217.62" y="95.05" width="6.8" height="6.79"/>
        <rect class="cls-1" x="190.41" y="95.05" width="6.8" height="6.79"/>
        <rect class="cls-1" x="149.61" y="95.05" width="6.8" height="6.79"/>
        <rect class="cls-1" x="102.01" y="95.05" width="6.8" height="6.79"/>
        <rect class="cls-1" x="95.21" y="95.05" width="6.8" height="6.79"/>
        <rect class="cls-1" x="61.2" y="95.05" width="6.8" height="6.79"/>
        <rect class="cls-1" x="47.6" y="95.05" width="6.8" height="6.79"/>
        <rect class="cls-1" x="40.8" y="95.05" width="6.8" height="6.79"/>
        <rect class="cls-1" x="34" y="95.05" width="6.8" height="6.79"/>
        <rect class="cls-1" x="27.2" y="95.05" width="6.8" height="6.79"/>
        <rect class="cls-1" x="20.4" y="95.05" width="6.8" height="6.79"/>
        <rect class="cls-1" x="13.6" y="95.05" width="6.8" height="6.79"/>
        <rect class="cls-1" x="326.42" y="88.27" width="6.8" height="6.79"/>
        <rect class="cls-1" x="319.62" y="88.27" width="6.8" height="6.79"/>
        <rect class="cls-1" x="312.82" y="88.27" width="6.8" height="6.79"/>
        <rect class="cls-1" x="306.02" y="88.27" width="6.8" height="6.79"/>
        <rect class="cls-1" x="299.22" y="88.27" width="6.8" height="6.79"/>
        <rect class="cls-1" x="285.62" y="88.27" width="6.8" height="6.79"/>
        <rect class="cls-1" x="258.42" y="88.27" width="6.8" height="6.79"/>
        <rect class="cls-1" x="251.62" y="88.27" width="6.8" height="6.79"/>
        <rect class="cls-1" x="244.82" y="88.27" width="6.8" height="6.79"/>
        <rect class="cls-1" x="231.22" y="88.27" width="6.8" height="6.79"/>
        <rect class="cls-1" x="190.41" y="88.27" width="6.8" height="6.79"/>
        <rect class="cls-1" x="149.61" y="88.27" width="6.8" height="6.79"/>
        <rect class="cls-1" x="54.4" y="88.27" width="6.8" height="6.79"/>
        <rect class="cls-1" x="40.8" y="88.27" width="6.8" height="6.79"/>
        <rect class="cls-1" x="27.2" y="88.27" width="6.8" height="6.79"/>
        <rect class="cls-1" x="20.4" y="88.27" width="6.8" height="6.79"/>
        <rect class="cls-1" x="6.8" y="88.27" width="6.8" height="6.79"/>
        <rect class="cls-1" x="326.42" y="81.48" width="6.8" height="6.79"/>
        <rect class="cls-1" x="306.02" y="81.48" width="6.8" height="6.79"/>
        <rect class="cls-1" x="299.22" y="81.48" width="6.8" height="6.79"/>
        <rect class="cls-1" x="292.42" y="81.48" width="6.8" height="6.79"/>
        <rect class="cls-1" x="285.62" y="81.48" width="6.8" height="6.79"/>
        <rect class="cls-1" x="265.22" y="81.48" width="6.8" height="6.79"/>
        <rect class="cls-1" x="251.62" y="81.48" width="6.8" height="6.79"/>
        <rect class="cls-1" x="231.22" y="81.48" width="6.8" height="6.79"/>
        <rect class="cls-1" x="190.41" y="81.48" width="6.8" height="6.79"/>
        <rect class="cls-1" x="183.61" y="81.48" width="6.8" height="6.79"/>
        <rect class="cls-1" x="176.81" y="81.48" width="6.8" height="6.79"/>
        <rect class="cls-1" x="170.01" y="81.48" width="6.8" height="6.79"/>
        <rect class="cls-1" x="163.21" y="81.48" width="6.8" height="6.79"/>
        <rect class="cls-1" x="156.41" y="81.48" width="6.8" height="6.79"/>
        <rect class="cls-1" x="149.61" y="81.48" width="6.8" height="6.79"/>
        <rect class="cls-1" x="142.81" y="81.48" width="6.8" height="6.79"/>
        <rect class="cls-1" x="136.01" y="81.48" width="6.8" height="6.79"/>
        <rect class="cls-1" x="88.41" y="81.48" width="6.8" height="6.79"/>
        <rect class="cls-1" x="40.8" y="81.48" width="6.8" height="6.79"/>
        <rect class="cls-1" x="27.2" y="81.48" width="6.8" height="6.79"/>
        <rect class="cls-1" x="20.4" y="81.48" width="6.8" height="6.79"/>
        <rect class="cls-1" x="13.6" y="81.48" width="6.8" height="6.79"/>
        <rect class="cls-1" x="6.8" y="81.48" width="6.8" height="6.79"/>
        <rect class="cls-1" x="333.22" y="74.69" width="6.8" height="6.79"/>
        <rect class="cls-1" x="326.42" y="74.69" width="6.8" height="6.79"/>
        <rect class="cls-1" x="319.62" y="74.69" width="6.8" height="6.79"/>
        <rect class="cls-1" x="312.82" y="74.69" width="6.8" height="6.79"/>
        <rect class="cls-1" x="299.22" y="74.69" width="6.8" height="6.79"/>
        <rect class="cls-1" x="265.22" y="74.69" width="6.8" height="6.79"/>
        <rect class="cls-1" x="224.42" y="74.69" width="6.8" height="6.79"/>
        <rect class="cls-1" x="217.62" y="74.69" width="6.8" height="6.79"/>
        <rect class="cls-1" x="204.01" y="74.69" width="6.8" height="6.79"/>
        <rect class="cls-1" x="197.21" y="74.69" width="6.8" height="6.79"/>
        <rect class="cls-1" x="129.21" y="74.69" width="6.8" height="6.79"/>
        <rect class="cls-1" x="122.41" y="74.69" width="6.8" height="6.79"/>
        <rect class="cls-1" x="115.61" y="74.69" width="6.8" height="6.79"/>
        <rect class="cls-1" x="108.81" y="74.69" width="6.8" height="6.79"/>
        <rect class="cls-1" x="102.01" y="74.69" width="6.8" height="6.79"/>
        <rect class="cls-1" x="95.21" y="74.69" width="6.8" height="6.79"/>
        <rect class="cls-1" x="88.41" y="74.69" width="6.8" height="6.79"/>
        <rect class="cls-1" x="47.6" y="74.69" width="6.8" height="6.79"/>
        <rect class="cls-1" x="20.4" y="74.69" width="6.8" height="6.79"/>
        <rect class="cls-1" x="13.6" y="74.69" width="6.8" height="6.79"/>
        <rect class="cls-1" x="6.8" y="74.69" width="6.8" height="6.79"/>
        <rect class="cls-1" y="74.69" width="6.8" height="6.79"/>
        <rect class="cls-1" x="333.22" y="67.9" width="6.8" height="6.79"/>
        <rect class="cls-1" x="326.42" y="67.9" width="6.8" height="6.79"/>
        <rect class="cls-1" x="319.62" y="67.9" width="6.8" height="6.79"/>
        <rect class="cls-1" x="299.22" y="67.9" width="6.8" height="6.79"/>
        <rect class="cls-1" x="258.42" y="67.9" width="6.8" height="6.79"/>
        <rect class="cls-1" x="231.22" y="67.9" width="6.8" height="6.79"/>
        <rect class="cls-1" x="210.81" y="67.9" width="6.8" height="6.79"/>
        <rect class="cls-1" x="204.01" y="67.9" width="6.8" height="6.79"/>
        <rect class="cls-1" x="81.61" y="67.9" width="6.8" height="6.79"/>
        <rect class="cls-1" x="74.81" y="67.9" width="6.8" height="6.79"/>
        <rect class="cls-1" x="68" y="67.9" width="6.8" height="6.79"/>
        <rect class="cls-1" x="61.2" y="67.9" width="6.8" height="6.79"/>
        <rect class="cls-1" x="54.4" y="67.9" width="6.8" height="6.79"/>
        <rect class="cls-1" x="47.6" y="67.9" width="6.8" height="6.79"/>
        <rect class="cls-1" x="20.4" y="67.9" width="6.8" height="6.79"/>
        <rect class="cls-1" x="6.8" y="67.9" width="6.8" height="6.79"/>
        <rect class="cls-1" y="67.9" width="6.8" height="6.79"/>
        <rect class="cls-1" x="333.22" y="61.11" width="6.8" height="6.79"/>
        <rect class="cls-1" x="326.42" y="61.11" width="6.8" height="6.79"/>
        <rect class="cls-1" x="299.22" y="61.11" width="6.8" height="6.79"/>
        <rect class="cls-1" x="278.82" y="61.11" width="6.8" height="6.79"/>
        <rect class="cls-1" x="272.02" y="61.11" width="6.8" height="6.79"/>
        <rect class="cls-1" x="265.22" y="61.11" width="6.8" height="6.79"/>
        <rect class="cls-1" x="258.42" y="61.11" width="6.8" height="6.79"/>
        <rect class="cls-1" x="251.62" y="61.11" width="6.8" height="6.79"/>
        <rect class="cls-1" x="244.82" y="61.11" width="6.8" height="6.79"/>
        <rect class="cls-1" x="210.81" y="61.11" width="6.8" height="6.79"/>
        <rect class="cls-1" x="61.2" y="61.11" width="6.8" height="6.79"/>
        <rect class="cls-1" x="47.6" y="61.11" width="6.8" height="6.79"/>
        <rect class="cls-1" x="40.8" y="61.11" width="6.8" height="6.79"/>
        <rect class="cls-1" x="34" y="61.11" width="6.8" height="6.79"/>
        <rect class="cls-1" x="27.2" y="61.11" width="6.8" height="6.79"/>
        <rect class="cls-1" x="20.4" y="61.11" width="6.8" height="6.79"/>
        <rect class="cls-1" x="6.8" y="61.11" width="6.8" height="6.79"/>
        <rect class="cls-1" y="61.11" width="6.8" height="6.79"/>
        <rect class="cls-1" x="333.22" y="54.32" width="6.8" height="6.79"/>
        <rect class="cls-1" x="326.42" y="54.32" width="6.8" height="6.79"/>
        <rect class="cls-1" x="312.82" y="54.32" width="6.8" height="6.79"/>
        <rect class="cls-1" x="292.42" y="54.32" width="6.8" height="6.79"/>
        <rect class="cls-1" x="285.62" y="54.32" width="6.8" height="6.79"/>
        <rect class="cls-1" x="244.82" y="54.32" width="6.8" height="6.79"/>
        <rect class="cls-1" x="238.02" y="54.32" width="6.8" height="6.79"/>
        <rect class="cls-1" x="231.22" y="54.32" width="6.8" height="6.79"/>
        <rect class="cls-1" x="224.42" y="54.32" width="6.8" height="6.79"/>
        <rect class="cls-1" x="217.62" y="54.32" width="6.8" height="6.79"/>
        <rect class="cls-1" x="61.2" y="54.32" width="6.8" height="6.79"/>
        <rect class="cls-1" x="47.6" y="54.32" width="6.8" height="6.79"/>
        <rect class="cls-1" x="40.8" y="54.32" width="6.8" height="6.79"/>
        <rect class="cls-1" y="54.32" width="6.8" height="6.79"/>
        <rect class="cls-1" x="319.62" y="47.53" width="6.8" height="6.79"/>
        <rect class="cls-1" x="306.02" y="47.53" width="6.8" height="6.79"/>
        <rect class="cls-1" x="285.62" y="47.53" width="6.8" height="6.79"/>
        <rect class="cls-1" x="278.82" y="47.53" width="6.8" height="6.79"/>
        <rect class="cls-1" x="244.82" y="47.53" width="6.8" height="6.79"/>
        <rect class="cls-1" x="238.02" y="47.53" width="6.8" height="6.79"/>
        <rect class="cls-1" x="61.2" y="47.53" width="6.8" height="6.79"/>
        <rect class="cls-1" x="40.8" y="47.53" width="6.8" height="6.79"/>
        <rect class="cls-1" x="34" y="47.53" width="6.8" height="6.79"/>
        <rect class="cls-1" x="27.2" y="47.53" width="6.8" height="6.79"/>
        <rect class="cls-1" x="6.8" y="47.53" width="6.8" height="6.79"/>
        <rect class="cls-1" y="47.53" width="6.8" height="6.79"/>
        <rect class="cls-1" x="312.82" y="40.74" width="6.8" height="6.79"/>
        <rect class="cls-1" x="272.02" y="40.74" width="6.8" height="6.79"/>
        <rect class="cls-1" x="68" y="40.74" width="6.8" height="6.79"/>
        <rect class="cls-1" x="20.4" y="40.74" width="6.8" height="6.79"/>
        <rect class="cls-1" x="13.6" y="40.74" width="6.8" height="6.79"/>
        <rect class="cls-1" x="6.8" y="40.74" width="6.8" height="6.79"/>
        <rect class="cls-1" x="312.82" y="33.95" width="6.8" height="6.79"/>
        <rect class="cls-1" x="306.02" y="33.95" width="6.8" height="6.79"/>
        <rect class="cls-1" x="278.82" y="33.95" width="6.8" height="6.79"/>
        <rect class="cls-1" x="272.02" y="33.95" width="6.8" height="6.79"/>
        <rect class="cls-1" x="68" y="33.95" width="6.8" height="6.79"/>
        <rect class="cls-1" x="6.8" y="33.95" width="6.8" height="6.79"/>
        <rect class="cls-1" x="306.02" y="27.16" width="6.8" height="6.79"/>
        <rect class="cls-1" x="299.22" y="27.16" width="6.8" height="6.79"/>
        <rect class="cls-1" x="292.42" y="27.16" width="6.8" height="6.79"/>
        <rect class="cls-1" x="285.62" y="27.16" width="6.8" height="6.79"/>
        <rect class="cls-1" x="68" y="27.16" width="6.8" height="6.79"/>
        <rect class="cls-1" x="61.2" y="27.16" width="6.8" height="6.79"/>
        <rect class="cls-1" x="34" y="27.16" width="6.8" height="6.79"/>
        <rect class="cls-1" x="27.2" y="27.16" width="6.8" height="6.79"/>
        <rect class="cls-1" x="20.4" y="27.16" width="6.8" height="6.79"/>
        <rect class="cls-1" x="6.8" y="27.16" width="6.8" height="6.79"/>
        <rect class="cls-1" x="68" y="20.37" width="6.8" height="6.79"/>
        <rect class="cls-1" x="61.2" y="20.37" width="6.8" height="6.79"/>
        <rect class="cls-1" x="34" y="20.37" width="6.8" height="6.79"/>
        <rect class="cls-1" x="27.2" y="20.37" width="6.8" height="6.79"/>
        <rect class="cls-1" x="13.6" y="20.37" width="6.8" height="6.79"/>
        <rect class="cls-1" x="6.8" y="20.37" width="6.8" height="6.79"/>
        <rect class="cls-1" x="68" y="13.58" width="6.8" height="6.79"/>
        <rect class="cls-1" x="54.4" y="13.58" width="6.8" height="6.79"/>
        <rect class="cls-1" x="47.6" y="13.58" width="6.8" height="6.79"/>
        <rect class="cls-1" x="40.8" y="13.58" width="6.8" height="6.79"/>
        <rect class="cls-1" x="13.6" y="13.58" width="6.8" height="6.79"/>
        <rect class="cls-1" x="6.8" y="13.58" width="6.8" height="6.79"/>
        <rect class="cls-1" x="68" y="6.79" width="6.8" height="6.79"/>
        <rect class="cls-1" x="47.6" y="6.79" width="6.8" height="6.79"/>
        <rect class="cls-1" x="40.8" y="6.79" width="6.8" height="6.79"/>
        <rect class="cls-1" x="34" y="6.79" width="6.8" height="6.79"/>
        <rect class="cls-1" x="27.2" y="6.79" width="6.8" height="6.79"/>
        <rect class="cls-1" x="20.4" y="6.79" width="6.8" height="6.79"/>
        <rect class="cls-1" x="13.6" y="6.79" width="6.8" height="6.79"/>
        <rect class="cls-1" x="61.2" y="0" width="6.8" height="6.79"/>
        <rect class="cls-1" x="54.4" y="0" width="6.8" height="6.79"/>
        <rect class="cls-1" x="47.6" y="0" width="6.8" height="6.79"/>
      </g>
      <path class="cls-1" d="M292.42,61.11h-6.8v6.79h.02s0,0,0-.01c0-3.74,3.03-6.78,6.78-6.78Z"/>
      <path class="cls-1" d="M163.13,88.26h-6.8v6.79h.02s0,0,0-.01c0-3.74,3.03-6.78,6.78-6.78Z"/>
      <path class="cls-1" d="M340.02,81.48h-6.8v6.79h.02s0,0,0-.01c0-3.74,3.03-6.78,6.78-6.78Z"/>
      <path class="cls-1" d="M285.62,40.74h-6.8v6.79h.02s0,0,0-.01c0-3.74,3.03-6.78,6.78-6.78Z"/>
      <path class="cls-1" d="M292.42,33.95h-6.8v6.79h.02s0,0,0-.01c0-3.74,3.03-6.78,6.78-6.78Z"/>
      <path class="cls-1" d="M312.82,95.06h-6.8v6.79h.02s0,0,0-.01c0-3.74,3.03-6.78,6.78-6.78Z"/>
      <path class="cls-1" d="M306.02,101.61h-6.8v6.79h.02s0,0,0-.01c0-3.74,3.03-6.78,6.78-6.78Z"/>
      <path class="cls-1" d="M224.42,61.11h-6.8v6.79h.02s0,0,0-.01c0-3.74,3.03-6.78,6.78-6.78Z"/>
      <path class="cls-1" d="M204.01,81.48h-6.8v6.79h.02s0,0,0-.01c0-3.74,3.03-6.78,6.78-6.78Z"/>
      <path class="cls-1" d="M102.01,81.48h-6.8v6.79h.02s0,0,0-.01c0-3.74,3.03-6.78,6.78-6.78Z"/>
      <path class="cls-1" d="M27.2,13.58h-6.8v6.79h.02s0,0,0-.01c0-3.74,3.03-6.78,6.78-6.78Z"/>
      <path class="cls-1" d="M13.6,88.26v6.8h6.79v-.02s0,0-.01,0c-3.74,0-6.78-3.03-6.78-6.78Z"/>
      <path class="cls-1" d="M40.8,101.84h-6.8v6.79h.02s0,0,0-.01c0-3.74,3.03-6.78,6.78-6.78Z"/>
      <path class="cls-1" d="M136.01,135.79h-6.8v6.79h.02s0,0,0-.01c0-3.74,3.03-6.78,6.78-6.78Z"/>
      <path class="cls-1" d="M108.79,122.22h-6.8v6.79h.02s0,0,0-.01c0-3.74,3.03-6.78,6.78-6.78Z"/>
      <path class="cls-1" d="M285.61,60.88v-6.8h-6.79v.02s0,0,.01,0c3.74,0,6.78,3.03,6.78,6.78Z"/>
      <path class="cls-1" d="M278.81,54.08v-6.8h-6.79v.02s0,0,.01,0c3.74,0,6.78,3.03,6.78,6.78Z"/>
      <path class="cls-1" d="M190.41,95.05v-6.8h-6.79v.02s0,0,.01,0c3.74,0,6.78,3.03,6.78,6.78Z"/>
      <path class="cls-1" d="M299.22,95.07v-6.8h-6.79v.02s0,0,.01,0c3.74,0,6.78,3.03,6.78,6.78Z"/>
      <path class="cls-1" d="M312.9,47.54v-6.8h-6.79v.02s0,0,.01,0c3.74,0,6.78,3.03,6.78,6.78Z"/>
      <path class="cls-1" d="M306.02,40.75v-6.8h-6.79v.02s0,0,.01,0c3.74,0,6.78,3.03,6.78,6.78Z"/>
      <path class="cls-1" d="M244.81,67.67v-6.8h-6.79v.02s0,0,.01,0c3.74,0,6.78,3.03,6.78,6.78Z"/>
      <path class="cls-1" d="M231.21,88.27v-6.8h-6.79v.02s0,0,.01,0c3.74,0,6.78,3.03,6.78,6.78Z"/>
      <path class="cls-1" d="M231.21,122.22v-6.8h-6.79v.02s0,0,.01,0c3.74,0,6.78,3.03,6.78,6.78Z"/>
      <path class="cls-1" d="M217.61,81.48v-6.8h-6.79v.02s0,0,.01,0c3.74,0,6.78,3.03,6.78,6.78Z"/>
      <path class="cls-1" d="M136,88.27v-6.8h-6.79v.02s0,0,.01,0c3.74,0,6.78,3.03,6.78,6.78Z"/>
      <path class="cls-1" d="M88.4,81.48v-6.8h-6.79v.02s0,0,.01,0c3.74,0,6.78,3.03,6.78,6.78Z"/>
      <path class="cls-1" d="M149.6,95.05v-6.8h-6.79v.02s0,0,.01,0c3.74,0,6.78,3.03,6.78,6.78Z"/>
      <path class="cls-1" d="M204.01,135.8v-6.8h-6.79v.02s0,0,.01,0c3.74,0,6.78,3.03,6.78,6.78Z"/>
      <path class="cls-1" d="M163.21,115.42v-6.8h-6.79v.02s0,0,.01,0c3.74,0,6.78,3.03,6.78,6.78Z"/>
      <path class="cls-1" d="M149.6,122.22v-6.8h-6.79v.02s0,0,.01,0c3.74,0,6.78,3.03,6.78,6.78Z"/>
      <path class="cls-1" d="M6.79,88.27v-6.8H0v.02s0,0,.01,0c3.74,0,6.78,3.03,6.78,6.78Z"/>
      <path class="cls-1" d="M27.2,115.42v-6.8h-6.79v.02s0,0,.01,0c3.74,0,6.78,3.03,6.78,6.78Z"/>
      <path class="cls-1" d="M20.4,108.64v-6.8h-6.79v.02s0,0,.01,0c3.74,0,6.78,3.03,6.78,6.78Z"/>
      <path class="cls-1" d="M13.6,101.61v-6.8H6.81v.02s0,0,.01,0c3.74,0,6.78,3.03,6.78,6.78Z"/>
      <path class="cls-1" d="M108.8,142.58v-6.8h-6.79v.02s0,0,.01,0c3.74,0,6.78,3.03,6.78,6.78Z"/>
      <path class="cls-1" d="M115.6,115.43v-6.8h-6.79v.02s0,0,.01,0c3.74,0,6.78,3.03,6.78,6.78Z"/>
      <path class="cls-1" d="M108.8,108.64v-6.8h-6.79v.02s0,0,.01,0c3.74,0,6.78,3.03,6.78,6.78Z"/>
      <path class="cls-1" d="M102,135.8v-6.8h-6.79v.02s0,0,.01,0c3.74,0,6.78,3.03,6.78,6.78Z"/>
      <path class="cls-1" d="M95.2,115.43v-6.8h-6.79v.02s0,0,.01,0c3.74,0,6.78,3.03,6.78,6.78Z"/>
      <path class="cls-1" d="M27.2,54.32v-6.8h-6.79v.02s0,0,.01,0c3.74,0,6.78,3.03,6.78,6.78Z"/>
      <path class="cls-1" d="M68,40.75v-6.8h-6.79v.02s0,0,.01,0c3.74,0,6.78,3.03,6.78,6.78Z"/>
      <path class="cls-1" d="M40.8,20.38v-6.8h-6.79v.02s0,0,.01,0c3.74,0,6.78,3.03,6.78,6.78Z"/>
      <path class="cls-1" d="M61.2,27.17v-6.8h-6.79v.02s0,0,.01,0c3.74,0,6.78,3.03,6.78,6.78Z"/>
      <path class="cls-1" d="M47.61,122.22v-6.8h-6.79v.02s0,0,.01,0c3.74,0,6.78,3.03,6.78,6.78Z"/>
      <path class="cls-1" d="M61.2,122.22v-6.8h-6.79v.02s0,0,.01,0c3.74,0,6.78,3.03,6.78,6.78Z"/>
      <path class="cls-1" d="M163.21,135.79v-6.8h-6.79v.02s0,0,.01,0c3.74,0,6.78,3.03,6.78,6.78Z"/>
      <path class="cls-1" d="M54.4,135.8v-6.8h-6.79v.02s0,0,.01,0c3.74,0,6.78,3.03,6.78,6.78Z"/>
      <path class="cls-1" d="M190.41,81.48h6.8v-6.79h-.02s0,0,0,.01c0,3.74-3.03,6.78-6.78,6.78Z"/>
      <path class="cls-1" d="M197.21,74.69h6.8v-6.79h-.02s0,0,0,.01c0,3.74-3.03,6.78-6.78,6.78Z"/>
      <path class="cls-1" d="M231.22,54.32h6.8v-6.79h-.02s0,0,0,.01c0,3.74-3.03,6.78-6.78,6.78Z"/>
      <path class="cls-1" d="M292.43,81.48h6.8v-6.79h-.02s0,0,0,.01c0,3.74-3.03,6.78-6.78,6.78Z"/>
      <path class="cls-1" d="M285.62,101.85h6.8v-6.79h-.02s0,0,0,.01c0,3.74-3.03,6.78-6.78,6.78Z"/>
      <path class="cls-1" d="M306.02,81.48h6.8v-6.79h-.02s0,0,0,.01c0,3.74-3.03,6.78-6.78,6.78Z"/>
      <path class="cls-1" d="M312.82,74.69h6.8v-6.79h-.02s0,0,0,.01c0,3.74-3.03,6.78-6.78,6.78Z"/>
      <path class="cls-1" d="M319.62,67.9h6.8v-6.79h-.02s0,0,0,.01c0,3.74-3.03,6.78-6.78,6.78Z"/>
      <path class="cls-1" d="M244.82,88.27h6.8v-6.79h-.02s0,0,0,.01c0,3.74-3.03,6.78-6.78,6.78Z"/>
      <path class="cls-1" d="M278.82,33.95h6.8v-6.79h-.02s0,0,0,.01c0,3.74-3.03,6.78-6.78,6.78Z"/>
      <path class="cls-1" d="M238.02,95.05h6.8v-6.79h-.02s0,0,0,.01c0,3.74-3.03,6.78-6.78,6.78Z"/>
      <path class="cls-1" d="M319.62,88.27h6.8v-6.79h-.02s0,0,0,.01c0,3.74-3.03,6.78-6.78,6.78Z"/>
      <path class="cls-1" d="M224.42,101.85h6.8v-6.79h-.02s0,0,0,.01c0,3.74-3.03,6.78-6.78,6.78Z"/>
      <path class="cls-1" d="M210.81,101.85h6.8v-6.79h-.02s0,0,0,.01c0,3.74-3.03,6.78-6.78,6.78Z"/>
      <path class="cls-1" d="M204.01,108.63h6.8v-6.79h-.02s0,0,0,.01c0,3.74-3.03,6.78-6.78,6.78Z"/>
      <path class="cls-1" d="M204.01,67.9h6.8v-6.79h-.02s0,0,0,.01c0,3.74-3.03,6.78-6.78,6.78Z"/>
      <path class="cls-1" d="M183.61,129.01h6.8v-6.79h-.02s0,0,0,.01c0,3.74-3.03,6.78-6.78,6.78Z"/>
      <path class="cls-1" d="M170.01,115.41h6.8v-6.79h-.02s0,0,0,.01c0,3.74-3.03,6.78-6.78,6.78Z"/>
      <path class="cls-1" d="M6.8,13.58h6.8V6.79h-.02s0,0,0,.01c0,3.74-3.03,6.78-6.78,6.78Z"/>
      <path class="cls-1" d="M40.8,6.79h6.8V0h-.02s0,0,0,.01c0,3.74-3.03,6.78-6.78,6.78Z"/>
      <path class="cls-1" d="M20.4,27.16h6.8v-6.79h-.02s0,0,0,.01c0,3.74-3.03,6.78-6.78,6.78Z"/>
      <path class="cls-1" d="M61.2,20.37h6.8v-6.79h-.02s0,0,0,.01c0,3.74-3.03,6.78-6.78,6.78Z"/>
      <path class="cls-1" d="M122.41,135.79h6.8v-6.79h-.02s0,0,0,.01c0,3.74-3.03,6.78-6.78,6.78Z"/>
      <path class="cls-1" d="M88.41,122.21h6.8v-6.79h-.02s0,0,0,.01c0,3.74-3.03,6.78-6.78,6.78Z"/>
      <path class="cls-1" d="M142.81,108.63h6.8v-6.79h-.02s0,0,0,.01c0,3.74-3.03,6.78-6.78,6.78Z"/>
      <path class="cls-1" d="M34,108.63h6.8v-6.79h-.02s0,0,0,.01c0,3.74-3.03,6.78-6.78,6.78Z"/>
      <path class="cls-1" d="M54.4,108.63h6.8v-6.79h-.02s0,0,0,.01c0,3.74-3.03,6.78-6.78,6.78Z"/>
      <path class="cls-1" d="M136.01,129.01h6.8v-6.79h-.02s0,0,0,.01c0,3.74-3.03,6.78-6.78,6.78Z"/>
      <path class="cls-1" d="M88.41,101.85h6.8v-6.79h-.02s0,0,0,.01c0,3.74-3.03,6.78-6.78,6.78Z"/>
      <path class="cls-1" d="M61.2,47.53h6.8v-6.79h-.02s0,0,0,.01c0,3.74-3.03,6.78-6.78,6.78Z"/>
      <path class="cls-1" d="M0,47.53H6.8v-6.79h-.02s0,0,0,.01C6.78,44.5,3.74,47.53,0,47.53Z"/>
      <path class="cls-1" d="M136.01,74.68v6.8h6.79v-.02s0,0-.01,0c-3.74,0-6.78-3.03-6.78-6.78Z"/>
      <path class="cls-1" d="M265.14,67.89v6.8h6.79v-.02s0,0-.01,0c-3.74,0-6.78-3.03-6.78-6.78Z"/>
      <path class="cls-1" d="M265.14,88.26v6.8h6.79v-.02s0,0-.01,0c-3.74,0-6.78-3.03-6.78-6.78Z"/>
      <path class="cls-1" d="M251.62,54.32v6.8h6.79v-.02s0,0-.01,0c-3.74,0-6.78-3.03-6.78-6.78Z"/>
      <path class="cls-1" d="M299.23,54.32v6.8h6.79v-.02s0,0-.01,0c-3.74,0-6.78-3.03-6.78-6.78Z"/>
      <path class="cls-1" d="M278.83,95.05v6.8h6.79v-.02s0,0-.01,0c-3.74,0-6.78-3.03-6.78-6.78Z"/>
      <path class="cls-1" d="M258.34,81.47v6.8h6.79v-.02s0,0-.01,0c-3.74,0-6.78-3.03-6.78-6.78Z"/>
      <path class="cls-1" d="M319.63,40.74v6.8h6.79v-.02s0,0-.01,0c-3.74,0-6.78-3.03-6.78-6.78Z"/>
      <path class="cls-1" d="M326.43,47.52v6.8h6.79v-.02s0,0-.01,0c-3.74,0-6.78-3.03-6.78-6.78Z"/>
      <path class="cls-1" d="M312.83,27.16v6.8h6.79v-.02s0,0-.01,0c-3.74,0-6.78-3.03-6.78-6.78Z"/>
      <path class="cls-1" d="M217.62,67.89v6.8h6.79v-.02s0,0-.01,0c-3.74,0-6.78-3.03-6.78-6.78Z"/>
      <path class="cls-1" d="M88.41,67.89v6.8h6.79v-.02s0,0-.01,0c-3.74,0-6.78-3.03-6.78-6.78Z"/>
      <path class="cls-1" d="M68.01,61.1v6.8h6.79v-.02s0,0-.01,0c-3.74,0-6.78-3.03-6.78-6.78Z"/>
      <path class="cls-1" d="M210.82,122.22v6.8h6.79v-.02s0,0-.01,0c-3.74,0-6.78-3.03-6.78-6.78Z"/>
      <path class="cls-1" d="M163.22,122.21v6.8h6.79v-.02s0,0-.01,0c-3.74,0-6.78-3.03-6.78-6.78Z"/>
      <path class="cls-1" d="M47.54,88.25v6.8h6.79v-.02s0,0-.01,0c-3.74,0-6.78-3.03-6.78-6.78Z"/>
      <path class="cls-1" d="M34.01,88.26v6.8h6.79v-.02s0,0-.01,0c-3.74,0-6.78-3.03-6.78-6.78Z"/>
      <path class="cls-1" d="M156.34,115.42v6.8h6.79v-.02s0,0-.01,0c-3.74,0-6.78-3.03-6.78-6.78Z"/>
      <path class="cls-1" d="M27.21,74.68v6.8h6.79v-.02s0,0-.01,0c-3.74,0-6.78-3.03-6.78-6.78Z"/>
      <path class="cls-1" d="M47.54,47.52v6.8h6.79v-.02s0,0-.01,0c-3.74,0-6.78-3.03-6.78-6.78Z"/>
      <path class="cls-1" d="M54.41,61.1v6.8h6.79v-.02s0,0-.01,0c-3.74,0-6.78-3.03-6.78-6.78Z"/>
      <path class="cls-1" d="M13.6,67.89v6.8h6.79v-.02s0,0-.01,0c-3.74,0-6.78-3.03-6.78-6.78Z"/>
      <path class="cls-1" d="M54.41,6.79v6.8h6.79v-.02s0,0-.01,0c-3.74,0-6.78-3.03-6.78-6.78Z"/>
      <path class="cls-1" d="M68.01,0V6.8h6.79v-.02s0,0-.01,0c-3.74,0-6.78-3.03-6.78-6.78Z"/>
      <path class="cls-1" d="M27.21,40.74v6.8h6.79v-.02s0,0-.01,0c-3.74,0-6.78-3.03-6.78-6.78Z"/>
      <path class="cls-1" d="M13.6,54.32H6.8v6.79h.02s0,0,0-.01c0-3.74,3.03-6.78,6.78-6.78Z"/>
      <path class="cls-1" d="M20.4,27.16h-6.8v6.79h.02s0,0,0-.01c0-3.74,3.03-6.78,6.78-6.78Z"/>
      <path class="cls-1" d="M20.4,47.53h-6.8v6.79h.02s0,0,0-.01c0-3.74,3.03-6.78,6.78-6.78Z"/>
      <path class="cls-1" d="M74.81,47.53h-6.8v6.79h.02s0,0,0-.01c0-3.74,3.03-6.78,6.78-6.78Z"/>
      <path class="cls-1" d="M47.6,20.37h-6.8v6.79h.02s0,0,0-.01c0-3.74,3.03-6.78,6.78-6.78Z"/>
      <path class="cls-1" d="M108.81,128.99v6.8h6.79v-.02s0,0-.01,0c-3.74,0-6.78-3.03-6.78-6.78Z"/>
      <path class="cls-1" d="M101.93,108.62v6.8h6.79v-.02s0,0-.01,0c-3.74,0-6.78-3.03-6.78-6.78Z"/>
      <path class="cls-1" d="M108.81,95.05v6.8h6.79v-.02s0,0-.01,0c-3.74,0-6.78-3.03-6.78-6.78Z"/>
      <path class="cls-1" d="M122.41,101.84v6.8h6.79v-.02s0,0-.01,0c-3.74,0-6.78-3.03-6.78-6.78Z"/>
      <path class="cls-1" d="M54.41,122.21v6.8h6.79v-.02s0,0-.01,0c-3.74,0-6.78-3.03-6.78-6.78Z"/>
    </g>
    <text class="cls-3" transform="translate(135.65 213.93)"><tspan x="0" y="0">（4）</tspan></text>
    <text class="cls-2" transform="translate(177.02 200.39)"><tspan x="0" y="0">IMPERFECT</tspan></text>
  </g>
</svg>