<?xml version="1.0" encoding="UTF-8"?>
<svg id="Layer_2" data-name="Layer 2" xmlns="http://www.w3.org/2000/svg" viewBox="0 0 554.15 119.47">
  <defs>
    <style>
      .cls-1 {
        fill: #fff;
      }
    </style>
  </defs>
  <g id="_图层_1" data-name="图层 1">
    <path class="cls-1" d="M463.02,56.3c10.21,0,17.74,.3,25.01,.91,11.02,.93,18.38,2.6,22.08,4.99,2.95,1.91,5.67,3.83,8.55,5.74,1.81,1.2,3.61,2.4,5.64,3.59,3.97,2.31,10.22,4.31,18.56,6.01,4.13,.85,7.34,1.84,9.42,2.99,1.09,.6,1.72,1.23,1.85,1.88,.26,1.33-2.4,2.34-7.15,3.13-3.25,.54-6.89,.95-10.77,1.25-10.43,.8-20.88,1.6-31.33,2.39-2.73,.21-5.52,.37-8.24,.58-7.04,.53-13.36,1.31-18.26,2.55-3.47,.88-6.02,1.86-7.73,2.95-4.22,2.69-8.52,5.37-12.69,8.06-2.54,1.63-6.52,3.09-11.21,4.48-6.24,1.84-13.15,3.56-20.67,5.17-7.17,1.53-14.52,3.02-22.81,4.28-3.15,.48-6.42,.92-10.03,1.22-3.89,.32-7.85,.46-12.04,.24-3.9-.2-6.41-.68-7.46-1.5-1.36-1.06-.82-2.1,.98-3.11,2.27-1.27,5.9-2.36,10.32-3.33,2.96-.65,5.7-1.33,8.17-2.06,7.25-2.14,12.01-4.52,14.05-7.13,1.55-1.98,.36-3.91-2.77-5.78-1.62-.97-3.62-1.91-6.71-2.72-3.03-.8-6.87-1.28-11.62-1.43-2.45-.08-4.77,.07-7.08,.23-3.96,.27-7.49,.72-10.8,1.24-3.89,.61-7.68,1.25-11.33,1.92-11.76,2.16-22.06,4.61-31.17,7.29-5.71,1.68-9.96,3.52-12.83,5.51-3.62,2.51-7.41,5.01-11.19,7.51-1.42,.93-3.25,1.83-6.1,2.62-3.9,1.08-8.91,1.63-15.37,1.5-2.42-.05-4.7-.2-6.94-.4-6.3-.56-11.82-1.4-17.12-2.29-9.57-1.62-18.59-3.37-26.71-5.32-5.93-1.42-11.68-2.88-16.08-4.56-4.19-1.59-6.75-3.29-7.89-5.1-1.49-2.37,.66-4.61,4.66-6.81,2.82-1.54,6.38-3,11.24-4.3,1.8-.48,3.72-.95,5.7-1.4,10.25-2.33,16.91-5.07,20.13-8.18,2.98-2.88,.86-5.64-5.44-8.25-1.28-.53-2.99-.99-4.95-1.42-4.28-.94-9.46-1.18-15.27-.96-3.1,.12-6.05,.34-8.82,.67-4.57,.54-8.74,1.18-12.4,1.98-9.25,2.04-20.44,3.42-32.87,4.37-9.87,.75-19.82,1.45-29.68,2.2-6.23,.48-12.55,.91-18.54,1.52-8.43,.87-16.07,1.98-22.7,3.4-11.25,2.4-24.63,4.04-39.94,4.92-9.32,.54-18.79,.56-28.29,.15-4.88-.21-9.58-.51-14.05-.97-1.52-.16-2.99-.34-4.39-.54-6.35-.92-8.88-2.19-7.67-3.81,.78-1.03,2.64-1.98,5.29-2.85,2.5-.83,5.65-1.54,8.86-2.24,3.67-.8,6.61-1.71,8.8-2.72,4.13-1.92,3.12-3.76-2.03-5.52-2.05-.7-4.53-1.33-7.25-1.92-2.8-.6-5.59-1.21-8.17-1.86-3.5-.87-5.94-1.87-7.18-3-1.25-1.13-.48-2.2,1.93-3.22,2.23-.95,4.88-1.84,7.93-2.67,9.57-2.61,20.44-4.94,32.35-7.06,3.81-.68,7.93-1.26,12.34-1.75,5.63-.62,11.44-.72,17.54-.39,5.24,.29,9.86,.83,14.15,1.51,2.22,.35,4.31,.74,6.37,1.14,4.06,.78,8.45,1.45,13.42,1.94,3.11,.31,6.4,.45,9.76,.53,3.74,.08,7.14-.16,10.36-.55,4.74-.58,9.12-1.26,13.24-2.02,6.31-1.16,12.47-2.35,18.66-3.54,8.26-1.59,15.84-3.32,23.53-5.02,2.09-.46,4.27-.91,6.31-1.39,6.44-1.5,12.87-3,19.24-4.51,5.4-1.28,10.66-2.59,15.52-3.97,3.48-.99,6.7-2.01,9.38-3.12,2.24-.92,2.59-1.85,1.36-2.84-1.67-1.36-5.07-2.5-9.28-3.54-1.34-.33-2.75-.65-4.24-.95-5.78-1.16-10.39-2.5-14.13-3.99-4.02-1.59-7.31-3.25-9-5.04-2.49-2.61-1.56-5.18,2.79-7.68,2.17-1.25,5.49-2.36,10.07-3.26,4.37-.86,9.48-1.5,15.09-1.95,11.71-.93,23.72-1.15,35.94-.61,7.24,.32,14.16,.83,20.19,1.8,4.68,.75,7.06,1.73,6.98,2.98-.08,1.33-2.07,2.53-5.32,3.64-2.56,.88-5.68,1.67-9.01,2.41-3.1,.7-5.69,1.47-7.86,2.31-1.46,.56-2.56,1.16-3.39,1.79-1.63,1.22-1.12,2.39,1.5,3.53,2.35,1.02,5.31,1.97,8.71,2.84,8.58,2.2,17.96,4.24,28.3,6.07,5.38,.95,10.99,1.85,17.3,2.52,2.38,.25,4.8,.48,7.43,.59,4.27,.17,8.4,.03,12.43-.28,6.12-.47,11.28-1.27,16.01-2.2,2.74-.54,5.46-1.09,8.31-1.61,3.61-.65,7.67-1.16,12.1-1.52,2.73-.23,5.56-.36,8.44-.41,7.69-.13,13.16,.67,17.13,2,4.15,1.4,6.26,2.95,7.42,4.57,1.95,2.71-.49,5.28-5.55,7.76-4.68,2.3-11.2,4.32-19.48,6.09-9.05,1.94-15.01,4.27-19.16,6.84-4.72,2.92-9.43,5.84-14.25,8.76-2.54,1.54-5.95,2.99-10.4,4.32-2.67,.8-5.74,1.52-8.91,2.23-10.78,2.41-17.81,5.24-20.88,8.51-2.22,2.37-.79,4.66,3.42,6.89,1.27,.67,2.89,1.3,4.9,1.89,1.44,.42,3.14,.78,5.19,1.06,2.59,.36,5.39,.55,8.52,.54,5.08,0,9.73-.31,14.14-.83,4.91-.58,9.11-1.35,13.16-2.16,8.84-1.78,19.1-3.04,30.55-3.88,7.41-.54,14.81-1.1,22.24-1.63,6.51-.47,13.05-.92,19.57-1.38,3.57-.25,6.93-.6,10.07-1.04,2.65-.37,4.92-.82,6.58-1.41,2.77-.98,2.62-2.01,1.15-3.06-1.8-1.29-5.2-2.37-9.44-3.35-2.95-.68-5.96-1.35-8.79-2.05-4.13-1.02-6.48-2.23-7.14-3.57-.55-1.12,.96-2.08,4.78-2.88,3.43-.72,7.51-1.21,11.9-1.59,8.13-.7,16.57-1.09,22.96-1.08Zm-160.24-5.69c.18-1.48-.55-3.53-2.25-5.57-1.31-1.57-2.93-3.13-5.94-4.61-1.1-.54-2.36-1.07-3.81-1.57-1.79-.62-4.14-1.14-7.25-1.47-2.96-.31-5.97-.47-9.39-.33-5.37,.21-9.98,.75-14.32,1.4-9.47,1.43-17.92,3.11-25.83,4.93-5.85,1.34-11.41,2.72-16.26,4.23-2.61,.81-4.74,1.67-6.02,2.62-.93,.69-.95,1.36,.15,2.04,.83,.51,1.81,1.01,3.24,1.46,2.24,.7,4.37,1.42,6.86,2.08,4.94,1.3,10.46,2.5,16.21,3.63,4.51,.89,9.33,1.71,14.06,2.55,4.84,.86,10.04,1.6,15.79,2.15,2.29,.22,4.76,.37,7.22,.47,1.85,.07,3.78,.04,5.71-.08,4.8-.3,8.2-.95,10.81-1.82,2.35-.79,3.95-1.65,5.27-2.53,4.33-2.93,5.81-5.94,5.75-9.58Z"/>
  </g>
</svg>